<?xml version="1.0" encoding="utf-8"?>
<!-- Generator: Adobe Illustrator 28.0.0, SVG Export Plug-In . SVG Version: 6.00 Build 0)  -->
<svg version="1.1" id="圖層_1" xmlns="http://www.w3.org/2000/svg" xmlns:xlink="http://www.w3.org/1999/xlink" x="0px" y="0px"
	 viewBox="0 0 288.8 291.5" style="enable-background:new 0 0 288.8 291.5;" xml:space="preserve">
<style type="text/css">
	.st0{fill:#C0E4F3;}
	.st1{opacity:0.6;}
	.st2{fill:#7CCDEE;}
	.st3{fill:#E2F3FB;}
	.st4{opacity:0.1;fill:#FFFFFF;}
	.st5{fill:#E2A78C;}
	.st6{fill:#F7CFDB;}
	.st7{fill:#2F2B57;}
	.st8{fill:#1F396B;}
	.st9{fill:#0E4A80;}
	.st10{fill-rule:evenodd;clip-rule:evenodd;fill:#FFFFFF;}
	.st11{filter:url(#Adobe_OpacityMaskFilter);}
	.st12{filter:url(#Adobe_OpacityMaskFilter_00000072985810741640757120000004164567625617010611_);}
	.st13{mask:url(#SVGID_1_);fill:url(#SVGID_00000039096290982971518150000018022052208765874367_);}
	.st14{opacity:0.1;fill:url(#SVGID_00000165232198694762711740000012664635478342264235_);}
	.st15{fill:#0B3F5E;}
	.st16{fill:#013659;}
	.st17{fill:#FEFEFE;}
	.st18{filter:url(#Adobe_OpacityMaskFilter_00000036238295512270358220000004735602827494812068_);}
	.st19{filter:url(#Adobe_OpacityMaskFilter_00000075131401535732167240000006393653452183929994_);}
	
		.st20{mask:url(#SVGID_00000132081297145366450100000009747506315409268157_);fill:url(#SVGID_00000003092012049433753210000007403986036772012973_);}
	.st21{fill:url(#SVGID_00000068662216334750820990000000609737049046376613_);}
	.st22{fill:#455C90;}
	.st23{opacity:0.55;fill:url(#SVGID_00000021121849842565360080000015058826724730814356_);}
	.st24{fill:#147BB4;}
	.st25{opacity:0.25;fill:#455C90;}
	.st26{fill:#D7EDF7;}
	.st27{fill:#F4A638;}
	.st28{fill-rule:evenodd;clip-rule:evenodd;fill:#17739B;}
	.st29{opacity:0.55;fill-rule:evenodd;clip-rule:evenodd;fill:#0D647F;}
	.st30{fill-rule:evenodd;clip-rule:evenodd;fill:#147BB4;}
	.st31{fill:#6A69A8;}
	.st32{opacity:0.55;fill:#CA8469;}
	.st33{opacity:0.2;fill:#524794;}
	.st34{fill:#524794;}
	.st35{fill:#CA8469;}
	.st36{fill:#413880;}
	.st37{fill:#111D3B;}
	.st38{opacity:0.5;fill:#2F2B57;}
	.st39{fill:#E18D2A;}
	.st40{fill:#D18029;}
	.st41{opacity:0.5;fill:#D18029;}
	.st42{opacity:0.25;fill:#DD8A11;}
	.st43{fill:#F5C2C4;}
	.st44{fill:#DFAAAF;}
	.st45{fill:#213B79;}
	.st46{fill:#BDCBD4;}
	.st47{opacity:0.25;fill:#2A3787;}
	.st48{fill:#DFADB0;}
	.st49{opacity:0.5;fill:#DFAAAF;}
	.st50{fill:#D58621;}
	.st51{fill:#C0751E;}
	.st52{fill:#175384;}
	.st53{fill:url(#SVGID_00000074438733110935040380000006406604259476636840_);}
	.st54{opacity:0.35;}
	.st55{fill:url(#SVGID_00000111165635058575429420000016659469705904021386_);}
	.st56{opacity:0.25;}
	.st57{fill:url(#SVGID_00000079446011279967957870000008299744070722846858_);}
	.st58{fill:url(#SVGID_00000004514430376175077890000015199212603791982232_);}
	.st59{fill:url(#SVGID_00000160893508382968019720000016006892463268102287_);}
	.st60{fill:url(#SVGID_00000182528674712616657640000018088101065435936644_);}
	.st61{fill:url(#SVGID_00000180338372397778810200000006276426128350208387_);}
	.st62{fill:url(#SVGID_00000049182407806409550910000005001050941389472691_);}
	.st63{opacity:0.2;}
	.st64{fill:#2A3787;}
	.st65{fill:#145078;}
	.st66{opacity:0.67;fill:#E89720;}
	.st67{fill:#E99820;}
	.st68{fill:#E89720;}
</style>
<g>
	<g>
		<g>
			<g>
				<path class="st0" d="M86,197c-1.7-0.8-3.6-1.3-5.2-2.3c-0.6-0.4-1.1-0.8-1.4-1.5c-0.5-1.3,0.5-2.8,1-4.2
					c1.7-4.2-0.5-8.7-2.6-12.5c-0.6-1.1-1.3-2.2-2.4-2.5c-1.7-0.5-3.3,1-4.7,2.3c-1.3,1.3-3.2,2.6-4.7,1.8c-1.5-0.8-1.5-3.1-0.8-4.8
					c0.8-1.9,2.3-3.4,3.1-5.3c0.8-1.9,0.9-4.4-0.7-5.5c-1.9-1.4-4.6,0.1-6.6,1.4c-2,1.3-4.9,2.5-6.5,0.8c-0.9-0.9-1-2.5-0.6-3.8
					c0.4-1.3,1.3-2.4,2.1-3.5c0.5-0.6,0.9-1.3,0.9-2.1c0-0.7-0.5-1.3-1-1.7c-2.8-2.6-7.6-2.6-10.6,0c-3,2.6-3.8,7.4-1.8,10.7
					c0.8,1.2,1.9,2.8,1,4c-1.2,1.6-3.5-0.3-5.4-0.1c-1.6,0.2-2.8,1.9-2.8,3.6c0,1.6,0.9,3.1,1.9,4.3c2,2.3,4.6,4,6.9,5.9
					c0.4,0.3,0.8,0.6,0.9,1.1c0.3,0.8-0.2,1.7-0.8,2.3c-1.4,1.4-3.2,2-4.9,2.9c-1.7,0.9-3.4,2.3-3.7,4.1c-0.3,2,1.2,3.8,3,4.7
					c1.8,0.9,3.8,1.2,5.6,2.1c0.5,0.2,1.1,0.6,1.3,1.1c0.3,0.8-0.2,1.8-0.7,2.6c-2.8,4.2-5.6,8.4-8.5,12.6c-0.4,0.6-0.8,1.2-0.7,1.9
					c0,0.3,0.2,0.6,0.4,0.9c1.9,2.9,5.7,4.1,9.2,3.8c3-0.2,5.9-1.2,8.8-2.3c0.3-0.7,0.9-1.3,1.8-1.6c8.3-3.2,17.1-4.5,25.5-7.2
					c1.5-1.3,3-2.5,4.4-3.9c1.6-1.5,3-3.6,2.7-5.7C89.3,199.2,87.7,197.8,86,197z"/>
			</g>
		</g>
		<g class="st1">
			<path class="st2" d="M63.8,213.7c0.6,0.5,1.1,1,1.6,1.5c2.1-0.6,4.2-1.1,6.3-1.6c-1.3-3.3-2.6-6.5-3.7-9.9
				c-0.4-1.2-0.8-2.4-0.7-3.7c0.2-1.2,0.8-2.2,1-3.4c0.4-1.9-0.4-3.8-1.5-5.4c-1.1-1.6-2.5-3-3.5-4.6c-0.8-1.3-1.3-2.7-1.9-4
				c-1.9-4.8-4.3-9.3-6.7-13.9c-0.1-0.3-0.3-0.5-0.6-0.6c-0.3-0.1-0.5,0-0.8,0.1c-2.1,1-3.2,3.4-3.4,5.7c-0.2,2.3,0.5,4.6,1.2,6.8
				c0.7,2.2,1.6,4.4,1.8,6.7c0.3,3.4-0.7,6.8-0.1,10.1c0.4,2.2,1.5,4.2,1.7,6.3c0.1,0.7,0,1.4,0.2,2.1c0.2,0.7,0.7,1.2,1.2,1.7
				C58.2,210.1,61.3,211.5,63.8,213.7z"/>
		</g>
		<path class="st3" d="M60.3,211.3c1.6,0.5,3.5,0.7,5.1,1c0.5,0.8,1,1.6,1.5,2.5c0.2-0.1,0.5-0.1,0.7-0.2c-2.6-4-4.8-8.4-6.6-12.9
			c1-1.1,2.2-2.3,3.1-3.4c3.2-4.1,4.7-6.9,6.6-10.6l0,0c-2,3.7-4.8,7.8-6.9,10c-0.7,0.8-1.9,2-3.1,3.1c-0.6-1.6-1.2-3.2-1.8-4.9
			c0,0,0,0,0,0c0,0,0,0,0-0.1c-0.3-1-0.6-1.9-0.9-2.9c-0.4-1.2-0.7-2.3-1-3.5c0.4-0.4,0.9-0.9,1.2-1.4c1.1-1.5,2.1-3,2.9-4.7l0,0
			c-0.9,1.6-2,2.8-3.1,4.2c-0.4,0.5-0.8,0.9-1.2,1.3c-1.8-6.4-3.2-13-4.2-19.7l-0.1,0c0.5,3.8,1.1,7.5,1.9,11.3
			c-0.6-0.3-1.2-0.6-1.7-0.9c-1.5-1-3-1.7-4.3-2.9l0,0c1.3,1.2,2.8,2.4,4.3,3.4c0.5,0.4,1.2,0.6,1.8,1c0.8,4,1.8,8,3,11.9
			c0.2,0.6,0.4,1.3,0.6,1.9c-1.2-0.2-2.4-0.4-3.6-0.8c-3.4-1-6.4-1.6-9.6-3.1l0,0c3.1,1.6,6.4,2.7,9.7,3.7c1.1,0.3,2.5,0.7,3.7,1
			c1.7,5.3,3.8,10.5,6.4,15.4c-1.9-0.3-3.3-0.3-4.8-0.7c-4.3-1.3-8.2-2.4-12.2-4.3l0,0C51.8,208.3,56,210,60.3,211.3z"/>
		<path class="st4" d="M52.1,153.5c0,0-8.3-0.6-8,8.2c0,0,1.3-5.6,6.1-6.8C55,153.6,52.1,153.5,52.1,153.5z"/>
		<path class="st4" d="M41.4,170.1c0,0-3.9,3,0,6.1C41.3,176.2,34,169.2,41.4,170.1z"/>
		<path class="st4" d="M63.5,164.2c0,0,4.9,0.7,3,5.3C66.5,169.6,69.5,159.9,63.5,164.2z"/>
		<path class="st4" d="M42.1,189c0,0-4.4,1.8-3.2,4.2c1.2,2.4,6.3,3.6,6.3,3.6s-4.4-1.9-4.3-4C41.1,190.6,44,192.1,42.1,189z"/>
		<path class="st4" d="M71.4,176.4c0,0,4-2.5,5.2-0.2c1.2,2.3-0.7,7.2-0.7,7.2s1-4.7-0.8-5.8C73.3,176.5,72.7,179.7,71.4,176.4z"/>
		<path class="st4" d="M82.9,199.3c0,0,4.6-1.2,5.1,1.4c0.5,2.6-2.9,6.7-2.9,6.7s2.4-4.1,1-5.8C84.6,200,83.1,202.9,82.9,199.3z"/>
		<path class="st4" d="M44.9,207.4c-0.3-0.2-6.1,7.9-6.1,7.9s0.1,5.6,7.7,4.1c0,0-5.5-0.6-5.8-3.8C40.7,215.6,49.6,210.9,44.9,207.4
			z"/>
	</g>
	<path class="st0" d="M39.9,207.7c0,0-5.7-3.2-5.9-6.6c-0.2-3.4-0.8-4.4-0.8-4.4s4.3,0.5,6.2,3.4c1.8,2.9,0.6,7.3,0.6,7.3
		s-0.3-3.4-2.6-5.9C37.4,201.4,38,203.6,39.9,207.7z"/>
	<path class="st0" d="M34.3,184.3c0,0,0.9-3.1,2.5-3.6s2.1-0.9,2.1-0.9s0.2,2.2-1,3.4c-1.2,1.2-3.5,1.1-3.5,1.1s1.6-0.5,2.6-1.9
		C37,182.3,36,182.9,34.3,184.3z"/>
	<path class="st0" d="M36.6,166c0,0,2.8-4.9,1.4-7.5c-1.4-2.6-1.4-3.6-1.4-3.6s-3,2.3-3,5.3c-0.1,2.9,2.9,5.6,2.9,5.6
		s-1.3-2.6-0.7-5.5C35.7,160.3,36.2,162.2,36.6,166z"/>
</g>
<g>
	<polygon class="st5" points="251,267 251.6,271.3 254.2,271 254.4,266.3 	"/>
	<path class="st6" d="M251.2,269.4c-0.1,0.6,0.4,2,0.4,2l2.8-0.4c0,0,0.4-2,0-2C252.9,268.8,251.6,268.8,251.2,269.4z"/>
	<path class="st7" d="M254.3,273.8c-0.7,0.6-6.5,4.4-7.2,3.4c-0.7-1-0.8-2.8,2.3-5.2c1.3-1,1.6-3.1,1.7-2.4c0,0.7,1.9,1.9,2.9,1
		c0.6-0.5,0.8,0.4,0.8,1.4c0,0,0,0,0,0C254.8,272.8,254.6,273.5,254.3,273.8z"/>
</g>
<g>
	<path class="st8" d="M249,194.6c0,0-6.7,10.1,2,73.4c0.1,0.9,3.5,1.6,3.8,0.7c10.9-46.6,12.5-59.4,10.3-69.9
		C262.8,188.3,249,194.6,249,194.6z"/>
</g>
<g>
	<polygon class="st5" points="275.2,267 275.7,271.3 278.3,271 278.5,266.3 	"/>
	<path class="st6" d="M275.3,269.4c-0.1,0.6,0.4,2,0.4,2l2.8-0.4c0,0,0.4-2,0-2C277,268.8,275.7,268.8,275.3,269.4z"/>
	<path class="st7" d="M278.4,273.8c-0.7,0.6-6.5,4.4-7.2,3.4c-0.7-1-0.8-2.8,2.3-5.2c1.3-1,1.6-3.1,1.7-2.4c0,0.7,1.9,1.9,2.9,1
		c0.6-0.5,0.8,0.4,0.8,1.4c0,0,0,0,0,0C278.9,272.8,278.7,273.5,278.4,273.8z"/>
</g>
<path class="st9" d="M257.6,196c0,0-4.4,11.3,17.4,71.3c0.3,0.9,3.8,0.8,3.8-0.1c0.8-47.9-0.4-60.7-4.7-70.5
	C269.7,186.9,257.6,196,257.6,196z"/>
<path class="st10" d="M228.1,36.6L205.5,27l-0.5-0.2l-2.2,0.4l-9.3,1.8l-41.9,8.2l-37.2,7.3v10h1.4v35.6h-2.7v2.3h2.7l-0.4,3.6
	c-0.9,0.5-3,1.9-3,3.8c0,1.2,0.7,2.3,2.3,3.3c0.5,0.3,1.6,1,2.7,1c0.4,0,0.8-0.1,1.2-0.4c1.5-1.2,0.4-4.7,0.1-5.4l-1.3,0.5
	c0.5,1.5,0.8,3.5,0.3,3.9c-0.1,0.1-0.6,0.4-2.3-0.7c-1.1-0.7-1.7-1.4-1.7-2c0-1.2,2-2.5,2.6-2.8l0.3-0.2l0.5-4.5h2.1v-2.3h-2V54.5
	h52.2v-0.1h14.5L175.8,181h-2.9v11h52.5v-11h-3.4l-8.1-126.6h4.6v0.1h15.4v12.4h12.4V54.5h1.4v-9.6L228.1,36.6z M205.5,31.8l0.1-0.2
	l19.3,8.2l-19.4-4.1l-2.2-0.5L205.5,31.8z M187.9,87.2L199,71.6l11.1,15.6l-11.1,17L187.9,87.2z M212.1,127.6L199,149.9l-13.1-22.3
	l13.1-20.2L212.1,127.6z M200,70.3l8.7-12.2l1.7,26.7L200,70.3z M208.6,49.7h-19.8l4.8-2l9.3-3.9l2.6-1.1l3.1-1.3V49.7z M189.3,54.4
	h19.1l0.1,1.3L199,68.9l-9.8-13.6L189.3,54.4z M189.1,57.7l9,12.6l-10.7,15L189.1,57.7z M187.1,89l10.9,16.8l-13.1,20l-0.2-0.3
	L187.1,89z M197.8,152l-16.6,28.4l3.3-51.3L197.8,152z M199,154l15.7,27h-31.4L199,154z M200.2,152l13.1-22.5l3.2,50.2L200.2,152z
	 M200.1,105.8l10.6-16.4l2.3,36.2L200.1,105.8z M205.5,39.8l2.2,0.5l-2.2,0.9l-2.6,1.1l-9.3,3.9l-4.5,1.3l0.7-7.5l10.1-1.3l3,0.6
	L205.5,39.8z M193.6,33.3l6.9-1.3l-1.7,2.7l-5.2,0.6L169.1,38L193.6,33.3z M118.6,50.4v-2.3l66.2-7.7l-0.5,9.5L118.6,50.4z
	 M181.1,181L181.1,181L181.1,181L181.1,181z M243.4,50.4h-30v-0.6h-0.7v-8.3l15.4,3.3l15.3,3.3V50.4z"/>
<g>
	<defs>
		<filter id="Adobe_OpacityMaskFilter" filterUnits="userSpaceOnUse" x="36.6" y="270.6" width="245" height="20.9">
			<feFlood  style="flood-color:white;flood-opacity:1" result="back"/>
			<feBlend  in="SourceGraphic" in2="back" mode="normal"/>
		</filter>
	</defs>
	<mask maskUnits="userSpaceOnUse" x="36.6" y="270.6" width="245" height="20.9" id="SVGID_1_">
		<g class="st11">
			<defs>
				
					<filter id="Adobe_OpacityMaskFilter_00000012433949102592900800000004083050523507380352_" filterUnits="userSpaceOnUse" x="36.6" y="270.6" width="270.1" height="20.9">
					<feFlood  style="flood-color:white;flood-opacity:1" result="back"/>
					<feBlend  in="SourceGraphic" in2="back" mode="normal"/>
				</filter>
			</defs>
			<mask maskUnits="userSpaceOnUse" x="36.6" y="270.6" width="270.1" height="20.9" id="SVGID_1_">
				<g style="filter:url(#Adobe_OpacityMaskFilter_00000012433949102592900800000004083050523507380352_);">
				</g>
			</mask>
			
				<linearGradient id="SVGID_00000124864712912499128550000000208662209396401572_" gradientUnits="userSpaceOnUse" x1="665.187" y1="296.308" x2="929.8957" y2="264.7324" gradientTransform="matrix(-1 0 -6.260000e-02 1 981.9828 0)">
				<stop  offset="0" style="stop-color:#FFFFFF"/>
				<stop  offset="0.3726" style="stop-color:#FDFDFD"/>
				<stop  offset="0.5069" style="stop-color:#F6F6F6"/>
				<stop  offset="0.6026" style="stop-color:#EBEBEB"/>
				<stop  offset="0.68" style="stop-color:#DADADA"/>
				<stop  offset="0.7463" style="stop-color:#C4C4C4"/>
				<stop  offset="0.805" style="stop-color:#A8A8A8"/>
				<stop  offset="0.8581" style="stop-color:#888888"/>
				<stop  offset="0.9069" style="stop-color:#626262"/>
				<stop  offset="0.9523" style="stop-color:#373737"/>
				<stop  offset="0.9926" style="stop-color:#090909"/>
				<stop  offset="1" style="stop-color:#000000"/>
			</linearGradient>
			<path style="mask:url(#SVGID_1_);fill:url(#SVGID_00000124864712912499128550000000208662209396401572_);" d="M36.6,281.1
				c-0.7,5.8,59.3,10.5,133.9,10.5c74.6,0,135.6-4.7,136.2-10.5c0.6-5.8-59.4-10.4-133.9-10.4C98.2,270.6,37.3,275.3,36.6,281.1z"/>
		</g>
	</mask>
	
		<linearGradient id="SVGID_00000111869789393035683090000000020109896502614949_" gradientUnits="userSpaceOnUse" x1="689.5752" y1="294.2128" x2="929.6186" y2="265.5793" gradientTransform="matrix(-1 0 -6.260000e-02 1 981.9828 0)">
		<stop  offset="0" style="stop-color:#000000"/>
		<stop  offset="0.3726" style="stop-color:#020202"/>
		<stop  offset="0.5069" style="stop-color:#090909"/>
		<stop  offset="0.6026" style="stop-color:#141414"/>
		<stop  offset="0.68" style="stop-color:#252525"/>
		<stop  offset="0.7463" style="stop-color:#3B3B3B"/>
		<stop  offset="0.805" style="stop-color:#575757"/>
		<stop  offset="0.8581" style="stop-color:#777777"/>
		<stop  offset="0.9069" style="stop-color:#9D9D9D"/>
		<stop  offset="0.9523" style="stop-color:#C8C8C8"/>
		<stop  offset="0.9926" style="stop-color:#F6F6F6"/>
		<stop  offset="1" style="stop-color:#FFFFFF"/>
	</linearGradient>
	<path style="opacity:0.1;fill:url(#SVGID_00000111869789393035683090000000020109896502614949_);" d="M36.6,281.1
		c-0.7,5.8,59.3,10.5,133.9,10.5c74.6,0,110.5-5.1,111.1-10.9c0.6-5.8-34.3-10-108.8-10C98.2,270.6,37.3,275.3,36.6,281.1z"/>
	<g>
		<path class="st15" d="M94.1,277l-19-8.4l-0.3,0.3c0,0,20.6,13.3,22.3,13.2C97.2,282,94.1,277,94.1,277z"/>
		<g>
			<path class="st16" d="M238.5,258.4c0.1,2.6-0.8,5.3-2.6,7.4c-1.8,2.1-4.1,3.3-6.5,3.3H76.3c-3.8,0-6.7-3.1-6.9-7.4l-3.6-91.5
				c-0.1-2.6,0.9-5.3,2.6-7.3c1.8-2,4.1-3.2,6.5-3.2h152.2c3.8,0,6.7,3.1,6.9,7.3L238.5,258.4z"/>
			<path class="st17" d="M74.4,164l152.3,0c1.9,0,3.4,1.6,3.5,3.7l4.2,85.3c0.1,2.8-2.1,5.4-4.6,5.4l-153.1,0
				c-1.9,0-3.4-1.6-3.5-3.7l-3.4-85.3C69.6,166.6,71.9,164,74.4,164z"/>
			<defs>
				
					<filter id="Adobe_OpacityMaskFilter_00000001627837394170572020000008670194265748215478_" filterUnits="userSpaceOnUse" x="71.7" y="166.2" width="160.6" height="90">
					<feFlood  style="flood-color:white;flood-opacity:1" result="back"/>
					<feBlend  in="SourceGraphic" in2="back" mode="normal"/>
				</filter>
			</defs>
			
				<mask maskUnits="userSpaceOnUse" x="71.7" y="166.2" width="160.6" height="90" id="SVGID_00000023993795030168271380000003807734370577737121_">
				<g style="filter:url(#Adobe_OpacityMaskFilter_00000001627837394170572020000008670194265748215478_);">
					<defs>
						
							<filter id="Adobe_OpacityMaskFilter_00000109741144321647652860000002433709444112991113_" filterUnits="userSpaceOnUse" x="71.7" y="166.2" width="161" height="102.7">
							<feFlood  style="flood-color:white;flood-opacity:1" result="back"/>
							<feBlend  in="SourceGraphic" in2="back" mode="normal"/>
						</filter>
					</defs>
					
						<mask maskUnits="userSpaceOnUse" x="71.7" y="166.2" width="161" height="102.7" id="SVGID_00000023993795030168271380000003807734370577737121_">
						<g style="filter:url(#Adobe_OpacityMaskFilter_00000109741144321647652860000002433709444112991113_);">
						</g>
					</mask>
					
						<linearGradient id="SVGID_00000160155499986739724990000013390597493038871439_" gradientUnits="userSpaceOnUse" x1="681.2498" y1="96.9168" x2="944.7279" y2="332.4281" gradientTransform="matrix(-1 0 -6.260000e-02 1 981.9828 0)">
						<stop  offset="0" style="stop-color:#EBEBEB"/>
						<stop  offset="0.1046" style="stop-color:#E1E1E1"/>
						<stop  offset="0.2785" style="stop-color:#C8C8C8"/>
						<stop  offset="0.4987" style="stop-color:#9F9F9F"/>
						<stop  offset="0.6456" style="stop-color:#808080"/>
					</linearGradient>
					
						<path style="mask:url(#SVGID_00000023993795030168271380000003807734370577737121_);fill:url(#SVGID_00000160155499986739724990000013390597493038871439_);" d="
						M230.3,268.8c0.6,0,1.2-0.3,1.7-0.9c0.5-0.5,0.7-1.2,0.7-1.9l-4.5-98c-0.1-1.1-0.8-1.9-1.8-1.9l-152.3,0
						c-0.6,0-1.2,0.3-1.7,0.8c-0.5,0.5-0.7,1.2-0.7,1.9l3.8,98c0,1.1,0.8,1.9,1.8,1.9L230.3,268.8z"/>
				</g>
			</mask>
			
				<linearGradient id="SVGID_00000083802385764118837170000000144224904365029274_" gradientUnits="userSpaceOnUse" x1="687.6653" y1="95.7951" x2="939.7379" y2="321.1115" gradientTransform="matrix(-1 0 -6.260000e-02 1 981.9828 0)">
				<stop  offset="0" style="stop-color:#FFFFFF"/>
				<stop  offset="6.156285e-02" style="stop-color:#F8F8FC"/>
				<stop  offset="0.1639" style="stop-color:#E1E2F2"/>
				<stop  offset="0.2944" style="stop-color:#BCBEE0"/>
				<stop  offset="0.448" style="stop-color:#868FC7"/>
				<stop  offset="0.6192" style="stop-color:#3D5CA9"/>
				<stop  offset="0.6456" style="stop-color:#2F55A5"/>
			</linearGradient>
			<path style="fill:url(#SVGID_00000083802385764118837170000000144224904365029274_);" d="M230,256.1c0.6,0,1.2-0.3,1.7-0.9
				c0.5-0.5,0.7-1.2,0.7-1.9l-4.2-85.3c-0.1-1.1-0.8-1.9-1.8-1.9l-152.3,0c-0.6,0-1.2,0.3-1.7,0.8c-0.5,0.5-0.7,1.2-0.7,1.9
				l3.4,85.3c0,1.1,0.8,1.9,1.8,1.9L230,256.1z"/>
		</g>
		<path class="st16" d="M96,282.2l187.2-0.5c1.4,0,2.7-1.3,2.9-2.9l0.3-2.3L94.1,277l-0.3,2.3C93.6,280.9,94.6,282.2,96,282.2z"/>
		<polygon class="st22" points="286.3,276.5 232.6,268.6 75.1,268.6 94,277 		"/>
		
			<linearGradient id="SVGID_00000008123891594408004640000011949594260050645935_" gradientUnits="userSpaceOnUse" x1="27.6927" y1="250.6418" x2="314.6909" y2="315.8936" gradientTransform="matrix(1 0 2.660000e-02 1 45.5488 0)">
			<stop  offset="0" style="stop-color:#FFFFFF"/>
			<stop  offset="6.156285e-02" style="stop-color:#F8F8FC"/>
			<stop  offset="0.1639" style="stop-color:#E1E2F2"/>
			<stop  offset="0.2944" style="stop-color:#BCBEE0"/>
			<stop  offset="0.448" style="stop-color:#868FC7"/>
			<stop  offset="0.6192" style="stop-color:#3D5CA9"/>
			<stop  offset="0.6456" style="stop-color:#2F55A5"/>
		</linearGradient>
		<polygon style="opacity:0.55;fill:url(#SVGID_00000008123891594408004640000011949594260050645935_);" points="263,274.4 
			224.6,270.7 98.4,270.7 108.9,274.8 		"/>
	</g>
</g>
<g>
	<g>
		<path class="st24" d="M217.3,136.7l-126.2-6c-4.5-0.2-8.3,3.1-8.6,7.5l-4,78.8l142.5,6.8l4-78.8
			C225.3,140.6,221.8,136.9,217.3,136.7z"/>
		<path class="st25" d="M219.1,234.9c0,4.3-3.7,7.7-8.3,7.5l-126.4-6c-4.5-0.2-8.1-3.9-8.1-8.2l0.8-68.6l142.8,3.3L219.1,234.9z"/>
		<path class="st26" d="M82.4,142.7l-4,78.8c-0.2,4.3,3.3,8,7.8,8.2l126.2,6c4.5,0.2,8.3-3.1,8.6-7.5l4-78.8L82.4,142.7z"/>
	</g>
	<path class="st26" d="M99.1,137.9c-0.1,1.1-1.1,2-2.2,2c-1.2-0.1-2.1-1-2-2.2c0.1-1.1,1.1-2,2.2-2
		C98.3,135.8,99.2,136.8,99.1,137.9z"/>
	<path class="st26" d="M104.4,138.2c-0.1,1.1-1.1,2-2.2,2c-1.2-0.1-2.1-1-2-2.2c0.1-1.1,1.1-2,2.2-2
		C103.6,136.1,104.5,137,104.4,138.2z"/>
	<path class="st27" d="M109.7,138.4c-0.1,1.1-1.1,2-2.2,2c-1.2-0.1-2.1-1-2-2.2c0.1-1.1,1.1-2,2.2-2
		C108.8,136.3,109.8,137.3,109.7,138.4z"/>
</g>
<path class="st28" d="M116.4,102c-0.4,0-0.7,0.3-0.7,0.6v34c0,0.3,0.3,0.6,0.7,0.6s0.7-0.3,0.7-0.6v-34
	C117.1,102.2,116.8,102,116.4,102z"/>
<path class="st29" d="M115.6,132.9v3.7c0,0.3,0.3,0.6,0.7,0.6s0.7-0.3,0.7-0.6v-3.5C116.6,133,116.1,132.9,115.6,132.9z"/>
<path class="st30" d="M116.4,102c-0.4,0-0.7,0.3-0.7,0.6v28.7C116.1,131.3,116.8,102,116.4,102z"/>
<g>
	<path class="st31" d="M253.7,201.4c4.1,1.6,8.2,2.1,11.6,1.9c5.2-0.2,9-1.9,9.9-3.5c0.9-1.7,0.8-17.1-0.3-29.6
		c-0.7-7.6-1.7-14.1-3-15.9c-3.5-4.8-11.5-3.1-11.5-3.1c-3.8,0.5-11.2,3.6-12.3,6.9C247,161.4,243.4,197.4,253.7,201.4z"/>
	<path class="st5" d="M248.1,163.1c0,0-0.8,0.1-2,0.3c-1.6,0.2-3.9,0.5-6.4,0.7c-5,0.4-28.3-9.6-28.7-9.7c0,0,0,0,0,0l0.1-1
		c0,0,19.9,1.3,22.9,2.1c2,0.5,6.8-0.3,10-0.9c0,0,0,0,0,0l0.1,0c1.6-0.3,2.8-0.6,2.8-0.6L248.1,163.1z"/>
	<path class="st32" d="M246.1,163.3c-1.6,0.2-3.9,0.5-6.4,0.7c-5,0.4-28.3-9.6-28.7-9.7c0.3,0,4.3,0.8,7.5,2
		c3.3,1.3,15.7,3.8,18.7,3c3-0.8,5-2.3,5.5-3.4c0.4-0.9,1-1.3,1.3-1.4c0,0,0,0,0,0c0.1,0,0.1,0,0.1,0l0,0l1.3,3.1
		C245.4,157.5,247,160.8,246.1,163.3z"/>
	<path class="st33" d="M264,203.3c5.8-0.2,10.1-1.9,11.1-3.5c1-1.7,0.9-17.1-0.3-29.6c-0.8-1.1-1.4-1.8-1.7-2.1
		c-1.7-1.4-4.2-4.3-4.5-4.6c0.4,0.5,5,7,4.1,11.5c-0.9,4.7,3.1,12.4-0.1,17C270.4,195.1,264.3,200.2,264,203.3z"/>
	<path class="st31" d="M256.9,152.6c0,0-7.4-0.9-16.6,1.2c0,0-0.2,10.3,1.9,11c1.1,0.3,4.7-1.1,9.2-1.3
		C255.6,163.2,256.9,152.6,256.9,152.6z"/>
	<path class="st34" d="M247.5,166.4c0,0,0.4-7.2,1.6-9.9c0,0-2.1,6.2-2,9.9L247.5,166.4z"/>
	<g>
		<path class="st35" d="M263.8,141.9c0,0,0.6,0.4,0.5,0.7c-0.2,0.3-0.3,0.7-0.3,0.7s0.2-0.5,0.2-0.8
			C264.1,142.3,263.7,142.1,263.8,141.9z"/>
		<path class="st34" d="M260.3,155.6c0,0,0.6,11.1-1.4,18.1c-2,6.9,0.8,29.2,0.8,29.2h0.4c0,0-2.6-19.8-0.9-26.7
			C262.1,164.1,260.3,155.6,260.3,155.6z"/>
		<g>
			<path class="st5" d="M258,151.7l0.5-3.3l3.2-0.2l1,3.2c0,0-1.2,3.9-2.4,3.9C259.2,155.4,258,152,258,151.7z"/>
			<g>
				<polygon class="st36" points="259.3,152.6 260.2,155.6 257.6,153.1 				"/>
				<path class="st34" d="M255.8,155.1l3.5-2.5l-1.2-1.9l-2,1.1C256.2,151.8,256.8,153,255.8,155.1z"/>
			</g>
			<g>
				<polygon class="st36" points="261.6,152.5 260.5,155.6 262.9,153.1 				"/>
				<path class="st34" d="M263.5,155l-2-2.5l1-2.2l2,0.7C264.5,150.9,262.3,153,263.5,155z"/>
			</g>
			<path class="st32" d="M258.3,149.5c0,0,1.3,2,2.1,1.3c0.8-0.8,1.8-0.9,1.8-0.9l-0.4-1.3L258.3,149.5z"/>
			<g>
				<path class="st37" d="M254.8,139.8c0.2-1.5,11.1-4.4,10.4,2c-0.4,3.5-1.7,3.7-1.7,3.7l-7.6-0.6
					C255.9,145,254.2,143.7,254.8,139.8z"/>
				<path class="st5" d="M263.8,144.1c-0.3,1.2-0.3,4.8-3.6,5.7c-3.4,1-4.3-5.5-4.2-5.9c0-0.1,0-0.3,0.1-0.4
					c0.4-1.9,3.2-1.4,5.2-1.4c0.1,0,0.1,0,0.2,0c2.1-0.1,2.1-0.5,2.1-0.5s0.6-0.6,1.1,0.4C265.3,143.5,263.8,144.1,263.8,144.1z"/>
				<path class="st32" d="M262.8,144c0,0-2.2-0.7-3.7-1.1c-1.4-0.4-3,0.6-3,0.6c-0.1,0-0.1,0-0.2,0.1c0.2-2.2,4.4-1.5,6.4-1.5
					C262.6,142.7,262.8,144,262.8,144z"/>
				<path class="st37" d="M262.2,141.4c0,0,0.6,4.2,0.8,3c0.2-1.2,1.2-2.6,0.6-3.2C263.4,141,262.2,141.4,262.2,141.4z"/>
			</g>
			<path class="st38" d="M254.9,143.2c0,0,0.9-2.8,6.1-1.8C261,141.4,255.3,138,254.9,143.2z"/>
			<g>
				<path class="st37" d="M258.8,143.9c0.1,0.8,0.8,1.5,1.5,1.4c0.8,0,1.4-0.8,1.3-1.7c-0.1-0.9-0.9-1.5-1.7-1.4
					C259.2,142.3,258.7,143.1,258.8,143.9z M258.9,143.9c-0.1-0.7,0.4-1.4,1.1-1.5c0.7-0.1,1.4,0.4,1.5,1.2c0.1,0.8-0.5,1.5-1.2,1.5
					C259.6,145.2,259,144.6,258.9,143.9z"/>
				<path class="st37" d="M256.2,144.1c0.1,0.7,0.6,1.3,1.3,1.3c0.7,0,1.2-0.7,1.1-1.5c-0.1-0.8-0.7-1.4-1.4-1.3
					C256.5,142.7,256.1,143.4,256.2,144.1z M256.3,144.1c-0.1-0.7,0.3-1.3,0.9-1.4c0.6-0.1,1.1,0.4,1.2,1.1c0.1,0.7-0.4,1.3-1,1.4
					C256.9,145.3,256.4,144.8,256.3,144.1z"/>
			</g>
			<polygon class="st37" points="259.1,142.9 258,143 258.3,143.4 258.9,143.3 			"/>
		</g>
		<path class="st27" d="M265.1,140.4c0,0-1.4-1.1-3.4-0.9c-2.6,0.2-6.1,1.5-6.7,1.4c-1-0.2-0.2-4.4,2.5-5.2
			C263.8,133.9,266,138.4,265.1,140.4z"/>
		<path class="st39" d="M261.9,139.5c0,0-5.8-0.7-7.3-0.1c-1.5,0.6-3.4,1.5,0.4,1.5S261.9,139.5,261.9,139.5z"/>
		<path class="st40" d="M259.9,139.7c0,0-4.7,1-5.5,0.8c-0.8-0.2,0.7-0.9,0.7-0.9L259.9,139.7z"/>
		<path class="st41" d="M262,135.5c0,0-3.2,1.3-2.8,3.6l-3-0.1c0,0,0.7-2.6,2.4-3.3C260.3,135,262,135.5,262,135.5z"/>
	</g>
	<g>
		<path class="st27" d="M248.3,196.8c1.7,6.5,5.7,6.9,7.6,6.8l5.8,0.4c0.9,0.3,2.4,0.3,4,0.2c3.1-0.3,6.9-1.4,8.9-3
			c3.4-2.8,0.8-23.7,0.8-23.7c-0.6,1.4-1.6,1.6-2.8,1.1c-2.4-1-5.3-4.8-5.7-7.8c-0.4-3.2-1.6-13.8-1.2-16.3c0.3-2.5,1.7-3.2,1.7-3.2
			l-2.1-0.3c0,0-1.1,0.4-1.3,4.1c-0.1,2.1,0.3,4.1-0.2,6.3c-0.1,0.6-0.3,1.3-0.6,1.9c-0.6,1.5-1.9,2.5-3.4,2.6
			c-1.6,0.1-3.1-1-3.7-2.6c-0.7-1.7-0.9-3.2-1-4c0-4,0.9-5.7,0.2-6.6c0,0-0.1-0.1-0.2-0.1c-0.3-0.1-1,0-1.3,0.8
			c-0.3,0.8,0,12.3-0.9,18.4c-0.9,6.1-5.9,6.8-6.3,7.9C246.3,180.7,246.3,188.8,248.3,196.8z"/>
		<path class="st42" d="M254.7,161.9c0.3,3.6,2.8,6.1,5.8,6.1c2.9,0,3.4-6.7,3.4-6.7l-0.1-0.1c-0.1,0.6-0.3,1.3-0.6,1.9
			c-0.6,1.5-1.9,2.5-3.4,2.6c-1.6,0.1-3.1-1-3.7-2.6c-0.7-1.7-0.9-3.2-1-4c0-4,0.9-5.7,0.2-6.6c0,0-0.1-0.1-0.2-0.1
			c0,0.1,0,0.3,0.1,0.4C255.4,153.6,254.5,158.2,254.7,161.9z"/>
	</g>
	<path class="st5" d="M211,153.2c0,0-7.6-0.1-8.4,0.2c-0.8,0.3,5.2,0.9,5.2,0.9s-2.1,0.7-1.3,1.2c0.9,0.5,4.7-1.3,4.7-1.3L211,153.2
		z"/>
	<g>
		<path class="st5" d="M276.6,158.4c0,0,2,1.5,4.4,3.5c3.3,2.8,7.4,6.8,7.7,9.6c0,0.1,0,0.3,0,0.4c0,1-0.6,2.2-1.7,3.6
			c-4,5.4-13.8,12.8-13.8,12.8s-1.7-1.3-1.5-1.5c0.3-0.2,9.3-13.4,8.7-14.4c-0.2-0.4-2-1.3-3.9-2.4c-1.6-0.9-3.3-2-4.2-3.2
			C272,166.1,276.6,158.4,276.6,158.4z"/>
		<path class="st32" d="M281,161.9c3.3,2.8,7.4,6.8,7.7,9.6c-2.2-0.9-6.6-2.3-7.4-1.1c-0.8,1.2-0.8,2-0.8,2c-0.2-0.4-2-1.3-3.9-2.4
			c-0.7-1,0.1-2.2,1.5-5.2C279.1,162.7,280,162,281,161.9z"/>
		<path class="st5" d="M268.9,186.9c1.5,0.1,3,0,3,0l1.5,1.5c0,0,0,0,0,0c-0.1,0.2-1.2,3.4-3.9,3.4c-1.7,0,0.3-3.8,0.3-3.8s0,0,0,0
			C269.5,187.9,267.5,186.8,268.9,186.9z"/>
	</g>
	<path class="st31" d="M268.6,152.4c0,0,5.9,1.2,13.6,8.8c0,0-4.6,8.9-6.8,8.2C262.1,165.5,268.6,152.4,268.6,152.4z"/>
	<path class="st34" d="M274.6,169.3c0,0-4.9-4.9-6.6-6.7c0,0,6,7.9,6.8,7.7L274.6,169.3z"/>
</g>
<path class="st28" d="M199,0v139.2c0,1.4-0.4,2.6-0.9,2.6c-0.5,0-0.9-1.2-0.9-2.6V0H199z"/>
<path class="st29" d="M197.1,137.3v1.9c0,1.4,0.4,2.6,0.9,2.6c0.5,0,0.9-1.2,0.9-2.6v-1.8C198.4,137.3,197.8,137.3,197.1,137.3z"/>
<path class="st30" d="M199,0h-1.9v135.7C197.8,135.6,199,0,199,0z"/>
<g>
	<path class="st29" d="M118.8,136.2c0,1.1-0.9,2-2,2c-1.1,0-2-0.9-2-2s0.9-2,2-2C117.9,134.2,118.8,135.1,118.8,136.2z"/>
	<path class="st28" d="M118.3,135.6c0,1.1-0.9,2-2,2c-1.1,0-2-0.9-2-2s0.9-2,2-2C117.5,133.6,118.3,134.5,118.3,135.6z"/>
</g>
<g>
	<path class="st29" d="M200.2,141c0,1.1-0.9,2-2,2c-1.1,0-2-0.9-2-2c0-1.1,0.9-2,2-2C199.3,139,200.2,139.9,200.2,141z"/>
	<path class="st28" d="M199.8,140.5c0,1.1-0.9,2-2,2c-1.1,0-2-0.9-2-2c0-1.1,0.9-2,2-2C198.9,138.5,199.8,139.4,199.8,140.5z"/>
</g>
<g>
	<g>
		<g>
			<polygon class="st43" points="8.1,275.8 4.6,275.4 4,277.9 7.9,279.1 			"/>
			<path class="st37" d="M2.4,280c-0.5-2.3,2-1.6,2-1.6s0.2-2.7,0.7-2.9c0,0,1.2,0.1,0-0.6s-2.2-1-2.5-0.7c-0.3,0.2-2,5.3-2.5,6.9
				c-0.1,0.3,1.2,0.3,1.2,0.3S2.8,281.7,2.4,280z"/>
		</g>
		<path class="st8" d="M37.1,241.8c0,0,17.5,33.1,14.2,37.2c-5.5,6.8-44.9,0.2-44.9,0.2s0.3-4.3,1.1-4.3c0.8,0,28.4-3.2,28.4-3.2
			s-23.8-23.8-8.4-29.1C35.2,240,37.1,241.8,37.1,241.8z"/>
		<path class="st44" d="M56.8,224c0,0,4.8,22.9,11.5,19.4c6.7-3.6,7.5-18.4,7.5-18.4s-2,0-2.6,0.3c-3.3,1.7-4.9,8.6-4.9,8.6
			s0.3-18.1-5.2-19.9C57.6,212.3,56.8,224,56.8,224z"/>
		<path class="st31" d="M58.8,230.8c1.5,2.4,7.9-2.6,9.5-4c1.6-1.4-1.3-15.6-4.7-15.6C61.6,211.2,52.9,221,58.8,230.8z"/>
		<g>
			<path class="st7" d="M79.1,211.2h-7.9c-0.3,0-0.6,0.2-0.6,0.5L67.2,226c-0.1,0.4,0.2,0.8,0.6,0.8h7.7c0.3,0,0.6-0.2,0.6-0.5
				l3.5-14.3C79.8,211.6,79.5,211.2,79.1,211.2z"/>
			<path class="st45" d="M79.6,211.2h-7.9c-0.3,0-0.6,0.2-0.6,0.5L67.7,226c-0.1,0.4,0.2,0.8,0.6,0.8H76c0.3,0,0.6-0.2,0.6-0.5
				l3.5-14.3C80.3,211.6,80,211.2,79.6,211.2z"/>
			<path class="st7" d="M76.3,214.8c-0.2,0.7-1,1.3-1.7,1.3c-0.7,0-1.1-0.6-0.9-1.3c0.2-0.7,1-1.3,1.7-1.3
				C76.2,213.5,76.6,214.1,76.3,214.8z"/>
		</g>
		<polygon class="st43" points="72.5,275.8 73.8,279.2 76.8,279.2 76,274.2 		"/>
		<path class="st9" d="M68.8,246c-4.1-2.6-16.7-2-16.7-2l-1.2-2.6H39.6h-4.8H23.5c0,0-6.5,9.6,1,15.1c12,8.8,33.9,1.7,33.9,1.7
			s9.1,16.1,14.3,19c0.8,0.5,4,0.4,3.8-0.6C76.5,275.8,72.9,248.6,68.8,246z"/>
		<path class="st31" d="M53,204c0,0-12.1-0.4-20.2,15.7c-8.1,16.1-13.1,20.2-11.4,21.7c1.7,1.5,22.5,6.7,28.5,0.7
			c6-6.1,18.4-25,16-28.9C63.2,208.9,60.8,203.1,53,204z"/>
		<path class="st27" d="M48.3,204.8c0,0,4.5,7.8,3.6,16.1c-0.9,8.2,0.3,9.6,3.3,7.2c3.1-2.4,5.1-8.1,5.1-13.8c0-5.7-1-6.5-1-6.5
			l0.4-2.2c0,0,3.7,6.7,1.9,12.7c-1,3.6-2.9,13.4-6.3,17.1c-3.4,3.7-5.4,7.9-10.9,9.1c-5.6,1.2-24.4-0.5-24.3-3.5l12.7-21.2
			c0,0-0.9,10.7,5.1,11.5c6,0.8,10.8-3.2,11.5-8.9c0.3-2.7,0.2-13.6-4.2-16.4L48.3,204.8z"/>
		<polygon class="st9" points="58.8,230.8 59.1,231.2 59.1,222.6 58.4,231.1 		"/>
		<g>
			<g>
				<path class="st45" d="M53.9,224.1l5.8,11.4c0.4,0.8,1.3,1.1,2.1,0.7c0.8-0.4,1.1-1.3,0.7-2.1l-5.8-11.4
					c-0.4-0.8-1.3-1.1-2.1-0.7c-0.4,0.2-0.7,0.5-0.8,0.9C53.7,223.3,53.7,223.7,53.9,224.1z M60.7,235.2c-0.1-0.3,0-0.6,0.2-0.7
					c0.3-0.1,0.6,0,0.7,0.2c0.1,0.3,0,0.6-0.2,0.7C61.1,235.6,60.8,235.5,60.7,235.2z"/>
				<path class="st46" d="M54.8,224.9l5.3,10.4c0.3,0.6,1,0.8,1.6,0.5c0.6-0.3,0.8-1,0.5-1.6l-5.3-10.4c-0.3-0.6-1-0.8-1.6-0.5
					C54.7,223.7,54.5,224.4,54.8,224.9z M60.7,235.2c-0.1-0.3,0-0.6,0.2-0.7c0.3-0.1,0.6,0,0.7,0.2c0.1,0.3,0,0.6-0.2,0.7
					C61.1,235.6,60.8,235.5,60.7,235.2z"/>
				<path class="st45" d="M50.9,220.6L50.9,220.6c0.2-0.1,0.5-0.1,0.7,0l1.1,1.1c0.2,0.1,0.5,0.1,0.7,0l0.8-0.4c0.4-0.2,1-1,0.7-1.3
					l-2.1-1.8c-0.4-0.4-0.1-1.1,0.5-1.2c0.6-0.1,1.5,0,2.7,0.8c2.4,1.6,1.9,3.3,0.3,4.8c0,0-0.1,0.1-0.2,0.1l-2.1,1.1
					c-0.1,0.1-0.3,0.1-0.4,0.1l-1.4-0.1c-0.2,0-0.4-0.1-0.5-0.3l-0.9-1.8C50.4,221.4,50.5,220.9,50.9,220.6z"/>
				<path class="st46" d="M55.8,222.4C55.9,222.4,55.9,222.4,55.8,222.4c0.7-0.6,1.4-1.4,1.3-2.3c-0.1-0.7-0.5-1.3-1.4-1.9
					c-0.9-0.6-1.7-0.8-2.4-0.7c0,0-0.1,0-0.1,0c-0.1,0-0.1,0.1-0.2,0.2c0,0.1,0,0.2,0.1,0.2l2.1,1.8l0,0c0.1,0.1,0.2,0.4,0.2,0.7
					c-0.1,0.5-0.6,1-0.9,1.2l-0.8,0.4c-0.3,0.2-0.7,0.2-1.1,0l0,0l-1.1-1.1c-0.1,0-0.2,0-0.3,0c0,0,0,0,0,0
					c-0.1,0.1-0.1,0.2-0.2,0.2c0,0.1,0,0.2,0.1,0.3l0,0l0.9,1.8c0.1,0.1,0.1,0.1,0.2,0.1l1.4,0.1c0.1,0,0.1,0,0.2,0L55.8,222.4z"/>
				<path class="st31" d="M55.9,224.6c0.1-0.1,0.2,0,0.3,0.1l4.6,9c0.1,0.1,0,0.2-0.1,0.3c-0.1,0.1-0.2,0-0.3-0.1l-4.6-9
					C55.8,224.8,55.8,224.7,55.9,224.6z"/>
			</g>
			<path class="st47" d="M52.9,217.6c0,0,2.8,1.5,2.9,2.5c0.1,1-1.3,1.5-1.3,1.5s1-0.6,0.7-1.4c-0.4-0.8-2.2-2-2.3-2.1
				C52.8,217.9,52.9,217.6,52.9,217.6z"/>
		</g>
		<g>
			<path class="st43" d="M66.3,200c0,0-1.7,8.2-3.4,7.5c-1.7-0.7-3.2-1.8-3.2-1.8l-1.3,5.8c0,0-4.1,0.2-6.1-4.3c0,0-0.9-1.9,0.8-2.9
				c1.7-1,3.1-2.9,3.1-2.9s2.7-4.5,5.6-4.3C64.7,197.3,66.3,200,66.3,200z"/>
			<path class="st48" d="M60.1,202.3l-1.2,2.3l-1.8-1.2c0,0,1.6,4.6,2.1,4.5l0.5-2.4L60.1,202.3z"/>
			<path class="st48" d="M65.9,201.6l-0.1,0.5c0,0-2.6-1.1-3.1-2.3l-1.3,0.5l1.2-2.3l3.3,3V201.6z"/>
			<path class="st37" d="M55.5,201.9c0,0,4,2,4.9,0c0,0-1.2-2.2,0-2.6c1.2-0.3,1,1,1,1s1.3-1.5,1.3-1.4c0,0.2,3.1,4,5.3,2.5
				c2.2-1.5,2.4-5.6-0.8-6c-3.2-0.3-2.5-2-3.8-2.7C59.5,190.7,53.6,193.2,55.5,201.9z"/>
			<path class="st37" d="M61.4,203.1v2.2c0,0,1.5-1,2.6-0.9c1.1,0.1,1,0.3,1,0.3s-0.6,3.3-1.8,3c-1.1-0.4-3.5-2-3.5-2l0.3-3.3l0,0
				C60.7,202,61.4,202.4,61.4,203.1z"/>
			<path class="st43" d="M64.5,205.4c0,0-1.6-0.4-2.5,0.3c-0.8,0.7,1.7,1.2,1.7,1.2S64.6,206.6,64.5,205.4z"/>
		</g>
		<path class="st43" d="M48.4,235.2c0,0,0-5.8,0-11.6c-1.4,0.2-2.8,0.5-4.2,0.7c-1.5,0.3-3,0.5-4.6,0.7c-0.8,0.1-1.5,0.2-2.3,0.3
			c-0.1,0-0.2,0-0.4,0.1c0.8,8.6,3.1,19.5,8.5,20.1c7.3,0.8,10.9-12.6,12.3-16.4c-1-0.6-0.5-0.3-1.5-0.9L48.4,235.2z"/>
		<path class="st49" d="M37.1,226.6c0,0,5.2,2.6,8.2,2.2c3-0.5,3.1,6.5,3.1,6.5l0.2-11.1L37.1,226.6z"/>
		<path class="st43" d="M58.1,224.5c-1-0.3-1.7,1.2-1.7,1.2s-0.2-0.5-0.7-0.2c-0.4,0.2,0,2.5,0.2,3.2c0.6,0.4,1.1,0.7,1.7,1
			c0.3-0.5,1.2-1.7,2.1-2.6C60.9,226.1,59.2,224.8,58.1,224.5z"/>
		<path class="st31" d="M36.6,226.4c0,0,9.4,1.8,12.4-2.8c2.4-3.5-3.1-15.6-6.7-15.7C36.2,207.8,34.4,215.8,36.6,226.4z"/>
		<path class="st37" d="M80.2,280.4c-1.7-0.4-3.5-1.9-3.5-1.9s-2.6,0.6-3,0.1c0,0-0.3-1.1-0.5,0.2c-0.3,1.3-0.3,2.4,0.1,2.6
			c0.4,0.3,7.8,0.4,7.8,0.4S82,280.8,80.2,280.4z"/>
		<path class="st44" d="M78.8,222c0,0-0.6-2.3-0.9-1.4c-0.4,0.9-0.2,1.3-0.2,1.3s-2.4,0.3-2.2,1.4c0.1,0.6,0.8,1,2,1
			C78.6,224.4,78.8,222,78.8,222z"/>
		<path class="st9" d="M49.4,218.7c0,0,0.3,2.8-1,5.6c-0.2,0.4,0.7-0.3,0.7-0.3S50.3,222.3,49.4,218.7z"/>
		<path class="st9" d="M37.1,226.6c0,0-0.9-6.7-0.5-8.4c0,0-1.2,6.2,0.1,8.4C37,227.1,37.1,226.6,37.1,226.6z"/>
	</g>
	<g>
		<path class="st27" d="M55.1,197.4c0,0,1.9-1.7,4.7-1.5c3.6,0.3,8.4,2.4,9.2,2.3c1.4-0.3,0.3-6.9-3.5-8.2
			C56.9,187.2,53.8,194.3,55.1,197.4z"/>
		<path class="st39" d="M59.5,195.9c0,0,8-1.1,10.1-0.1c2,1,4.8,2.4-0.6,2.4S59.5,195.9,59.5,195.9z"/>
		<path class="st40" d="M62.3,196.3c0,0,6.4,1.6,7.6,1.2c1.2-0.4-1-1.4-1-1.4L62.3,196.3z"/>
		<path class="st41" d="M59.4,189.8c0,0,4.4,2.1,3.8,5.6l4.1-0.2c0,0-0.9-4.1-3.3-5.2C61.7,188.9,59.4,189.8,59.4,189.8z"/>
	</g>
</g>
<g>
	<polygon class="st50" points="169,244.9 160.2,240.8 113.3,240.8 121.1,245 	"/>
	<polygon class="st51" points="159.8,245.1 159.8,242.1 114.5,242.1 121,244.9 	"/>
	
		<rect x="127.2" y="233.2" transform="matrix(-0.9799 0.1995 -0.1995 -0.9799 313.7982 451.4727)" class="st31" width="14" height="16.6"/>
	<g>
		
			<rect x="156" y="228.4" transform="matrix(-0.9824 -0.1869 0.1869 -0.9824 268.4812 509.532)" class="st31" width="4.5" height="27.4"/>
		
			<rect x="158.4" y="229" transform="matrix(-0.9824 -0.1869 0.1869 -0.9824 274.1685 484.1936)" class="st52" width="2.9" height="0.2"/>
		
			<rect x="158.4" y="229.5" transform="matrix(-0.9824 -0.1869 0.1869 -0.9824 272.9598 484.8093)" class="st52" width="2" height="0.2"/>
		
			<rect x="158.3" y="229.9" transform="matrix(-0.9824 -0.1869 0.1869 -0.9824 272.7285 485.6074)" class="st52" width="2" height="0.2"/>
		
			<rect x="158.2" y="230.3" transform="matrix(-0.9824 -0.1869 0.1869 -0.9824 272.4973 486.4055)" class="st52" width="2" height="0.2"/>
		
			<rect x="158.1" y="230.7" transform="matrix(-0.9824 -0.1869 0.1869 -0.9824 272.266 487.2036)" class="st52" width="2" height="0.2"/>
		
			<rect x="158" y="231.2" transform="matrix(-0.9824 -0.1869 0.1869 -0.9824 272.9383 488.4389)" class="st52" width="2.9" height="0.2"/>
		
			<rect x="157.9" y="231.6" transform="matrix(-0.9824 -0.1869 0.1869 -0.9824 271.7282 489.0552)" class="st52" width="2" height="0.2"/>
		
			<rect x="157.9" y="232.1" transform="matrix(-0.9824 -0.1869 0.1869 -0.9824 271.4969 489.8533)" class="st52" width="2" height="0.2"/>
		
			<rect x="157.8" y="232.5" transform="matrix(-0.9824 -0.1869 0.1869 -0.9824 271.2657 490.6515)" class="st52" width="2" height="0.2"/>
		
			<rect x="157.7" y="232.9" transform="matrix(-0.9824 -0.1869 0.1869 -0.9824 271.0344 491.4496)" class="st52" width="2" height="0.2"/>
		
			<rect x="157.6" y="233.4" transform="matrix(-0.9824 -0.1869 0.1869 -0.9824 271.708 492.6843)" class="st52" width="2.9" height="0.2"/>
		
			<rect x="157.5" y="233.8" transform="matrix(-0.9824 -0.1869 0.1869 -0.9824 270.4994 493.3)" class="st52" width="2" height="0.2"/>
		
			<rect x="157.5" y="234.2" transform="matrix(-0.9824 -0.1869 0.1869 -0.9824 270.2754 494.095)" class="st52" width="2" height="0.2"/>
		
			<rect x="157.4" y="234.6" transform="matrix(-0.9824 -0.1869 0.1869 -0.9824 270.0368 494.8963)" class="st52" width="2" height="0.2"/>
		
			<rect x="157.3" y="235.1" transform="matrix(-0.9824 -0.1869 0.1869 -0.9824 269.8055 495.6944)" class="st52" width="2" height="0.2"/>
		
			<rect x="157.2" y="235.6" transform="matrix(-0.9824 -0.1869 0.1869 -0.9824 270.4778 496.9297)" class="st52" width="2.9" height="0.2"/>
		
			<rect x="157.1" y="236" transform="matrix(-0.9824 -0.1869 0.1869 -0.9824 269.2677 497.546)" class="st52" width="2" height="0.2"/>
		
			<rect x="157" y="236.4" transform="matrix(-0.9824 -0.1869 0.1869 -0.9824 269.0364 498.3441)" class="st52" width="2" height="0.2"/>
		
			<rect x="157" y="236.8" transform="matrix(-0.9824 -0.1869 0.1869 -0.9824 268.8051 499.1423)" class="st52" width="2" height="0.2"/>
		
			<rect x="156.9" y="237.2" transform="matrix(-0.9824 -0.1869 0.1869 -0.9824 268.5739 499.9404)" class="st52" width="2" height="0.2"/>
		
			<rect x="156.8" y="237.8" transform="matrix(-0.9824 -0.1869 0.1869 -0.9824 269.2476 501.1751)" class="st52" width="2.9" height="0.2"/>
		
			<rect x="156.7" y="238.2" transform="matrix(-0.9824 -0.1869 0.1869 -0.9824 268.0375 501.7914)" class="st52" width="2" height="0.2"/>
		
			<rect x="156.6" y="238.6" transform="matrix(-0.9824 -0.1869 0.1869 -0.9824 267.8076 502.5889)" class="st52" width="2" height="0.2"/>
		
			<rect x="156.5" y="239" transform="matrix(-0.9824 -0.1869 0.1869 -0.9824 267.5763 503.387)" class="st52" width="2" height="0.2"/>
		
			<rect x="156.5" y="239.4" transform="matrix(-0.9824 -0.1869 0.1869 -0.9824 267.3451 504.1852)" class="st52" width="2" height="0.2"/>
		
			<rect x="156.4" y="239.9" transform="matrix(-0.9824 -0.1869 0.1869 -0.9824 268.0174 505.4204)" class="st52" width="2.9" height="0.2"/>
		
			<rect x="156.3" y="240.4" transform="matrix(-0.9824 -0.1869 0.1869 -0.9824 266.8073 506.0367)" class="st52" width="2" height="0.2"/>
		
			<rect x="156.2" y="240.8" transform="matrix(-0.9824 -0.1869 0.1869 -0.9824 266.576 506.8348)" class="st52" width="2" height="0.2"/>
		
			<rect x="156.1" y="241.2" transform="matrix(-0.9824 -0.1869 0.1869 -0.9824 266.3447 507.6329)" class="st52" width="2" height="0.2"/>
		
			<rect x="156.1" y="241.6" transform="matrix(-0.9824 -0.1869 0.1869 -0.9824 266.1208 508.428)" class="st52" width="2" height="0.2"/>
		
			<rect x="155.9" y="242.1" transform="matrix(-0.9824 -0.1869 0.1869 -0.9824 266.7871 509.6659)" class="st52" width="2.9" height="0.2"/>
		
			<rect x="155.9" y="242.5" transform="matrix(-0.9824 -0.1869 0.1869 -0.9824 265.577 510.2822)" class="st52" width="2" height="0.2"/>
		
			<rect x="155.8" y="243" transform="matrix(-0.9824 -0.1869 0.1869 -0.9824 265.3472 511.0797)" class="st52" width="2" height="0.2"/>
		
			<rect x="155.7" y="243.4" transform="matrix(-0.9824 -0.1869 0.1869 -0.9824 265.1159 511.8778)" class="st52" width="2" height="0.2"/>
		
			<rect x="155.6" y="243.8" transform="matrix(-0.9824 -0.1869 0.1869 -0.9824 264.8846 512.676)" class="st52" width="2" height="0.2"/>
		
			<rect x="155.5" y="244.3" transform="matrix(-0.9824 -0.1869 0.1869 -0.9824 265.5569 513.9113)" class="st52" width="2.9" height="0.2"/>
		
			<rect x="155.5" y="244.7" transform="matrix(-0.9824 -0.1869 0.1869 -0.9824 264.3467 514.5275)" class="st52" width="2" height="0.2"/>
		
			<rect x="155.4" y="245.1" transform="matrix(-0.9824 -0.1869 0.1869 -0.9824 264.1155 515.3256)" class="st52" width="2" height="0.2"/>
		
			<rect x="155.3" y="245.5" transform="matrix(-0.9824 -0.1869 0.1869 -0.9824 263.8842 516.1237)" class="st52" width="2" height="0.2"/>
		
			<rect x="155.2" y="246" transform="matrix(-0.9824 -0.1869 0.1869 -0.9824 263.6529 516.9219)" class="st52" width="2" height="0.2"/>
		
			<rect x="155.1" y="246.5" transform="matrix(-0.9824 -0.1869 0.1869 -0.9824 264.3266 518.1566)" class="st52" width="2.9" height="0.2"/>
		
			<rect x="155" y="246.9" transform="matrix(-0.9824 -0.1869 0.1869 -0.9824 263.1165 518.7728)" class="st52" width="2" height="0.2"/>
		
			<rect x="155" y="247.3" transform="matrix(-0.9824 -0.1869 0.1869 -0.9824 262.8852 519.571)" class="st52" width="2" height="0.2"/>
		
			<rect x="154.9" y="247.7" transform="matrix(-0.9824 -0.1869 0.1869 -0.9824 262.6554 520.3685)" class="st52" width="2" height="0.2"/>
		
			<rect x="154.8" y="248.1" transform="matrix(-0.9824 -0.1869 0.1869 -0.9824 262.4241 521.1666)" class="st52" width="2" height="0.2"/>
		
			<rect x="154.7" y="248.7" transform="matrix(-0.9824 -0.1869 0.1869 -0.9824 263.0964 522.402)" class="st52" width="2.9" height="0.2"/>
		
			<rect x="154.6" y="249.1" transform="matrix(-0.9824 -0.1869 0.1869 -0.9824 261.894 523.0153)" class="st52" width="2" height="0.2"/>
		
			<rect x="154.5" y="249.5" transform="matrix(-0.9824 -0.1869 0.1869 -0.9824 261.655 523.8164)" class="st52" width="2" height="0.2"/>
		
			<rect x="154.5" y="249.9" transform="matrix(-0.9824 -0.1869 0.1869 -0.9824 261.4237 524.6146)" class="st52" width="2" height="0.2"/>
		
			<rect x="154.4" y="250.3" transform="matrix(-0.9824 -0.1869 0.1869 -0.9824 261.1924 525.4127)" class="st52" width="2" height="0.2"/>
		
			<rect x="154.3" y="250.9" transform="matrix(-0.9824 -0.1869 0.1869 -0.9824 261.8661 526.6473)" class="st52" width="2.9" height="0.2"/>
		
			<rect x="154.2" y="251.3" transform="matrix(-0.9824 -0.1869 0.1869 -0.9824 260.656 527.2636)" class="st52" width="2" height="0.2"/>
		
			<rect x="154.1" y="251.7" transform="matrix(-0.9824 -0.1869 0.1869 -0.9824 260.4247 528.0618)" class="st52" width="2" height="0.2"/>
		
			<rect x="154.1" y="252.1" transform="matrix(-0.9824 -0.1869 0.1869 -0.9824 260.1935 528.8599)" class="st52" width="2" height="0.2"/>
		
			<rect x="154" y="252.5" transform="matrix(-0.9824 -0.1869 0.1869 -0.9824 259.9637 529.6575)" class="st52" width="2" height="0.2"/>
		
			<rect x="153.9" y="253" transform="matrix(-0.9824 -0.1869 0.1869 -0.9824 260.636 530.8927)" class="st52" width="2.9" height="0.2"/>
		
			<rect x="153.8" y="253.4" transform="matrix(-0.9824 -0.1869 0.1869 -0.9824 259.4258 531.509)" class="st52" width="2" height="0.2"/>
		
			<rect x="153.7" y="253.9" transform="matrix(-0.9824 -0.1869 0.1869 -0.9824 259.1945 532.3071)" class="st52" width="2" height="0.2"/>
		
			<rect x="153.6" y="254.3" transform="matrix(-0.9824 -0.1869 0.1869 -0.9824 258.9632 533.1052)" class="st52" width="2" height="0.2"/>
		
			<rect x="153.6" y="254.7" transform="matrix(-0.9824 -0.1869 0.1869 -0.9824 258.7319 533.9033)" class="st52" width="2" height="0.2"/>
	</g>
	<g>
		<g>
			<path class="st31" d="M142.9,241.3l10.6,13.6c0.7,0.9,2,1.1,2.9,0.4c0.9-0.7,1.1-2,0.4-2.9l-10.6-13.6c-0.7-0.9-2-1.1-2.9-0.4
				c-0.5,0.4-0.7,0.9-0.8,1.4C142.4,240.3,142.6,240.8,142.9,241.3z M154.7,254.2c-0.3-0.3-0.2-0.8,0.1-1c0.3-0.3,0.8-0.2,1,0.1
				c0.3,0.3,0.2,0.8-0.1,1S155,254.5,154.7,254.2z"/>
			<path class="st52" d="M144.3,242.2l9.6,12.4c0.5,0.7,1.5,0.8,2.2,0.3c0.7-0.5,0.8-1.5,0.3-2.2l-9.6-12.4
				c-0.5-0.7-1.5-0.8-2.2-0.3C143.9,240.5,143.8,241.5,144.3,242.2z M154.7,254.2c-0.3-0.3-0.2-0.8,0.1-1c0.3-0.3,0.8-0.2,1,0.1
				c0.3,0.3,0.2,0.8-0.1,1S155,254.5,154.7,254.2z"/>
			<path class="st31" d="M138.1,237.5L138.1,237.5c0.3-0.2,0.6-0.3,1-0.2l1.7,1.1c0.3,0.1,0.7,0.1,0.9-0.1l1-0.7
				c0.5-0.4,1-1.5,0.5-1.9l-3.2-1.8c-0.6-0.5-0.4-1.4,0.3-1.7c0.8-0.3,2-0.4,3.8,0.3c3.6,1.4,3.3,3.9,1.6,6.2
				c-0.1,0.1-0.1,0.1-0.2,0.2l-2.5,2c-0.1,0.1-0.3,0.2-0.5,0.2l-1.9,0.2c-0.3,0-0.5-0.1-0.7-0.2l-1.7-2.1
				C137.6,238.6,137.6,237.9,138.1,237.5z"/>
			<path class="st52" d="M145.1,238.5C145.1,238.5,145.1,238.5,145.1,238.5c0.7-1,1.4-2.2,1.1-3.4c-0.2-0.9-1-1.6-2.4-2.1
				c-1.3-0.5-2.5-0.6-3.4-0.3c0,0-0.1,0-0.1,0.1c-0.1,0.1-0.2,0.2-0.2,0.3c0,0.1,0,0.2,0.1,0.3l3.2,1.8l0,0c0.2,0.1,0.4,0.4,0.4,0.9
				c0,0.7-0.5,1.5-0.9,1.9l-1,0.7c-0.4,0.3-0.9,0.4-1.4,0.2l-0.1,0l-1.7-1.1c-0.1,0-0.3,0-0.4,0.1c0,0,0,0,0,0
				c-0.1,0.1-0.2,0.3-0.2,0.3c0,0.1,0,0.2,0.2,0.3l0,0l1.6,2.1c0.1,0.1,0.2,0.1,0.3,0.1l1.9-0.2c0.1,0,0.2,0,0.2-0.1L145.1,238.5z"
				/>
			<path class="st31" d="M145.7,241.4c0.1-0.1,0.3-0.1,0.4,0l8.4,10.7c0.1,0.1,0.1,0.3-0.1,0.4c-0.1,0.1-0.3,0.1-0.4,0l-8.4-10.7
				C145.6,241.7,145.6,241.5,145.7,241.4z"/>
		</g>
		<path class="st47" d="M140,232.9c0,0,4.1,1.2,4.4,2.5c0.3,1.3-1.3,2.3-1.3,2.3s1.2-1,0.5-2c-0.7-1-3.5-2.1-3.6-2.2
			C139.9,233.4,140,232.9,140,232.9z"/>
	</g>
	<g>
		<g>
			<path class="st31" d="M122.4,238.1c-0.3-0.2-0.6-0.4-1-0.4c-0.8,0-1.4,0.7-1.4,1.4l0.3,11.5c0,0.8,0.7,1.4,1.4,1.4
				c0.8,0,1.4-0.7,1.4-1.4l-0.3-11.5C122.8,238.7,122.6,238.4,122.4,238.1z M121.7,251.2c-0.3,0-0.5-0.2-0.5-0.5
				c0-0.3,0.2-0.5,0.5-0.5c0.3,0,0.5,0.2,0.5,0.5C122.2,251,121.9,251.2,121.7,251.2z"/>
			<path class="st52" d="M121.4,239.1c-0.6,0-1,0.5-1,1.1l0.2,10.5c0,0.6,0.5,1,1.1,1c0.6,0,1-0.5,1-1.1l-0.2-10.5
				C122.4,239.5,122,239.1,121.4,239.1z M121.7,251.2c-0.3,0-0.5-0.2-0.5-0.5c0-0.3,0.2-0.5,0.5-0.5c0.3,0,0.5,0.2,0.5,0.5
				C122.2,251,121.9,251.2,121.7,251.2z"/>
			<path class="st31" d="M123.7,235.1L123.7,235.1c-0.2,0-0.5,0.1-0.6,0.3l-0.4,1.3c-0.1,0.2-0.3,0.3-0.5,0.3l-0.8,0
				c-0.4,0-1.2-0.4-1.1-0.8l0.9-2.3c0.1-0.5-0.4-0.9-0.9-0.7c-0.5,0.2-1.2,0.7-1.8,1.8c-1.2,2.3-0.1,3.4,1.8,3.9c0.1,0,0.1,0,0.2,0
				l2.2,0c0.1,0,0.2,0,0.3-0.1l1.1-0.7c0.2-0.1,0.3-0.3,0.3-0.4l0-1.8C124.4,235.4,124.1,235.1,123.7,235.1z"/>
			<path class="st52" d="M120.5,238.5C120.5,238.5,120.5,238.5,120.5,238.5c-0.8-0.2-1.7-0.6-2-1.3c-0.2-0.5-0.1-1.3,0.3-2.1
				c0.4-0.8,1-1.4,1.6-1.6c0,0,0.1,0,0.1,0c0.1,0,0.2,0,0.2,0.1c0,0,0.1,0.1,0.1,0.2l-0.9,2.3l0,0c0,0.2,0,0.4,0.2,0.6
				c0.3,0.4,0.9,0.6,1.3,0.6l0.8,0c0.3,0,0.7-0.2,0.8-0.5l0,0l0.4-1.3c0.1-0.1,0.1-0.1,0.2-0.1c0,0,0,0,0,0c0.1,0,0.2,0.1,0.2,0.1
				c0,0,0.1,0.1,0.1,0.2l0,0l0,1.8c0,0.1-0.1,0.1-0.1,0.2l-1.1,0.7c0,0-0.1,0-0.2,0L120.5,238.5z"/>
			<path class="st31" d="M121.4,240.3c-0.1,0-0.2,0.1-0.2,0.2l0.2,9.1c0,0.1,0.1,0.2,0.2,0.2c0.1,0,0.2-0.1,0.2-0.2l-0.2-9.1
				C121.6,240.4,121.5,240.3,121.4,240.3z"/>
		</g>
		<path class="st47" d="M120.8,233.5c0,0-1.6,2.3-1.2,3.2c0.4,0.8,1.6,0.7,1.6,0.7s-1.1,0-1.1-0.8c-0.1-0.8,0.9-2.6,0.9-2.7
			C121,233.7,120.8,233.5,120.8,233.5z"/>
	</g>
	<g>
		<path class="st52" d="M154.1,234.3c1.9,0.6,2.4,1.4,2.4,1.4c-3.1-0.6-4.1,0.9-4.1,0.9l1,2l0,0.4l0,0c-1.6,1.9-2.5,1.4-2.5,1.4
			s-1.9-2.6-2.4-1.1c-0.3,0.9-0.8,1.3-1.2,1.4c-0.3,0.1-0.5,0.1-0.5,0.1c-1.5-0.8-1.7-2.6-1.7-2.6c0.1-0.1,0.1-0.2,0.2-0.3
			c0.7-0.8,1.2-0.5,2-0.7c0.9-0.2,0.8-1,0.8-1C150.1,234.3,152.1,233.7,154.1,234.3z"/>
		
			<linearGradient id="SVGID_00000136371170011988197070000015650858660000423859_" gradientUnits="userSpaceOnUse" x1="976.3755" y1="2287.4888" x2="949.9993" y2="2301.7075" gradientTransform="matrix(-3.610000e-02 -0.9993 0.9993 -3.610000e-02 -2101.2515 1292.7343)">
			<stop  offset="0" style="stop-color:#F2D44D"/>
			<stop  offset="1" style="stop-color:#ED7456"/>
		</linearGradient>
		<path style="fill:url(#SVGID_00000136371170011988197070000015650858660000423859_);" d="M153.4,238.6l4.6,7.5l2.6,4.2
			c0,0,0.5,0.8,0.6,1c0.2,0.4-0.9,1.3-1.6,1c-0.3-0.1-0.8-1-0.8-1l-2.9-3.9l-5.2-7.1c0,0,1.1-0.2,2.1-1.3
			C153.1,238.9,153.3,238.8,153.4,238.6z"/>
		<path class="st52" d="M160.6,250.2c-0.3,0.3-0.7,0.7-1.7,1.1l-2.9-3.9c0.5-0.2,1.1-0.5,1.9-1.4L160.6,250.2z"/>
		<g class="st54">
			
				<linearGradient id="SVGID_00000110433148322554352930000006956331853306466719_" gradientUnits="userSpaceOnUse" x1="958.2455" y1="2293.1633" x2="970.4554" y2="2293.1633" gradientTransform="matrix(-3.610000e-02 -0.9993 0.9993 -3.610000e-02 -2101.2515 1292.7343)">
				<stop  offset="7.936510e-03" style="stop-color:#FFFFFF"/>
				<stop  offset="1" style="stop-color:#C0986B"/>
			</linearGradient>
			<polygon style="fill:url(#SVGID_00000110433148322554352930000006956331853306466719_);" points="160,252.2 151.5,240.3 
				151,240.4 159.6,252.2 			"/>
		</g>
		<path class="st47" d="M145.3,237.9c0.5,1.9,1.8,2.7,2,2.8c-0.3,0.1-0.5,0.1-0.5,0.1c-1.5-0.8-1.7-2.6-1.7-2.6
			C145.1,238.1,145.2,238,145.3,237.9L145.3,237.9z"/>
		<g class="st56">
			
				<linearGradient id="SVGID_00000030462370009352500770000010306011247144702397_" gradientUnits="userSpaceOnUse" x1="972.4373" y1="2284.6697" x2="973.7655" y2="2284.6697" gradientTransform="matrix(-3.610000e-02 -0.9993 0.9993 -3.610000e-02 -2101.2515 1292.7343)">
				<stop  offset="7.936510e-03" style="stop-color:#FFFFFF"/>
				<stop  offset="1" style="stop-color:#C0986B"/>
			</linearGradient>
			<path style="fill:url(#SVGID_00000030462370009352500770000010306011247144702397_);" d="M145.5,238.1c0,0,0.3-0.5,1.3-0.7
				c1-0.1,1.1-0.4,1.1-0.4s-0.4,0.4-1.1,0.6c-0.7,0.2-1.1,0.8-1.1,0.8L145.5,238.1z"/>
		</g>
		<g class="st56">
			
				<linearGradient id="SVGID_00000145758535647446412470000006317229034181386881_" gradientUnits="userSpaceOnUse" x1="974.2148" y1="2288.5049" x2="976.4944" y2="2288.5049" gradientTransform="matrix(-3.610000e-02 -0.9993 0.9993 -3.610000e-02 -2101.2515 1292.7343)">
				<stop  offset="7.936510e-03" style="stop-color:#FFFFFF"/>
				<stop  offset="1" style="stop-color:#C0986B"/>
			</linearGradient>
			<path style="fill:url(#SVGID_00000145758535647446412470000006317229034181386881_);" d="M148.2,236.7l0-0.5c0,0,2.2-2.2,4.4-1.9
				C152.6,234.3,150.5,234.3,148.2,236.7z"/>
		</g>
		<path class="st47" d="M156.4,235.7c-3.1-0.6-4.1,0.9-4.1,0.9l1,2c-0.1,0.2-0.3,0.3-0.4,0.5l-1.6-2.8
			C151.4,236.3,154.4,234.6,156.4,235.7z"/>
	</g>
	<g>
		<path class="st52" d="M124.7,231.6c-1.2,1.6-1.1,2.5-1.1,2.5c2.1-2.3,3.9-1.7,3.9-1.7l0.3,2.2l0.2,0.3l0,0
			c2.4,0.7,2.8-0.3,2.8-0.3s0-3.3,1.4-2.3c0.8,0.6,1.4,0.6,1.7,0.5c0.3-0.1,0.4-0.2,0.4-0.2c0.8-1.5-0.1-3.1-0.1-3.1
			c-0.1,0-0.2-0.1-0.3-0.1c-1.1-0.3-1.3,0.3-2.1,0.6c-0.9,0.4-1.2-0.4-1.2-0.4C127.9,229.2,126,230,124.7,231.6z"/>
		
			<linearGradient id="SVGID_00000004528254288037211650000010832237783153044668_" gradientUnits="userSpaceOnUse" x1="1431.6421" y1="3872.4155" x2="1405.265" y2="3886.6348" gradientTransform="matrix(-0.5492 -0.8356 -0.8356 0.5492 4150.6792 -701.4828)">
			<stop  offset="0" style="stop-color:#F2D44D"/>
			<stop  offset="1" style="stop-color:#ED7456"/>
		</linearGradient>
		<path style="fill:url(#SVGID_00000004528254288037211650000010832237783153044668_);" d="M127.8,234.6l0.6,8.8l0.3,4.9
			c0,0,0,0.9,0.1,1.2c0.1,0.4,1.5,0.6,1.9-0.1c0.2-0.3,0-1.3,0-1.3l0.1-4.8l0.2-8.8c0,0-1,0.5-2.5,0.2
			C128.2,234.8,128,234.7,127.8,234.6z"/>
		<path class="st52" d="M128.6,248.3c0.4,0.1,1,0.2,2-0.1l0.1-4.8c-0.5,0.1-1.2,0.2-2.4,0L128.6,248.3z"/>
		<g class="st54">
			
				<linearGradient id="SVGID_00000129172070390568335850000007662561606170962088_" gradientUnits="userSpaceOnUse" x1="1413.5115" y1="3878.0903" x2="1425.7218" y2="3878.0903" gradientTransform="matrix(-0.5492 -0.8356 -0.8356 0.5492 4150.6792 -701.4828)">
				<stop  offset="7.936510e-03" style="stop-color:#FFFFFF"/>
				<stop  offset="1" style="stop-color:#C0986B"/>
			</linearGradient>
			<polygon style="fill:url(#SVGID_00000129172070390568335850000007662561606170962088_);" points="130.3,249.6 130.3,235 
				130.8,234.8 130.6,249.3 			"/>
		</g>
		<path class="st47" d="M134,229.4c0.7,1.8,0.1,3.2,0,3.4c0.3-0.1,0.4-0.2,0.4-0.2c0.8-1.5-0.1-3.1-0.1-3.1
			C134.2,229.4,134.1,229.4,134,229.4L134,229.4z"/>
		<g class="st56">
			
				<linearGradient id="SVGID_00000049214603625572054360000010983992263789418118_" gradientUnits="userSpaceOnUse" x1="1427.7037" y1="3869.5964" x2="1429.0321" y2="3869.5964" gradientTransform="matrix(-0.5492 -0.8356 -0.8356 0.5492 4150.6792 -701.4828)">
				<stop  offset="7.936510e-03" style="stop-color:#FFFFFF"/>
				<stop  offset="1" style="stop-color:#C0986B"/>
			</linearGradient>
			<path style="fill:url(#SVGID_00000049214603625572054360000010983992263789418118_);" d="M134,229.7c0,0-0.6-0.2-1.4,0.2
				s-1.1,0.4-1.1,0.4s0.5,0.1,1.3-0.1c0.7-0.2,1.4,0,1.4,0L134,229.7z"/>
		</g>
		<g class="st56">
			
				<linearGradient id="SVGID_00000030448307635426681070000013600524608989431204_" gradientUnits="userSpaceOnUse" x1="1429.4814" y1="3873.4316" x2="1431.7611" y2="3873.4316" gradientTransform="matrix(-0.5492 -0.8356 -0.8356 0.5492 4150.6792 -701.4828)">
				<stop  offset="7.936510e-03" style="stop-color:#FFFFFF"/>
				<stop  offset="1" style="stop-color:#C0986B"/>
			</linearGradient>
			<path style="fill:url(#SVGID_00000030448307635426681070000013600524608989431204_);" d="M130.8,230.1l-0.3-0.4
				c0,0-3.1-0.5-4.7,1C125.9,230.7,127.7,229.5,130.8,230.1z"/>
		</g>
		<path class="st47" d="M123.6,234.1c2.1-2.3,3.9-1.7,3.9-1.7l0.3,2.2c0.2,0.1,0.4,0.1,0.6,0.1l-0.3-3.2
			C128,231.6,124.6,232,123.6,234.1z"/>
	</g>
	<g>
		<path class="st52" d="M124.2,247.2c0.2,1,0.6,1.9,1.1,2.7l-1.4,1.7l2,2l1.7-1.4c0.2,0.1,0.4,0.3,0.6,0.4c0.3,0.1,0.5,0.3,0.8,0.4
			c0.4,0.2,0.8,0.3,1.3,0.4l0,2.2h3.1l0-2.2c1-0.2,1.8-0.6,2.6-1.1c0,0,0,0,0.1,0l1.7,1.4l2-2l-1.4-1.7c0.5-0.8,0.9-1.7,1.1-2.7
			l2.2-0.2v-2.8l-2.2-0.2c-0.2-1-0.6-1.9-1.1-2.7l1.4-1.7l-2-2l-1.7,1.4c-0.8-0.5-1.7-0.9-2.7-1.1l-0.2-2.2h-2.8l-0.2,2.2
			c-1,0.2-1.9,0.6-2.7,1.1l-1.7-1.4l-2,2l1.4,1.7c-0.5,0.8-0.9,1.7-1.1,2.7l-2.2,0.2v2.8L124.2,247.2z M127.6,245.6
			c0-2.4,1.9-4.3,4.3-4.3c2.4,0,4.3,1.9,4.3,4.3c0,2.4-1.9,4.3-4.3,4.3C129.5,249.9,127.6,248,127.6,245.6z"/>
		<g class="st63">
			<g>
				<path class="st64" d="M124.2,244c0.9-2.4,2.7-3,2.7-3l-2-2.3l-1,1l1.4,1.7C124.8,242.1,124.4,243,124.2,244z"/>
				<path class="st64" d="M139.6,247.2c-0.9,2.4-2.7,3-2.7,3l2,2.3l1-1l-1.4-1.7C139,249.1,139.4,248.2,139.6,247.2z"/>
			</g>
		</g>
		<g class="st63">
			<g>
				<path class="st64" d="M133.5,237.9c2.4,0.9,3,2.7,3,2.7l2.3-2l-1-1l-1.7,1.4C135.4,238.5,134.5,238.1,133.5,237.9z"/>
				<path class="st64" d="M125,252.6l1,1l1.7-1.4c0.2,0.1,0.4,0.3,0.6,0.4c0.2,0.1,0.5,0.2,0.7,0.3c0.4,0.2,0.9,0.3,1.4,0.4
					c-0.5-0.2-0.9-0.4-1.2-0.6c-0.3-0.2-0.5-0.4-0.8-0.6c-0.8-0.8-1.1-1.5-1.1-1.5L125,252.6z"/>
			</g>
		</g>
		<g class="st63">
			<g>
				<path class="st64" d="M125.4,249.9c-1.1-2.3-0.2-4.1-0.2-4.1l-3.1-0.2l0,1.4l2.2,0.2C124.4,248.1,124.8,249,125.4,249.9z"/>
				<path class="st64" d="M138.5,241.3c1.1,2.3,0.2,4.1,0.2,4.1l3.1,0.2l0-1.4l-2.2-0.2C139.4,243,139,242.1,138.5,241.3z"/>
			</g>
		</g>
		<g class="st63">
			<g>
				<path class="st64" d="M132.1,255.5h1.4l0-2.2c0.9-0.2,1.9-0.6,2.7-1.1c0,0,0,0-0.1,0c-2.2,1-4,0.2-4,0.2L132.1,255.5z"/>
				<path class="st64" d="M127.6,239c2.3-1.1,4.1-0.2,4.1-0.2l0.2-3.1l-1.4,0l-0.2,2.2C129.4,238.1,128.5,238.5,127.6,239z"/>
			</g>
		</g>
		<path class="st65" d="M127.3,245.6c0,2.6,2.1,4.7,4.7,4.7c2.6,0,4.7-2.1,4.7-4.7c0-2.6-2.1-4.7-4.7-4.7
			C129.4,240.9,127.3,243,127.3,245.6z M127.7,245.6c0-2.3,1.9-4.2,4.2-4.2c2.3,0,4.2,1.9,4.2,4.2c0,2.3-1.9,4.2-4.2,4.2
			C129.6,249.8,127.7,247.9,127.7,245.6z"/>
	</g>
	
		<rect x="121" y="249.5" transform="matrix(-1 -1.224647e-16 1.224647e-16 -1 289.9825 524.1866)" class="st27" width="48" height="25.2"/>
	
		<rect x="157.6" y="249.5" transform="matrix(-1 -1.224647e-16 1.224647e-16 -1 326.5706 524.1866)" class="st66" width="11.4" height="25.2"/>
	
		<rect x="121" y="244.9" transform="matrix(-1 -1.224647e-16 1.224647e-16 -1 289.9825 496.5161)" class="st67" width="48" height="6.7"/>
	
		<rect x="132.8" y="271" transform="matrix(-1 -1.224647e-16 1.224647e-16 -1 267.5574 543.202)" class="st68" width="2" height="1.2"/>
	
		<rect x="130" y="271" transform="matrix(-1 -1.224647e-16 1.224647e-16 -1 261.8747 543.202)" class="st68" width="2" height="1.2"/>
	
		<rect x="125.7" y="270.2" transform="matrix(-1 -1.224647e-16 1.224647e-16 -1 254.7713 542.3496)" class="st68" width="3.4" height="2"/>
	<polygon class="st50" points="113.3,240.8 113.3,271 121,274.7 121,244.9 	"/>
</g>
<g>
	<path class="st65" d="M123.1,192.5l-15.1-0.8c0.1,1.2,0.3,2.2,0.8,2.8c0.7,0.9,1.6,1.4,2.8,1.5c0.7,0,1.4-0.1,2.1-0.5
		c0.4-0.2,0.9-0.6,1.4-1.2l7.4,1.1c-1.2,2-2.7,3.3-4.3,4.1c-1.6,0.8-4,1.1-7,0.9c-2.6-0.1-4.6-0.6-6.1-1.5c-1.4-0.8-2.6-2.1-3.5-3.8
		c-0.9-1.7-1.3-3.6-1.2-5.8c0.2-3.1,1.3-5.6,3.4-7.5c2.1-1.8,4.8-2.7,8.3-2.5c2.8,0.1,5,0.7,6.6,1.7c1.6,1,2.7,2.3,3.5,4
		c0.8,1.7,1.1,3.9,0.9,6.5L123.1,192.5z M115.7,188.4c-0.1-1.5-0.4-2.6-1-3.3c-0.6-0.7-1.4-1-2.4-1.1c-1.2-0.1-2.2,0.4-2.9,1.3
		c-0.5,0.6-0.8,1.5-1,2.7L115.7,188.4z"/>
	<path class="st65" d="M127.3,180.7l7,0.4l-0.2,3.3c0.8-1.4,1.5-2.3,2.3-2.8c0.7-0.5,1.7-0.7,2.7-0.7c1.1,0.1,2.3,0.5,3.6,1.3
		l-2.6,5.4c-0.9-0.4-1.6-0.7-2.1-0.7c-1-0.1-1.8,0.3-2.4,1.1c-0.8,1.1-1.3,3.3-1.5,6.5l-0.4,6.7l-7.5-0.4L127.3,180.7z"/>
	<path class="st65" d="M145.6,181.7l7,0.4l-0.2,3.3c0.8-1.4,1.5-2.3,2.3-2.8c0.7-0.5,1.7-0.7,2.7-0.7c1.1,0.1,2.3,0.5,3.6,1.3
		l-2.6,5.4c-0.9-0.4-1.6-0.7-2.1-0.7c-1-0.1-1.8,0.3-2.4,1.1c-0.8,1.1-1.3,3.3-1.5,6.5l-0.4,6.7l-7.5-0.4L145.6,181.7z"/>
	<path class="st65" d="M161.5,192.7c0.2-3.1,1.3-5.5,3.4-7.4c2.1-1.9,4.9-2.7,8.3-2.5c3.9,0.2,6.8,1.5,8.7,4c1.5,2,2.2,4.3,2,7.1
		c-0.2,3.1-1.3,5.6-3.4,7.4c-2.1,1.9-4.9,2.7-8.5,2.5c-3.1-0.2-5.7-1.1-7.5-2.9C162.3,198.7,161.3,196,161.5,192.7z M169,193
		c-0.1,1.8,0.2,3.1,0.8,4c0.7,0.9,1.5,1.4,2.6,1.4c1.1,0.1,2-0.3,2.7-1.1c0.7-0.8,1.2-2.1,1.3-4c0.1-1.7-0.2-3.1-0.8-3.9
		c-0.7-0.9-1.5-1.4-2.5-1.4c-1.1-0.1-2,0.3-2.8,1.2C169.5,190,169.1,191.3,169,193z"/>
	<path class="st65" d="M188.2,183.9l7,0.4l-0.2,3.3c0.8-1.4,1.5-2.3,2.3-2.8s1.7-0.7,2.7-0.7c1.1,0.1,2.3,0.5,3.6,1.3l-2.6,5.4
		c-0.9-0.4-1.6-0.7-2.1-0.7c-1-0.1-1.8,0.3-2.4,1.1c-0.8,1.1-1.3,3.3-1.5,6.5l-0.4,6.7l-7.5-0.4L188.2,183.9z"/>
</g>
</svg>
