<?xml version="1.0" encoding="utf-8"?>
<!-- Generator: Adobe Illustrator 28.0.0, SVG Export Plug-In . SVG Version: 6.00 Build 0)  -->
<svg version="1.1" id="圖層_1" xmlns="http://www.w3.org/2000/svg" xmlns:xlink="http://www.w3.org/1999/xlink" x="0px" y="0px"
	 viewBox="0 0 288.8 291.5" style="enable-background:new 0 0 288.8 291.5;" xml:space="preserve">
<style type="text/css">
	.st0{fill:#B5DFEA;}
	.st1{opacity:0.55;fill:#90CEDD;}
	.st2{fill:#C7E8F2;}
	.st3{fill:#D7F0F9;}
	.st4{fill:#0582C1;}
	.st5{fill:#0F1C68;}
	.st6{fill:#FFFFFF;}
	.st7{fill:#79C9E8;}
	.st8{fill:#FFBF4D;}
	.st9{fill:#00668E;}
	.st10{fill:#05556D;}
	.st11{fill:#F98D3D;}
	.st12{fill:#ED701B;}
	.st13{fill:none;}
	.st14{fill:#EFAA3A;}
	.st15{opacity:0.29;fill:#F98D2B;}
	.st16{fill:#49B4D6;}
	.st17{fill:#FF9F50;}
	.st18{fill:#F77E2D;}
	.st19{opacity:0.55;fill:url(#SVGID_1_);}
</style>
<path class="st0" d="M275.8,271.7c4.4,0,8-3.6,8.1-8c0.3-22.1,2.1-54.7-39.5-63.7c-33.7-7.3-13.7-67.1-104.3-63.2
	C75,139.6,92.3,194.4,41.7,199c-33.7,3-34,45.6-32.7,65.1c0.3,4.3,3.8,7.6,8.1,7.6H275.8z"/>
<g>
	<path class="st1" d="M244.4,200c-33.7-7.3-13.7-67.1-104.3-63.2c-15.5,0.7-26.3,4.3-34.5,9.4c2.8-0.4,5.7-0.6,8.8-0.7
		c90.6-3.9,70.7,55.9,104.3,63.2c41.1,8.9,39.8,40.9,39.5,63h17.5c4.4,0,8-3.6,8.1-8C284.2,241.6,286,209,244.4,200z"/>
</g>
<rect x="100.3" y="20.8" class="st2" width="1.4" height="104.4"/>
<rect x="202.9" y="20.8" class="st2" width="1.4" height="120.4"/>
<g>
	<path class="st3" d="M208.8,132.2l-106.4-12.4c-4.5-0.5-8.7,2.7-9.2,7.3l-7.9,68c-0.5,4.5,2.7,8.7,7.3,9.2L199,216.7
		c4.5,0.5,8.7-2.7,9.2-7.3l7.9-68C216.6,136.8,213.4,132.7,208.8,132.2z"/>
	<path class="st4" d="M215.3,148.1l0.8-6.7c0.5-4.5-2.7-8.7-7.3-9.2l-106.4-12.4c-4.5-0.5-8.7,2.7-9.2,7.3l-0.8,6.7L215.3,148.1z"/>
	<g>
		<path class="st5" d="M120.1,172.7l-9.9-1.3c-0.1,1.2,0,2.2,0.3,3.1c0.3,0.9,0.9,1.7,1.6,2.2c0.7,0.5,1.5,0.9,2.4,1
			c0.6,0.1,1.2,0.1,1.7,0s1-0.2,1.5-0.5c0.5-0.2,1-0.5,1.4-0.8c0.4-0.3,1-0.7,1.7-1.2c0.3-0.2,0.7-0.3,1.2-0.2
			c0.5,0.1,0.9,0.3,1.2,0.6c0.3,0.3,0.4,0.7,0.3,1.3c-0.1,0.5-0.3,1-0.7,1.5s-1.1,1.1-1.9,1.6c-0.8,0.5-1.8,0.8-2.9,1.1
			c-1.1,0.2-2.4,0.3-3.9,0.1c-3.3-0.4-5.7-1.7-7.3-3.8c-1.6-2.1-2.2-4.7-1.8-7.9c0.2-1.5,0.6-2.9,1.2-4.1c0.6-1.2,1.4-2.2,2.4-3.1
			c1-0.8,2.1-1.4,3.4-1.7c1.3-0.3,2.7-0.4,4.3-0.2c2,0.3,3.6,0.9,4.9,1.9c1.3,1,2.2,2.2,2.8,3.7c0.5,1.4,0.7,2.8,0.5,4.2
			c-0.2,1.3-0.6,2.1-1.4,2.3C122.4,172.8,121.4,172.9,120.1,172.7z M110.5,168.6l9.2,1.2c0.1-1.8-0.2-3.1-0.9-4.1
			c-0.7-1-1.7-1.5-3-1.7c-1.3-0.2-2.4,0.1-3.3,0.9C111.5,165.6,110.9,166.9,110.5,168.6z"/>
		<path class="st5" d="M133.3,176.2l-0.5,4.2c-0.1,1-0.5,1.8-1,2.2c-0.5,0.5-1.2,0.6-1.9,0.5c-0.7-0.1-1.3-0.4-1.7-1
			c-0.4-0.6-0.5-1.4-0.4-2.4l1.8-14.1c0.3-2.3,1.3-3.3,2.9-3.1c0.8,0.1,1.4,0.5,1.7,1c0.3,0.6,0.4,1.4,0.3,2.4
			c0.7-1,1.5-1.7,2.2-2.1c0.7-0.5,1.6-0.6,2.7-0.5c1.1,0.1,2.1,0.5,3,1.2c0.9,0.7,1.4,1.4,1.2,2.3c-0.1,0.6-0.4,1.1-0.8,1.5
			c-0.5,0.3-1,0.5-1.5,0.4c-0.2,0-0.6-0.2-1.3-0.5s-1.3-0.5-1.8-0.6c-0.7-0.1-1.4,0-1.9,0.4c-0.5,0.3-1,0.9-1.3,1.6
			c-0.4,0.7-0.7,1.6-0.9,2.7C133.8,173.3,133.5,174.6,133.3,176.2z"/>
		<path class="st5" d="M149.5,178.2l-0.5,4.2c-0.1,1-0.5,1.8-1,2.2c-0.5,0.5-1.2,0.6-1.9,0.5c-0.7-0.1-1.3-0.4-1.7-1
			c-0.4-0.6-0.5-1.4-0.4-2.4l1.8-14.1c0.3-2.3,1.3-3.3,2.9-3.1c0.8,0.1,1.4,0.5,1.7,1c0.3,0.6,0.4,1.4,0.3,2.4
			c0.7-1,1.5-1.7,2.2-2.1c0.7-0.5,1.6-0.6,2.7-0.5c1.1,0.1,2.1,0.5,3,1.2c0.9,0.7,1.3,1.4,1.2,2.3c-0.1,0.6-0.4,1.1-0.8,1.5
			c-0.5,0.3-1,0.5-1.5,0.4c-0.2,0-0.6-0.2-1.3-0.5c-0.7-0.3-1.3-0.5-1.8-0.6c-0.7-0.1-1.4,0-1.9,0.4c-0.5,0.3-1,0.9-1.3,1.6
			c-0.4,0.7-0.7,1.6-0.9,2.7C149.9,175.4,149.7,176.7,149.5,178.2z"/>
		<path class="st5" d="M179.1,178.9c-0.2,1.5-0.6,2.9-1.2,4.1s-1.5,2.2-2.5,3c-1,0.8-2.2,1.4-3.5,1.7c-1.3,0.3-2.7,0.4-4.3,0.2
			c-1.5-0.2-2.9-0.6-4.1-1.3c-1.2-0.7-2.1-1.5-2.9-2.5c-0.8-1-1.3-2.2-1.6-3.5c-0.3-1.3-0.4-2.7-0.2-4.3c0.2-1.5,0.6-2.9,1.2-4.1
			c0.6-1.2,1.4-2.2,2.4-3c1-0.8,2.2-1.4,3.5-1.7c1.3-0.3,2.7-0.4,4.2-0.2c1.5,0.2,2.9,0.6,4.1,1.3c1.2,0.7,2.2,1.5,3,2.5
			c0.8,1,1.3,2.2,1.6,3.5C179.3,176,179.3,177.4,179.1,178.9z M174,178.3c0.3-2.1,0-3.7-0.8-5c-0.8-1.3-1.9-2-3.5-2.2
			c-1-0.1-1.9,0-2.7,0.4c-0.8,0.4-1.5,1.1-2,2.1s-0.9,2.1-1.1,3.4c-0.2,1.3-0.1,2.5,0.2,3.6c0.3,1,0.8,1.9,1.4,2.5
			c0.7,0.6,1.5,1,2.6,1.1c1.5,0.2,2.8-0.2,3.9-1.3C173.1,181.9,173.8,180.3,174,178.3z"/>
		<path class="st5" d="M187.8,183.1l-0.5,4.2c-0.1,1-0.5,1.8-1,2.2s-1.2,0.6-1.9,0.5c-0.7-0.1-1.3-0.4-1.7-1
			c-0.4-0.6-0.5-1.4-0.4-2.4l1.8-14.1c0.3-2.3,1.3-3.3,2.9-3.1c0.8,0.1,1.4,0.5,1.7,1c0.3,0.6,0.4,1.4,0.3,2.4
			c0.7-1,1.5-1.7,2.2-2.1c0.7-0.5,1.6-0.6,2.7-0.5c1.1,0.1,2.1,0.5,3,1.2c0.9,0.7,1.4,1.4,1.2,2.3c-0.1,0.6-0.4,1.1-0.8,1.5
			c-0.5,0.3-1,0.5-1.5,0.4c-0.2,0-0.6-0.2-1.3-0.5c-0.7-0.3-1.3-0.5-1.8-0.6c-0.7-0.1-1.4,0-1.9,0.4c-0.5,0.3-1,0.9-1.3,1.6
			c-0.4,0.7-0.7,1.6-0.9,2.7C188.2,180.2,188,181.5,187.8,183.1z"/>
	</g>
	<g>
		<path class="st6" d="M105,129.1c-0.1,1.2-1.2,2.1-2.5,2c-1.2-0.1-2.1-1.2-2-2.5c0.1-1.2,1.2-2.1,2.5-2
			C104.3,126.8,105.1,127.9,105,129.1z"/>
		<path class="st7" d="M115.7,130.4c-0.1,1.2-1.2,2.1-2.5,2c-1.2-0.1-2.1-1.2-2-2.5c0.1-1.2,1.2-2.1,2.5-2
			C114.9,128.1,115.8,129.2,115.7,130.4z"/>
		<path class="st8" d="M126.7,131.7c-0.1,1.2-1.2,2.1-2.5,2s-2.1-1.2-2-2.5c0.1-1.2,1.2-2.1,2.5-2
			C126,129.3,126.9,130.5,126.7,131.7z"/>
	</g>
</g>
<g>
	<path class="st9" d="M79.3,211.3c0,0-1.4,6.4-1.2,12.9c0.2,5.8-0.5,44.2-0.5,44.2h4.7c0,0,6.7-30,6.9-32.4
		c0.2-2.4,3.6-26.1,3.6-26.1L79.3,211.3z"/>
	<path class="st4" d="M82.4,209.5c0,0,1.1,8.2,2.9,14c1.8,5.8,10.8,44.8,10.8,44.8h4.7c0,0-0.9-30-1.2-32.4
		c-0.3-2.4-2.7-26.1-2.7-26.1L82.4,209.5z"/>
	<path class="st4" d="M96.5,268.3v3.3h8.9c0.5,0,0.7-0.7,0.3-0.9c-1.3-0.9-3.4-2.1-5.3-2.3H96.5z"/>
	<path class="st4" d="M77.9,268.3v3.3h8.9c0.5,0,0.7-0.7,0.3-0.9c-1.3-0.9-3.4-2.1-5.3-2.3H77.9z"/>
	<g>
		<path class="st9" d="M93.9,171.4c0,0,3.1-4.7-0.5-5.1c-2.7-0.3-3.8,0.5-3.8,0.5s-3.1-0.3-4.8,1.1c-1.2,1-5.5,8.9,1.5,11.7
			c6.9,2.8,5.5-4.4,5.5-4.4L93.9,171.4z"/>
		<path class="st10" d="M93.5,166.3c-2.7-0.3-3.8,0.5-3.8,0.5s-3.1-0.3-4.8,1.1c-1.2,1-5.5,8.9,1.5,11.7c3.3,1.3,4.7,0.4,5.2-0.9
			c-6.6,1.8-7.3-6.1-6.2-8.3c1.1-2.3,3.7-1.2,3.7-1.2c1-2.6,4.4-2.3,5.8-2.1C94.6,166.6,94.2,166.4,93.5,166.3z"/>
		<path class="st11" d="M89.6,173.7c0,0-0.9-0.9-1.6,0c-0.7,0.9-0.2,3,0.9,3.1c0,0-0.3,3-2.6,2.8v2.4h5.3v-1.8c0,0,3.3-1.4,3.2-4.1
			c-0.1-2.7-0.9-4.7-0.9-4.7S92.1,173.4,89.6,173.7z"/>
		<path class="st12" d="M90.4,180.9c0.5,0.2,0.4,0.6,0.5,1.1h0.8v-1.8c0,0-1.3,0.4-3.2-0.7C88.5,179.5,89.6,180.6,90.4,180.9z"/>
	</g>
	<path class="st11" d="M91.5,169.3c0,0-2.8-1.1-3.1-0.3c-0.2,0.5,0.3,1,1.1,1.5l-0.7,0.1c-0.1,0-0.2,0.2-0.1,0.3
		c0.2,0.1,0.7,0.2,1.7,0.3L91.5,169.3z"/>
	<g>
		<polygon class="st13" points="75.1,199.3 78.8,211.3 78.7,210.7 78.8,211.3 80,193.9 		"/>
		<path class="st8" d="M111.3,176.3c-5.3-3.9-19.7-7-19.7-7l-1.2,2.2c0,0,13.1,5.1,12.2,5.8c-0.5,0.4-6.9,3.4-9.1,4.4
			c-0.5,0.2-1,0.3-1.5,0.3l-6.6,0c0,0-4.8-0.6-8.5,3.8c-3.4,3.9-9.1,12.8-9.1,12.8l9.6,14.2l1.1,1.6l0,0l0,0.1c0,0,0.3,0,0.9,0.1
			c3.1,0.3,13,1.1,18.3,0l0.1,0L97.6,191c8.4-6.6,12.4-11.8,13.8-13.4C111.8,177.3,111.7,176.6,111.3,176.3z M79,207.9l-0.9-2.1
			l-3-6.5l5-5.6L79.1,206L79,207.9z"/>
	</g>
	<polygon class="st14" points="78.1,205.9 79,207.9 78.5,214.1 78.5,214.1 77.5,212.6 	"/>
	<path class="st15" d="M95.4,190.2c-0.9,0.6-0.7,6.4-0.9,10c-0.4,6-0.7,11.2-0.5,14.6c1.4-0.1,2.6-0.2,3.7-0.5l0.1,0L97.6,191
		c8.4-6.6,12.4-11.8,13.8-13.4c0.4-0.4,0.3-1.1-0.2-1.4C111.3,176.3,104.7,183.5,95.4,190.2z"/>
	<path class="st9" d="M99.7,235.9c-0.2-1.7-1.5-14.5-2.2-21.5l-3.4,0.4c0,0,4.9,40.4,5.2,53.6h1.6C100.8,268.3,100,238.3,99.7,235.9
		z"/>
	<g>
		<path class="st4" d="M78.1,174.3l-1-1.8c0.5-1,0.8-2.1,0.8-3.2c0-3.8-3.1-6.9-6.9-6.9c-3.8,0-6.9,3.1-6.9,6.9
			c0,3.8,3.1,6.9,6.9,6.9c1.9,0,3.6-0.8,4.9-2L78.1,174.3z"/>
		<g>
			<path class="st6" d="M67.4,168.7h0.3v1c0,0.3,0.1,0.4,0.3,0.4c0.2,0,0.3-0.1,0.4-0.3v-1.1h0.3v1.6h-0.2l0-0.2h0
				c-0.1,0.2-0.3,0.3-0.5,0.3c-0.3,0-0.5-0.2-0.5-0.6V168.7z"/>
			<path class="st6" d="M69.8,170.4v0.5h-0.3v-2.2h0.2l0,0.2h0c0.1-0.1,0.3-0.2,0.5-0.2c0.4,0,0.6,0.3,0.6,0.8
				c0,0.5-0.3,0.8-0.7,0.8c-0.1,0-0.3-0.1-0.4-0.2L69.8,170.4z M70.2,170.1c0.3,0,0.4-0.2,0.4-0.6c0-0.3-0.1-0.6-0.4-0.6
				c-0.1,0-0.3,0.1-0.4,0.2v0.8C69.9,170,70.1,170.1,70.2,170.1z"/>
			<path class="st6" d="M71.6,169.9c0.1,0.1,0.3,0.2,0.5,0.2c0.2,0,0.3-0.1,0.3-0.2c0-0.2-0.2-0.2-0.4-0.3c-0.2-0.1-0.5-0.2-0.5-0.5
				c0-0.3,0.2-0.4,0.5-0.4c0.2,0,0.4,0.1,0.5,0.2l-0.1,0.2c-0.1-0.1-0.2-0.1-0.4-0.1c-0.2,0-0.3,0.1-0.3,0.2c0,0.1,0.2,0.2,0.3,0.3
				c0.2,0.1,0.5,0.2,0.5,0.5c0,0.3-0.2,0.5-0.6,0.5c-0.2,0-0.4-0.1-0.6-0.2L71.6,169.9z"/>
			<path class="st6" d="M73.4,169.9c0.1,0,0.2,0.1,0.2,0.2c0,0.1-0.1,0.2-0.2,0.2c-0.1,0-0.2-0.1-0.2-0.2
				C73.2,170,73.3,169.9,73.4,169.9z"/>
			<path class="st6" d="M74.6,169.9c0.1,0,0.2,0.1,0.2,0.2c0,0.1-0.1,0.2-0.2,0.2c-0.1,0-0.2-0.1-0.2-0.2
				C74.4,170,74.5,169.9,74.6,169.9z"/>
		</g>
	</g>
</g>
<g>
	<g>
		<g>
			<path class="st7" d="M51.7,257c0,0-1.4-1.3-0.5-6.5c1-5.1,3.4-10,2.2-15.6c-1.2-5.5-10.7-19.5-10.7-20.5c0-0.9-2.9,16.3,2,23.1
				c4.9,6.8,5.5,9.1,5.3,12.7c-0.2,3.6,0.1,6.4,0.6,7.3L51.7,257z"/>
			<path class="st16" d="M50.8,246.7c-0.6,2.3-0.9,8,0,9.4c0.1,0.1,0.2,0.1,0.4-0.2c-0.3-0.9-0.5-2.6,0.1-5.4c1-5.1,3.4-10,2.2-15.6
				c-1.2-5.5-10.7-19.5-10.7-20.5c0,0,1.4,11.7,6.2,19.7C52.4,239.9,51.4,244.4,50.8,246.7z"/>
		</g>
		<g>
			<path class="st7" d="M53.4,256.6c0,0-2.8-6.9,1.9-12.9c4.7-6,12.2-13.7,12.4-16.8c0,0,1.9,14.5-4.2,18.6
				c-6.1,4.1-10.4,4.8-9.4,11.1L53.4,256.6z"/>
			<path class="st16" d="M60.1,242.6c-6.8,5-7.4,10.7-6.3,13.4c0.1,0.2,0.2,0.3,0.4,0.4c-0.9-6.1,3.3-6.8,9.4-10.8
				c6.1-4.1,4.2-18.6,4.2-18.6S66.9,237.6,60.1,242.6z"/>
		</g>
		<g>
			<path class="st7" d="M48.9,256.8c0,0,0.9-3.7,0.4-7.6c-0.5-4-4.6-6.2-8.5-10.4c-2-2.2-2.6-13.5-1.3-14.6c0,0-6.8,8.3-5.8,14.3
				c1.1,6.1,12.2,10,13.2,12.9c1,2.9,0.9,5.4,0.9,5.4L48.9,256.8z"/>
			<g>
				<path class="st16" d="M37.2,227.4c-2.3,6.1,0.1,13.5,7.6,18.1c5.5,3.4,3.8,10.4,3.8,10.4l0.9-2.8c0.1-1.2,0.1-2.6-0.1-4
					c-0.5-4-4.6-6.2-8.5-10.4c-1.9-2.1-2.5-12.7-1.5-14.5C39,224.7,38.1,225.8,37.2,227.4z"/>
				<path class="st16" d="M39.3,224.3c0.1-0.1,0.1-0.2,0.1-0.2C39.4,224.2,39.4,224.2,39.3,224.3z"/>
			</g>
		</g>
		<g>
			<path class="st7" d="M54.9,256.3c0,0,1.6-5.9,5.6-6.7c4-0.8,8.5-6.7,8.8-7.8C69.2,241.8,68.5,252.8,54.9,256.3z"/>
			<path class="st16" d="M60.2,251.5c-2.4,1.2-3.4,2.8-3.8,4.3c12.2-3.9,12.8-14.1,12.8-14.1c0,0.2-0.3,0.6-0.6,1.2
				C67.4,245,64.5,249.4,60.2,251.5z"/>
		</g>
	</g>
	<path class="st8" d="M63.4,254.1H42.7l2.5,15.5c0.2,1.2,1.2,2,2.4,2h11c1.2,0,2.2-0.9,2.4-2L63.4,254.1z"/>
	<polygon class="st17" points="63,256.7 63.4,254.1 42.7,254.1 43.1,256.7 	"/>
	<path class="st17" d="M58.4,254.1L56,269.6c-0.2,1.2-1.2,2-2.4,2h5c1.2,0,2.2-0.9,2.4-2l2.5-15.5H58.4z"/>
</g>
<g>
	<rect x="112.7" y="226.5" class="st8" width="93.6" height="19"/>
	<rect x="112.7" y="226.5" class="st15" width="93.6" height="4.6"/>
	<polygon class="st18" points="120.8,226.5 129.4,226.5 127.1,231.2 118.5,231.2 	"/>
	<polygon class="st18" points="140.1,226.5 148.6,226.5 146.3,231.2 137.8,231.2 	"/>
	<polygon class="st18" points="159.3,226.5 167.9,226.5 165.6,231.2 157,231.2 	"/>
	<polygon class="st18" points="178.6,226.5 187.1,226.5 184.8,231.2 176.3,231.2 	"/>
	<polygon class="st18" points="206.3,226.5 206.3,226.7 204.1,231.2 195.5,231.2 197.8,226.5 	"/>
	<rect x="124.3" y="245.6" class="st7" width="6.6" height="26"/>
	<rect x="129.4" y="245.6" class="st16" width="1.5" height="26"/>
	<rect x="188.6" y="245.6" class="st7" width="6.6" height="26"/>
	<rect x="193.2" y="245.6" class="st16" width="2" height="26"/>
	<rect x="124.3" y="245.5" class="st16" width="6.6" height="3.3"/>
	<rect x="188.6" y="245.5" class="st16" width="6.6" height="3.3"/>
	<rect x="124.3" y="223.6" class="st7" width="6.6" height="3"/>
	<rect x="129.4" y="223.6" class="st16" width="1.5" height="3"/>
	<rect x="188.6" y="223.6" class="st7" width="6.6" height="3"/>
	<rect x="193.2" y="223.6" class="st16" width="2" height="3"/>
	<rect x="124.3" y="226.1" class="st16" width="6.6" height="0.4"/>
	<rect x="188.6" y="226.1" class="st16" width="6.6" height="0.4"/>
	<g>
		<g>
			<polygon class="st4" points="129.4,226.5 119.9,245.6 112.7,245.6 112.7,242.9 120.8,226.5 			"/>
			<polygon class="st4" points="140.1,226.5 130.6,245.6 139.2,245.6 148.6,226.5 			"/>
			<polygon class="st4" points="167.9,226.5 158.4,245.6 149.9,245.6 159.3,226.5 			"/>
			<polygon class="st4" points="187.1,226.5 177.7,245.6 169.1,245.6 178.6,226.5 			"/>
			<polygon class="st4" points="197.8,226.5 188.4,245.6 196.9,245.6 206.3,226.7 			"/>
		</g>
	</g>
	<g>
		<g>
			<polygon class="st9" points="129.4,226.5 127.1,231.2 118.5,231.2 120.8,226.5 			"/>
			<polygon class="st9" points="148.6,226.5 146.3,231.2 137.8,231.2 140.1,226.5 			"/>
			<polygon class="st9" points="167.9,226.5 165.6,231.2 157,231.2 159.3,226.5 			"/>
			<polygon class="st9" points="187.1,226.5 184.8,231.2 176.3,231.2 178.6,226.5 			"/>
			<polygon class="st9" points="206.3,226.7 204.1,231.2 195.5,231.2 197.8,226.5 			"/>
		</g>
	</g>
	<linearGradient id="SVGID_1_" gradientUnits="userSpaceOnUse" x1="159.9982" y1="251.1326" x2="159.9982" y2="235.8004">
		<stop  offset="0" style="stop-color:#FFFFFF"/>
		<stop  offset="1" style="stop-color:#FFFFFF;stop-opacity:0"/>
	</linearGradient>
	<rect x="115.3" y="234.8" class="st19" width="89.4" height="9.5"/>
	<ellipse transform="matrix(0.987 -0.1606 0.1606 0.987 -33.5942 23.328)" class="st8" cx="127.5" cy="219.4" rx="5.9" ry="5.9"/>
	<path class="st4" d="M130.1,219.4c0-1.5-1.2-2.7-2.7-2.7c-1.5,0-2.7,1.2-2.7,2.7c0,1.5,1.2,2.7,2.7,2.7
		C128.9,222.1,130.1,220.9,130.1,219.4z"/>
	<ellipse transform="matrix(0.987 -0.1606 0.1606 0.987 -32.7584 33.6659)" class="st8" cx="191.8" cy="219.4" rx="5.9" ry="5.9"/>
	<path class="st4" d="M194.5,219.4c0-1.5-1.2-2.7-2.7-2.7s-2.7,1.2-2.7,2.7c0,1.5,1.2,2.7,2.7,2.7S194.5,220.9,194.5,219.4z"/>
</g>
<g>
	<path class="st8" d="M241.8,269.6H212l4.6-11.1v0l1.8-4.5l0.5-1.2l0.8-2l0.2-0.4l1.8-4.5l0.3-0.8l3.3-7.9c0.6-1.4,2.6-1.4,3.2,0
		l3.3,7.9l0.3,0.8l1.8,4.5l0.2,0.4l0.8,2l0.5,1.2l1.8,4.5v0L241.8,269.6z"/>
	<polygon class="st15" points="213.9,264.8 212,269.6 241.8,269.6 239.8,264.8 	"/>
	<rect x="209.6" y="266.7" class="st7" width="34.1" height="4.8"/>
	<rect x="236.3" y="266.7" class="st16" width="7.4" height="4.8"/>
	<g>
		<path class="st15" d="M240.6,266.7h-4.2l-3.4-8.2v0l-1.8-4.5l-0.5-1.2l-0.8-2l-0.2-0.4l-1.8-4.5l-0.3-0.8l-2.7-6.6l0.5-1.2
			c0.6-1.4,2.6-1.4,3.2,0l3.3,7.9l0.3,0.8l1.8,4.5l0.2,0.4l0.8,2l0.5,1.2l1.8,4.5v0L240.6,266.7z"/>
		<g>
			<polygon class="st4" points="233.9,250.4 219.8,250.4 221.7,246 232,246 			"/>
			<polygon class="st4" points="237.2,258.5 237.2,258.5 216.5,258.5 216.5,258.5 218.4,254.1 235.4,254.1 			"/>
			<polygon class="st9" points="233.9,250.4 229.7,250.4 227.8,246 232,246 			"/>
			<polygon class="st9" points="237.2,258.5 237.2,258.5 233,258.5 233,258.5 231.2,254.1 235.4,254.1 			"/>
		</g>
	</g>
</g>
<g>
	<path class="st3" d="M51.7,161.2c2.2,0,4.2-1.6,4.5-3.8c0.1-0.4,0.1-0.8,0.1-1.2c0-4.9-4-8.9-8.9-8.9c-0.2,0-0.4,0-0.6,0
		c-0.4-4.8-4.5-8.7-9.4-8.7c-5.2,0-9.5,4.2-9.5,9.5c0,0.2,0,0.5,0,0.7c-1.5-0.8-3.2-1.3-5-1.2c-4.7,0.2-8.6,4-9,8.8c0,0,0,0.1,0,0.1
		c-0.2,2.6,1.9,4.7,4.5,4.7H51.7z"/>
	<path class="st3" d="M264.1,168.2c7,0,7.4-10.6,0.4-10.9c-0.2,0-0.4,0-0.6,0c-1.3,0-2.5,0.2-3.6,0.6c-0.9-5.7-5.9-10.1-11.9-10.1
		c-6.1,0-11.2,4.6-12,10.5c-1.5-0.7-3.1-1.1-4.8-1.1c-1,0-1.9,0.1-2.8,0.4c-6.2,1.6-4.9,10.7,1.5,10.7H264.1z"/>
	<path class="st3" d="M179.6,116c7,0,7.4-10.6,0.4-10.9c-0.2,0-0.4,0-0.6,0c-1.3,0-2.5,0.2-3.6,0.6c-0.9-5.7-5.9-10.1-11.9-10.1
		c-6.1,0-11.2,4.6-12,10.5c-1.5-0.7-3.1-1.1-4.8-1.1c-1,0-1.9,0.1-2.8,0.4c-6.2,1.6-4.9,10.7,1.5,10.7H179.6z"/>
	<circle class="st8" cx="67.6" cy="118.7" r="16.9"/>
	<path class="st17" d="M67.7,101.8c4.6,3,7.6,8.2,7.6,14.1c0,9.3-7.5,16.9-16.9,16.9c0,0-0.1,0-0.1,0c2.7,1.7,5.8,2.8,9.2,2.8
		c9.3,0,16.9-7.5,16.9-16.9C84.5,109.4,77,101.9,67.7,101.8z"/>
</g>
</svg>
