<?xml version="1.0" encoding="utf-8"?>
<!-- Generator: Adobe Illustrator 28.0.0, SVG Export Plug-In . SVG Version: 6.00 Build 0)  -->
<svg version="1.1" id="圖層_1" xmlns="http://www.w3.org/2000/svg" xmlns:xlink="http://www.w3.org/1999/xlink" x="0px" y="0px"
	 viewBox="0 0 52.5 46.3" style="enable-background:new 0 0 52.5 46.3;" xml:space="preserve">
<style type="text/css">
	.st0{fill:#0066CC;}
	.st1{fill:#0C3A78;}
	.st2{enable-background:new    ;}
	.st3{fill:#FFFFFF;}
</style>
<path class="st0" d="M48.7,10.5h-2.1h-1.3H6.9H5.5H3.4c-2,0-3.6,1.6-3.6,3.6v28.7c0,2,1.6,3.6,3.6,3.6h2.1h1.4h38.4h1.3h2.1
	c2,0,3.6-1.6,3.6-3.6V14C52.3,12.1,50.7,10.5,48.7,10.5z"/>
<path class="st1" d="M17.8,3.8h16.5v4h3.8V3.3c0-1.8-1.4-3.3-3.3-3.3H17.3C15.5,0,14,1.5,14,3.3v4.6h3.8V3.8z"/>
<g class="st2">
	<path class="st3" d="M14.9,22.2v7.9c0,0.7,0,1.3-0.1,1.7c-0.1,0.5-0.2,1-0.4,1.5c-0.3,0.8-0.9,1.5-1.7,1.9
		c-0.8,0.5-1.7,0.7-2.9,0.7c-1,0-1.9-0.2-2.5-0.5s-1.2-0.8-1.6-1.6c-0.2-0.4-0.4-0.8-0.5-1.3s-0.2-1-0.2-1.4c0-0.5,0.1-0.8,0.4-1.1
		s0.6-0.4,1-0.4c0.4,0,0.7,0.1,0.9,0.3s0.4,0.6,0.5,1.1c0.1,0.5,0.2,0.9,0.3,1.3s0.3,0.6,0.6,0.8s0.7,0.3,1.2,0.3c1.3,0,2-1,2-3
		v-8.3c0-0.6,0.1-1.1,0.4-1.4c0.3-0.3,0.6-0.5,1.1-0.5c0.5,0,0.8,0.2,1.1,0.5C14.7,21.1,14.9,21.6,14.9,22.2z"/>
	<path class="st3" d="M24.8,20.4c1.6,0,2.9,0.3,4,0.9c1.1,0.6,2,1.5,2.5,2.7c0.6,1.2,0.9,2.5,0.9,4.1c0,1.2-0.2,2.2-0.5,3.2
		c-0.3,0.9-0.8,1.8-1.4,2.5S28.9,35,28,35.3c-0.9,0.4-2,0.6-3.1,0.6c-1.2,0-2.2-0.2-3.2-0.6c-0.9-0.4-1.7-0.9-2.3-1.6
		c-0.6-0.7-1.1-1.5-1.4-2.5c-0.3-1-0.5-2-0.5-3.1c0-1.2,0.2-2.2,0.5-3.2s0.8-1.8,1.4-2.5c0.6-0.7,1.4-1.2,2.3-1.6
		S23.6,20.4,24.8,20.4z M29.1,28.1c0-1.1-0.2-2.1-0.5-2.9s-0.9-1.4-1.5-1.8c-0.7-0.4-1.4-0.6-2.3-0.6c-0.6,0-1.2,0.1-1.7,0.3
		c-0.5,0.2-1,0.6-1.3,1c-0.4,0.4-0.7,1-0.9,1.7c-0.2,0.7-0.3,1.4-0.3,2.3c0,0.9,0.1,1.6,0.3,2.3c0.2,0.7,0.5,1.3,0.9,1.7
		c0.4,0.5,0.8,0.8,1.4,1c0.5,0.2,1.1,0.3,1.7,0.3c0.8,0,1.5-0.2,2.1-0.6s1.2-1,1.6-1.8C28.9,30.3,29.1,29.3,29.1,28.1z"/>
	<path class="st3" d="M41.2,35.6h-4.6c-0.7,0-1.1-0.1-1.4-0.4c-0.3-0.3-0.4-0.8-0.4-1.4V22.5c0-0.7,0.1-1.1,0.4-1.4
		c0.3-0.3,0.8-0.4,1.4-0.4h4.9c0.7,0,1.3,0,1.9,0.1c0.5,0.1,1,0.3,1.4,0.5c0.4,0.2,0.7,0.5,0.9,0.8s0.5,0.7,0.6,1.1
		c0.1,0.4,0.2,0.8,0.2,1.2c0,1.5-0.8,2.6-2.3,3.3c2,0.6,3,1.9,3,3.7c0,0.8-0.2,1.6-0.6,2.3s-1,1.2-1.7,1.5c-0.5,0.2-1,0.3-1.6,0.4
		C42.7,35.6,42,35.6,41.2,35.6z M37.8,22.9v3.9h2.8c0.8,0,1.3-0.1,1.8-0.2c0.4-0.1,0.7-0.4,0.9-0.8c0.2-0.3,0.3-0.6,0.3-1
		c0-0.8-0.3-1.3-0.8-1.5c-0.5-0.2-1.4-0.4-2.5-0.4H37.8z M41,29h-3.2v4.4h3.3c2.1,0,3.1-0.7,3.1-2.2c0-0.8-0.3-1.3-0.8-1.7
		S42.1,29,41,29z"/>
</g>
</svg>
