<?xml version="1.0" encoding="utf-8"?>
<!-- Generator: Adobe Illustrator 28.0.0, SVG Export Plug-In . SVG Version: 6.00 Build 0)  -->
<svg version="1.1" id="圖層_1" xmlns="http://www.w3.org/2000/svg" xmlns:xlink="http://www.w3.org/1999/xlink" x="0px" y="0px"
	 viewBox="0 0 52.5 46.3" style="enable-background:new 0 0 52.5 46.3;" xml:space="preserve">
<style type="text/css">
	.st0{fill:#0066CC;}
	.st1{fill:#0C3A78;}
	.st2{fill:#FFFFFF;}
	.st3{font-family:'ArialRoundedMTBold';}
	.st4{font-size:20.9976px;}
</style>
<path class="st0" d="M48.9,10.5h-2.1h-1.3H7.1H5.7H3.6c-2,0-3.6,1.6-3.6,3.6v28.7c0,2,1.6,3.6,3.6,3.6h2.1h1.4h38.4h1.3h2.1
	c2,0,3.6-1.6,3.6-3.6V14C52.5,12.1,50.9,10.5,48.9,10.5z"/>
<path class="st1" d="M18,3.8h16.5v4h3.8V3.3C38.3,1.5,36.9,0,35,0H17.5c-1.8,0-3.3,1.5-3.3,3.3v4.6H18V3.8z"/>
<text transform="matrix(1 0 0 1 4.1956 35.6462)" class="st2 st3 st4">JOB</text>
</svg>
