<?xml version="1.0" encoding="utf-8"?>
<!-- Generator: Adobe Illustrator 28.0.0, SVG Export Plug-In . SVG Version: 6.00 Build 0)  -->
<svg version="1.1" id="圖層_1" xmlns="http://www.w3.org/2000/svg" xmlns:xlink="http://www.w3.org/1999/xlink" x="0px" y="0px"
	 viewBox="0 0 136.1 134.7" style="enable-background:new 0 0 136.1 134.7;" xml:space="preserve">
<style type="text/css">
	.st0{fill:#C2191F;}
</style>
<path class="st0" d="M69.9,8.8l6.1-6c1.3-1.3,3.5-0.9,4.3,0.7l4,7.6c0.7,1.3,2.3,1.8,3.6,1.2l7.7-3.9c1.6-0.8,3.6,0.2,3.9,2l1.4,8.5
	c0.2,1.5,1.6,2.5,3.1,2.2l8.5-1.3c1.8-0.3,3.4,1.3,3.1,3.1l-1.3,8.5c-0.2,1.5,0.8,2.8,2.2,3.1l8.5,1.4c1.8,0.3,2.8,2.3,2,3.9
	l-3.9,7.7c-0.7,1.3-0.1,2.9,1.2,3.6l7.6,4c1.6,0.8,2,3,0.7,4.3l-6,6.1c-1,1.1-1,2.8,0,3.8l6,6.1c1.3,1.3,0.9,3.5-0.7,4.3l-7.6,4
	c-1.3,0.7-1.8,2.3-1.2,3.6l3.9,7.7c0.8,1.6-0.2,3.6-2,3.9l-8.5,1.4c-1.5,0.2-2.5,1.6-2.2,3.1l1.3,8.5c0.3,1.8-1.3,3.4-3.1,3.1
	l-8.5-1.3c-1.5-0.2-2.8,0.8-3.1,2.2l-1.4,8.5c-0.3,1.8-2.3,2.8-3.9,2l-7.7-3.9c-1.3-0.7-2.9-0.1-3.6,1.2l-4,7.6
	c-0.8,1.6-3,2-4.3,0.7l-6.1-6c-1.1-1-2.8-1-3.8,0l-6.1,6c-1.3,1.3-3.5,0.9-4.3-0.7l-4-7.6c-0.7-1.3-2.3-1.8-3.6-1.2l-7.7,3.9
	c-1.6,0.8-3.6-0.2-3.9-2l-1.4-8.5c-0.2-1.5-1.6-2.5-3.1-2.2l-8.5,1.3c-1.8,0.3-3.4-1.3-3.1-3.1l1.3-8.5c0.2-1.5-0.8-2.8-2.2-3.1
	L11,98.8c-1.8-0.3-2.8-2.3-2-3.9l3.9-7.7c0.7-1.3,0.1-2.9-1.2-3.6l-7.6-4c-1.6-0.8-2-3-0.7-4.3l6-6.1c1-1.1,1-2.8,0-3.8l-6-6.1
	C2.1,58,2.5,55.8,4.1,55l7.6-4c1.3-0.7,1.8-2.3,1.2-3.6l-3.9-7.7c-0.8-1.6,0.2-3.6,2-3.9l8.5-1.4c1.5-0.2,2.5-1.6,2.2-3.1l-1.3-8.5
	c-0.3-1.8,1.3-3.4,3.1-3.1l8.5,1.3c1.5,0.2,2.8-0.8,3.1-2.2l1.4-8.5c0.3-1.8,2.3-2.8,3.9-2l7.7,3.9c1.3,0.7,2.9,0.1,3.6-1.2l4-7.6
	c0.8-1.6,3-2,4.3-0.7l6.1,6C67.2,9.8,68.9,9.8,69.9,8.8z"/>
</svg>
