<?xml version="1.0" encoding="utf-8"?>
<!-- Generator: Adobe Illustrator 28.1.0, SVG Export Plug-In . SVG Version: 6.00 Build 0)  -->
<svg version="1.1" id="圖層_1" xmlns="http://www.w3.org/2000/svg" xmlns:xlink="http://www.w3.org/1999/xlink" x="0px" y="0px"
	 viewBox="0 0 32 32" style="enable-background:new 0 0 32 32;" xml:space="preserve">
<style type="text/css">
	.st0{fill:#2B3A73;}
</style>
<g>
	<path class="st0" d="M29,0H3C1.3,0,0,1.3,0,3v22c0,1.7,1.3,3,3,3h3c0.6,0,1-0.4,1-1s-0.4-1-1-1H3c-0.6,0-1-0.4-1-1V8h28v17
		c0,0.6-0.4,1-1,1h-4c-0.6,0-1,0.4-1,1s0.4,1,1,1h4c1.7,0,3-1.3,3-3V3C32,1.3,30.7,0,29,0z M30,6H2V3c0-0.6,0.4-1,1-1h26
		c0.6,0,1,0.4,1,1V6z"/>
	<path class="st0" d="M25,12h2c0.6,0,1-0.4,1-1s-0.4-1-1-1h-2c-0.6,0-1,0.4-1,1S24.4,12,25,12z"/>
	<path class="st0" d="M7,14H5c-0.6,0-1,0.4-1,1s0.4,1,1,1h2c0.6,0,1-0.4,1-1S7.6,14,7,14z"/>
	<path class="st0" d="M7,10H5c-0.6,0-1,0.4-1,1s0.4,1,1,1h2c0.6,0,1-0.4,1-1S7.6,10,7,10z"/>
	<path class="st0" d="M18.5,18c-1.2,0-2.4,0.5-3.2,1.3l-4.9,4.9c-1.8,1.8-1.8,4.7,0,6.4c0.8,0.8,2,1.3,3.2,1.3
		c1.2,0,2.4-0.5,3.2-1.3l2.5-2.5l2.5-2.5c0.9-0.8,1.4-2,1.3-3.2C23,20,21,18,18.5,18z M15.3,29.3c-0.5,0.5-1.1,0.7-1.8,0.7
		c-1.4,0-2.5-1.1-2.5-2.6c0-0.7,0.3-1.3,0.7-1.8l1.8-1.8l3.6,3.6L15.3,29.3z M20.3,24.3l-1.8,1.8l-3.6-3.6l1.8-1.8c1-1,2.6-1,3.6,0
		c0.5,0.5,0.7,1.1,0.7,1.8C21,23.2,20.7,23.9,20.3,24.3z"/>
</g>
</svg>
