<?xml version="1.0" encoding="utf-8"?>
<!-- Generator: Adobe Illustrator 28.1.0, SVG Export Plug-In . SVG Version: 6.00 Build 0)  -->
<svg version="1.1" id="圖層_1" xmlns="http://www.w3.org/2000/svg" xmlns:xlink="http://www.w3.org/1999/xlink" x="0px" y="0px"
	 viewBox="0 0 32 32" style="enable-background:new 0 0 32 32;" xml:space="preserve">
<style type="text/css">
	.st0{fill:#2B3A73;}
</style>
<g>
	<path class="st0" d="M27,15c-0.6,0-1,0.4-1,1v13c0,0.6-0.4,1-1,1H7c-0.6,0-1-0.4-1-1V7c0-0.6,0.4-1,1-1h1c0.6,0,1-0.4,1-1
		S8.6,4,8,4H7C5.3,4,4,5.3,4,7v22c0,1.7,1.3,3,3,3h18c1.7,0,3-1.3,3-3V16C28,15.4,27.6,15,27,15z"/>
	<path class="st0" d="M25,4h-4c0-1.1-0.9-2-2-2h-2V1c0-0.6-0.4-1-1-1s-1,0.4-1,1v1h-2c-1.1,0-2,0.9-2,2v2c0,1.1,0.9,2,2,2h6
		c1.1,0,2-0.9,2-2h4c0.6,0,1,0.4,1,1v5c0,0.6,0.4,1,1,1s1-0.4,1-1V7C28,5.3,26.7,4,25,4z M19,6h-6V4h6V6z"/>
	<path class="st0" d="M14,12c0-0.6-0.4-1-1-1H9c-0.6,0-1,0.4-1,1v4c0,0.6,0.4,1,1,1h4c0.6,0,1-0.4,1-1V12z M12,15h-2v-2h2V15z"/>
	<path class="st0" d="M13,20H9c-0.6,0-1,0.4-1,1v4c0,0.6,0.4,1,1,1h4c0.6,0,1-0.4,1-1v-4C14,20.4,13.6,20,13,20z M12,24h-2v-2h2V24z
		"/>
	<path class="st0" d="M17,15h6c0.6,0,1-0.4,1-1s-0.4-1-1-1h-6c-0.6,0-1,0.4-1,1S16.4,15,17,15z"/>
	<path class="st0" d="M17,24h6c0.6,0,1-0.4,1-1s-0.4-1-1-1h-6c-0.6,0-1,0.4-1,1S16.4,24,17,24z"/>
</g>
</svg>
