<?xml version="1.0" encoding="utf-8"?>
<!-- Generator: Adobe Illustrator 28.1.0, SVG Export Plug-In . SVG Version: 6.00 Build 0)  -->
<svg version="1.1" id="Capa_1" xmlns="http://www.w3.org/2000/svg" xmlns:xlink="http://www.w3.org/1999/xlink" x="0px" y="0px"
	 viewBox="0 0 512 512" style="enable-background:new 0 0 512 512;" xml:space="preserve">
<style type="text/css">
	.st0{fill:#2B3A73;}
</style>
<g id="Vitamin_C">
	<g>
		<path class="st0" d="M220,0H60C26.9,0,0,26.9,0,60v40c0,11,9,20,20,20h20v332c0,33.1,26.9,60,60,60h80c33.1,0,60-26.9,60-60V180
			c0-11-9-20-20-20s-20,9-20,20v272c0,11-9,20-20,20h-80c-11,0-20-9-20-20V120h180c11,0,20-9,20-20V60C280,26.9,253.1,0,220,0z
			 M240,80H40V60c0-11,9-20,20-20h160c11,0,20,9,20,20V80z"/>
		<path class="st0" d="M412,312c-55.1,0-100,44.9-100,100c0,55.2,44.8,100,100,100c55.1,0,100-44.9,100-100
			C512,356.9,467.1,312,412,312z M412,352c9.3,0,18,2.1,25.9,5.9l-80,80c-3.8-7.8-5.9-16.6-5.9-25.9C352,378.9,378.9,352,412,352
			L412,352z M412,472c-9.3,0-18-2.1-25.9-5.9l80-80c3.8,7.8,5.9,16.6,5.9,25.9C472,445.1,445.1,472,412,472L412,472z"/>
		<path class="st0" d="M412,272c55.1,0,100-44.9,100-100c0-55.1-44.9-100-100-100c-55.1,0-100,44.9-100,100
			C312,227.1,356.9,272,412,272z M352,172c0-9.3,2.1-18,5.9-25.9l80,80c-7.8,3.8-16.6,5.9-25.9,5.9C378.9,232,352,205.1,352,172
			L352,172z M472,172c0,9.3-2.1,18-5.9,25.9l-80-80c7.8-3.8,16.6-5.9,25.9-5.9C445.1,112,472,138.9,472,172L472,172z"/>
	</g>
	<g>
		<path class="st0" d="M140,352c-11,0-20-9-20-20V220c0-11,9-20,20-20s20,9,20,20v112C160,343,151,352,140,352z"/>
	</g>
</g>
</svg>
