<?xml version="1.0" encoding="utf-8"?>
<!-- Generator: Adobe Illustrator 28.1.0, SVG Export Plug-In . SVG Version: 6.00 Build 0)  -->
<svg version="1.1" id="圖層_1" xmlns="http://www.w3.org/2000/svg" xmlns:xlink="http://www.w3.org/1999/xlink" x="0px" y="0px"
	 viewBox="0 0 32 32" style="enable-background:new 0 0 32 32;" xml:space="preserve">
<style type="text/css">
	.st0{fill:#2B3A73;}
</style>
<g>
	<path class="st0" d="M31,12h-2.5L29,9.6c2.5-1.1,3.7-4.1,2.5-6.6c-0.6-1.4-1.8-2.4-3.3-2.8c-1.5-0.4-3.1,0-4.3,0.9
		C22.7,2,22,3.5,22,5c0,1.2,0.4,2.4,1.2,3.3L22.4,12h-5c0.3-0.6,0.6-1.3,0.6-2V8c0-0.6-0.4-1-1-1h-3c-1.1,0-2.1,0.4-2.8,1.2
		C10.2,6.8,8.7,6,7,6H3C2.4,6,2,6.4,2,7v2c0,1.1,0.4,2.2,1,3H1c-0.6,0-1,0.4-1,1v4c0,0.6,0.4,1,1,1h1v3c0,6.1,4.9,11,11,11h6
		c6.1,0,11-4.9,11-11v-3h1c0.6,0,1-0.4,1-1v-4C32,12.4,31.6,12,31,12z M25,2.8c0,0,0.1-0.1,0.1-0.1c0.7-0.6,1.7-0.8,2.6-0.5
		c1.6,0.4,2.5,2.1,2.1,3.7c-0.2,0.9-0.9,1.6-1.7,2c-0.6,0.2-1,0.7-1.1,1.3L26.4,12h-2l0.7-3.2c0.2-0.6,0-1.3-0.4-1.8
		C23.7,5.8,23.8,3.9,25,2.8z M12,11c0-1.1,0.9-2,2-2h2v1c0,1.1-0.9,2-2,2h-2V11z M4,9V8h3c1.7,0,3,1.3,3,3v1H7C5.3,12,4,10.7,4,9z
		 M28,21c0,5-4,9-9,9h-6c-5,0-9-4-9-9v-3h24V21z M30,16H2v-2h5h7h16V16z"/>
	<path class="st0" d="M14,25h1v1c0,0.6,0.4,1,1,1s1-0.4,1-1v-1h1c0.6,0,1-0.4,1-1s-0.4-1-1-1h-1v-1c0-0.6-0.4-1-1-1s-1,0.4-1,1v1h-1
		c-0.6,0-1,0.4-1,1S13.4,25,14,25z"/>
	<circle class="st0" cx="7" cy="3" r="1"/>
	<circle class="st0" cx="15" cy="4" r="1"/>
	<circle class="st0" cx="11" cy="1" r="1"/>
</g>
</svg>
