<?xml version="1.0" encoding="utf-8"?>
<!-- Generator: Adobe Illustrator 28.1.0, SVG Export Plug-In . SVG Version: 6.00 Build 0)  -->
<svg version="1.1" id="Capa_1" xmlns="http://www.w3.org/2000/svg" xmlns:xlink="http://www.w3.org/1999/xlink" x="0px" y="0px"
	 viewBox="0 0 512 512" style="enable-background:new 0 0 512 512;" xml:space="preserve">
<style type="text/css">
	.st0{fill:#2B3A73;}
</style>
<g>
	<path class="st0" d="M220,196c11,0,20-9,20-20s-9-20-20-20h-80c-11,0-20,9-20,20s9,20,20,20H220z"/>
	<path class="st0" d="M100,120h160c33.1,0,60-26.9,60-60S293.1,0,260,0H100C66.9,0,40,26.9,40,60S66.9,120,100,120z M100,40h160
		c11,0,20,9,20,20s-9,20-20,20H100c-11,0-20-9-20-20S89,40,100,40z"/>
	<path class="st0" d="M326.3,181.6c-3-2.6-5-6.1-5.9-10.1c-2.4-10.8-13.1-17.6-23.8-15.2c-10.8,2.4-17.6,13-15.2,23.8
		c2.7,12.3,9.1,23.2,18.4,31.4c13,11.5,20.2,27.3,20.2,44.5v156c0,33.1-26.9,60-60,60H100c-33.1,0-60-26.9-60-60V256
		c0-17.2,7.2-33,20.2-44.5c9.3-8.3,15.7-19.1,18.4-31.4c2.4-10.8-4.4-21.5-15.2-23.8c-10.8-2.4-21.5,4.4-23.8,15.2
		c-0.9,4-2.9,7.5-5.9,10.1C12.3,200.5,0,227.6,0,256v156c0,55.1,44.9,100,100,100h160c55.1,0,100-44.9,100-100V256
		C360,227.6,347.7,200.5,326.3,181.6z"/>
	<path class="st0" d="M80,296v76c0,33.1,26.9,60,60,60h80c33.1,0,60-26.9,60-60v-76c0-33.1-26.9-60-60-60h-80
		C106.9,236,80,262.9,80,296z M120,296c0-11,9-20,20-20h80c11,0,20,9,20,20v76c0,11-9,20-20,20h-80c-11,0-20-9-20-20V296z"/>
	<path class="st0" d="M452,312c-33.1,0-60,26.9-60,60v80c0,33.1,26.9,60,60,60s60-26.9,60-60v-80C512,338.9,485.1,312,452,312z
		 M472,452c0,11-9,20-20,20s-20-9-20-20v-20h40V452z M472,392h-40v-20c0-11,9-20,20-20s20,9,20,20V392z"/>
</g>
</svg>
