<?xml version="1.0" encoding="utf-8"?>
<!-- Generator: Adobe Illustrator 28.1.0, SVG Export Plug-In . SVG Version: 6.00 Build 0)  -->
<svg version="1.1" id="Capa_1" xmlns="http://www.w3.org/2000/svg" xmlns:xlink="http://www.w3.org/1999/xlink" x="0px" y="0px"
	 viewBox="0 0 512 512" style="enable-background:new 0 0 512 512;" xml:space="preserve">
<style type="text/css">
	.st0{fill:#2B3A73;}
</style>
<g>
	<path class="st0" d="M256,236h40c11,0,20-9,20-20s-9-20-20-20h-20v-20c0-11-9-20-20-20s-20,9-20,20v23.4c-23.3,8.3-40,30.5-40,56.6
		c0,33.1,26.9,60,60,60c11,0,20,9,20,20s-9,20-20,20h-40c-11,0-20,9-20,20s9,20,20,20h20v20c0,11,9,20,20,20c11,0,20-9,20-20v-23.4
		c23.3-8.3,40-30.5,40-56.6c0-33.1-26.9-60-60-60c-11,0-20-9-20-20S245,236,256,236z"/>
	<g>
		<path class="st0" d="M60,436c33.1,0,60-26.9,60-60v-80c0-33.1-26.9-60-60-60S0,262.9,0,296v80C0,409.1,26.9,436,60,436z M40,296
			c0-11,9-20,20-20s20,9,20,20v80c0,11-9,20-20,20s-20-9-20-20V296z"/>
		<path class="st0" d="M452,232c-33.1,0-60,26.9-60,60v120c0,33.1-26.9,60-60,60h-80c-11,0-20,9-20,20s9,20,20,20h80
			c49.7,0,91-36.4,98.7-83.9c6.6,2.5,13.8,3.9,21.3,3.9c33.1,0,60-26.9,60-60v-80C512,258.9,485.1,232,452,232z M472,372
			c0,11-9,20-20,20s-20-9-20-20v-80c0-11,9-20,20-20s20,9,20,20V372z"/>
		<path class="st0" d="M416,206.9c11,0,20-9,20-20V180C436,80.7,355.3,0,256,0S76,80.7,76,180v6.9c0,11,9,20,20,20s20-9,20-20V180
			c0-77.2,62.8-140,140-140s140,62.8,140,140v6.9C396,197.9,405,206.9,416,206.9z"/>
	</g>
</g>
</svg>
