<?xml version="1.0" encoding="utf-8"?>
<!-- Generator: Adobe Illustrator 28.1.0, SVG Export Plug-In . SVG Version: 6.00 Build 0)  -->
<svg version="1.1" id="圖層_1" xmlns="http://www.w3.org/2000/svg" xmlns:xlink="http://www.w3.org/1999/xlink" x="0px" y="0px"
	 viewBox="0 0 32 32" style="enable-background:new 0 0 32 32;" xml:space="preserve">
<style type="text/css">
	.st0{fill:#2B3A73;}
</style>
<g>
	<path class="st0" d="M10.9,6.2c-0.7,0.1-1.3,0.3-2,0.5C2.1,8.9-1.6,16.3,0.7,23.1c0.1,0.3,0.1,0.6,0.1,0.9L0,30.9
		c0,0.3,0.1,0.6,0.3,0.8C0.5,31.9,0.8,32,1.1,32L8,31.2c0.3,0,0.6,0,0.9,0.1c1.3,0.4,2.7,0.7,4.1,0.7c1,0,2-0.1,2.9-0.3
		c6.8-1.5,11.3-8.1,10.1-15C24.8,9.6,18,4.9,10.9,6.2z M23.4,22.5c-1.9,5.8-8.1,8.9-13.9,7c-0.4-0.2-0.9-0.2-1.4-0.2
		c-0.1,0-0.3,0-0.4,0l-5.6,0.6l0.6-5.6c0.1-0.6,0-1.2-0.2-1.8c-0.2-0.6-0.3-1.1-0.4-1.7c-1-6,3.1-11.6,9.1-12.6
		C13,7.9,14.8,8,16.5,8.6C22.2,10.5,25.4,16.7,23.4,22.5z"/>
	<path class="st0" d="M19,16h-3v-3c0-0.6-0.4-1-1-1h-4c-0.6,0-1,0.4-1,1v3H7c-0.6,0-1,0.4-1,1v4c0,0.6,0.4,1,1,1h3v3
		c0,0.6,0.4,1,1,1h4c0.6,0,1-0.4,1-1v-3h3c0.6,0,1-0.4,1-1v-4C20,16.4,19.6,16,19,16z M18,20h-3c-0.6,0-1,0.4-1,1v3h-2v-3
		c0-0.6-0.4-1-1-1H8v-2h3c0.6,0,1-0.4,1-1v-3h2v3c0,0.6,0.4,1,1,1h3V20z"/>
	<path class="st0" d="M19,0c-2.5,0-5,0.7-7.1,2.1c-0.3,0.2-0.5,0.5-0.5,0.9c0,0.6,0.5,1,1,1c0.2,0,0.4-0.1,0.6-0.2
		C14.7,2.6,16.8,2,19,2c6.1,0,11,4.9,11,11c0,2.2-0.6,4.3-1.8,6.1c-0.1,0.2-0.2,0.4-0.2,0.6c0,0.6,0.4,1,1,1c0.3,0,0.7-0.2,0.8-0.5
		C31.2,18,32,15.5,32,13C32,5.8,26.2,0,19,0z"/>
</g>
</svg>
