<?xml version="1.0" encoding="utf-8"?>
<!-- Generator: Adobe Illustrator 28.1.0, SVG Export Plug-In . SVG Version: 6.00 Build 0)  -->
<svg version="1.1" id="圖層_1" xmlns="http://www.w3.org/2000/svg" xmlns:xlink="http://www.w3.org/1999/xlink" x="0px" y="0px"
	 viewBox="0 0 32 32" style="enable-background:new 0 0 32 32;" xml:space="preserve">
<style type="text/css">
	.st0{fill:#2B3A73;}
</style>
<g>
	<path class="st0" d="M31,24V7c0-1.7-1.3-3-3-3h-3c-0.6,0-1,0.4-1,1s0.4,1,1,1h3c0.6,0,1,0.4,1,1v17h-3v-5c0-2.8-2.2-5-5-5h-0.5
		c1-1.1,1.5-2.5,1.5-4V4.3c0-1.2-0.8-2.3-1.9-2.8l-3.7-1.5c-0.2-0.1-0.5-0.1-0.7,0l-3.7,1.5C10.8,2,10,3.1,10,4.3V10
		c0,1.5,0.6,2.9,1.5,4H11c-2.8,0-5,2.2-5,5v5H3V7c0-0.6,0.4-1,1-1h3c0.6,0,1-0.4,1-1S7.6,4,7,4H4C2.3,4,1,5.3,1,7v17
		c-0.6,0-1,0.4-1,1v2c0,2.8,2.2,5,5,5h22c2.8,0,5-2.2,5-5v-2C32,24.4,31.6,24,31,24z M12,4.3c0-0.4,0.3-0.8,0.6-0.9L16,2.1l3.4,1.3
		C19.7,3.6,20,3.9,20,4.3V6h-2c0-1.1-0.9-2-2-2s-2,0.9-2,2h-2V4.3z M12,8h8v2c0,2.2-1.8,4-4,4s-4-1.8-4-4V8z M8,19c0-1.7,1.3-3,3-3
		h4v2c0,0.6,0.4,1,1,1s1-0.4,1-1v-2h4c1.7,0,3,1.3,3,3v5h-5h-6H8V19z M30,27c0,1.7-1.3,3-3,3H5c-1.7,0-3-1.3-3-3v-1h10v1
		c0,0.6,0.4,1,1,1h6c0.6,0,1-0.4,1-1v-1h10V27z"/>
	<path class="st0" d="M19,21c0,0.6,0.4,1,1,1s1-0.4,1-1c0.6,0,1-0.4,1-1s-0.4-1-1-1c0-0.6-0.4-1-1-1s-1,0.4-1,1c-0.6,0-1,0.4-1,1
		S18.4,21,19,21z"/>
</g>
</svg>
