<?xml version="1.0" encoding="utf-8"?>
<!-- Generator: Adobe Illustrator 28.1.0, SVG Export Plug-In . SVG Version: 6.00 Build 0)  -->
<svg version="1.1" id="圖層_1" xmlns="http://www.w3.org/2000/svg" xmlns:xlink="http://www.w3.org/1999/xlink" x="0px" y="0px"
	 viewBox="0 0 32 32" style="enable-background:new 0 0 32 32;" xml:space="preserve">
<style type="text/css">
	.st0{fill:#2B3A73;}
</style>
<g id="_21._Clipboard">
	<path class="st0" d="M19,6h-1c0-1.1-0.9-2-2-2h-1V3c0-1.7-1.3-3-3-3S9,1.3,9,3v1H8C6.9,4,6,4.9,6,6H5C3.3,6,2,7.3,2,9v20
		c0,1.7,1.3,3,3,3l0,0h14c1.7,0,3-1.3,3-3l0,0V9C22,7.3,20.7,6,19,6z M11,3c0-0.6,0.4-1,1-1s1,0.4,1,1v1h-2V3z M8,6h8v1l0,0v1H8V6z
		 M20,29c0,0.6-0.4,1-1,1H5c-0.6,0-1-0.4-1-1V9c0-0.6,0.4-1,1-1h1c0,1.1,0.9,2,2,2h8c1.1,0,2-0.9,2-2h1c0.6,0,1,0.4,1,1V29z"/>
	<path class="st0" d="M27,6c-1.7,0-3,1.3-3,3v19c0,0.2,0.1,0.4,0.2,0.5l2,3c0.3,0.5,0.9,0.6,1.4,0.3c0.1-0.1,0.2-0.2,0.3-0.3l2-3
		c0.1-0.2,0.2-0.4,0.2-0.5V9C30,7.3,28.7,6,27,6z M27,8c0.6,0,1,0.4,1,1v2h-2V9C26,8.4,26.4,8,27,8z M27,29.2l-1-1.5V13h2v14.7
		L27,29.2z"/>
	<path class="st0" d="M14,26h-4c-0.6,0-1-0.4-1-1v-2H7c-0.6,0-1-0.4-1-1v-4c0-0.6,0.4-1,1-1h2v-2c0-0.6,0.4-1,1-1h4c0.6,0,1,0.4,1,1
		v2h2c0.6,0,1,0.4,1,1v4c0,0.6-0.4,1-1,1h-2v2C15,25.6,14.6,26,14,26z M11,24h2v-2c0-0.6,0.4-1,1-1h2v-2h-2c-0.6,0-1-0.4-1-1v-2h-2
		v2c0,0.6-0.4,1-1,1H8v2h2c0.6,0,1,0.4,1,1V24z"/>
</g>
</svg>
