<?xml version="1.0" encoding="utf-8"?>
<!-- Generator: Adobe Illustrator 28.1.0, SVG Export Plug-In . SVG Version: 6.00 Build 0)  -->
<svg version="1.1" id="圖層_1" xmlns="http://www.w3.org/2000/svg" xmlns:xlink="http://www.w3.org/1999/xlink" x="0px" y="0px"
	 viewBox="0 0 32 32" style="enable-background:new 0 0 32 32;" xml:space="preserve">
<style type="text/css">
	.st0{fill:#2B3A73;}
</style>
<g>
	<path class="st0" d="M28,22c0.6,0,1-0.4,1-1V3c0-1.7-1.3-3-3-3H7C4.8,0,3,1.8,3,4v24c0,2.2,1.8,4,4,4h4c0.6,0,1-0.4,1-1s-0.4-1-1-1
		H7c-1.1,0-2-0.9-2-2s0.9-2,2-2h20v4H15c-0.6,0-1,0.4-1,1s0.4,1,1,1h13c0.6,0,1-0.4,1-1v-6c0-0.6-0.4-1-1-1H7c-0.7,0-1.4,0.2-2,0.6
		V4c0-1.1,0.9-2,2-2h19c0.6,0,1,0.4,1,1v18C27,21.6,27.4,22,28,22z"/>
	<path class="st0" d="M25,5c0-0.6-0.4-1-1-1H10C9.4,4,9,4.4,9,5v6c0,0.6,0.4,1,1,1h14c0.6,0,1-0.4,1-1V5z M23,10H11V6h12V10z"/>
	<path class="st0" d="M25,15c0-0.6-0.4-1-1-1H10c-0.6,0-1,0.4-1,1s0.4,1,1,1h14C24.6,16,25,15.6,25,15z"/>
	<path class="st0" d="M12,18c-0.6,0-1,0.4-1,1s0.4,1,1,1h10c0.6,0,1-0.4,1-1s-0.4-1-1-1H12z"/>
</g>
</svg>
