<?xml version="1.0" encoding="utf-8"?>
<!-- Generator: Adobe Illustrator 28.1.0, SVG Export Plug-In . SVG Version: 6.00 Build 0)  -->
<svg version="1.1" id="圖層_1" xmlns="http://www.w3.org/2000/svg" xmlns:xlink="http://www.w3.org/1999/xlink" x="0px" y="0px"
	 viewBox="0 0 32 32" style="enable-background:new 0 0 32 32;" xml:space="preserve">
<style type="text/css">
	.st0{fill:#2B3A73;}
</style>
<g>
	<path class="st0" d="M19,30H5c-0.6,0-1-0.4-1-1v-2h13c0.6,0,1-0.4,1-1s-0.4-1-1-1H4V13h19c0.6,0,1-0.4,1-1v-1.2
		c0-0.8-0.3-1.6-0.9-2.1L20.4,6H21c1.1,0,2-0.9,2-2V2c0-1.1-0.9-2-2-2H5C3.9,0,3,0.9,3,2v2c0,1.1,0.9,2,2,2h0.6L2.9,8.7
		C2.3,9.3,2,10,2,10.8V29c0,1.7,1.3,3,3,3h14c0.6,0,1-0.4,1-1S19.6,30,19,30z M5,4V2h16v2H5z M4,10.8c0-0.3,0.1-0.5,0.3-0.7L8.4,6
		h9.2l4.1,4.1c0.2,0.2,0.3,0.4,0.3,0.7V11H4V10.8z"/>
	<path class="st0" d="M13,23c0.6,0,1-0.4,1-1v-2h2c0.6,0,1-0.4,1-1s-0.4-1-1-1h-2v-2c0-0.6-0.4-1-1-1s-1,0.4-1,1v2h-2
		c-0.6,0-1,0.4-1,1s0.4,1,1,1h2v2C12,22.6,12.4,23,13,23z"/>
	<path class="st0" d="M25,15c-2.8,0-5,2.2-5,5v7c0,2.8,2.2,5,5,5s5-2.2,5-5v-7C30,17.2,27.8,15,25,15z M25,17c1.7,0,3,1.3,3,3v3h-6
		v-3C22,18.3,23.3,17,25,17z M25,30c-1.7,0-3-1.3-3-3v-2h6v2C28,28.7,26.7,30,25,30z"/>
</g>
</svg>
