<?xml version="1.0" encoding="utf-8"?>
<!-- Generator: Adobe Illustrator 28.1.0, SVG Export Plug-In . SVG Version: 6.00 Build 0)  -->
<svg version="1.1" id="圖層_1" xmlns="http://www.w3.org/2000/svg" xmlns:xlink="http://www.w3.org/1999/xlink" x="0px" y="0px"
	 viewBox="0 0 32 32" style="enable-background:new 0 0 32 32;" xml:space="preserve">
<style type="text/css">
	.st0{fill:#2B3A73;}
</style>
<g>
	<path class="st0" d="M31,24V7c0-1.7-1.3-3-3-3h-1c-0.6,0-1,0.4-1,1s0.4,1,1,1h1c0.6,0,1,0.4,1,1v17H19h-6H3V7c0-0.6,0.4-1,1-1h1
		c0.6,0,1-0.4,1-1S5.6,4,5,4H4C2.3,4,1,5.3,1,7v17c-0.6,0-1,0.4-1,1v2c0,2.8,2.2,5,5,5h22c2.8,0,5-2.2,5-5v-2C32,24.4,31.6,24,31,24
		z M30,27c0,1.7-1.3,3-3,3H5c-1.7,0-3-1.3-3-3v-1h10v1c0,0.6,0.4,1,1,1h6c0.6,0,1-0.4,1-1v-1h10V27z"/>
	<path class="st0" d="M12,9.9C12,9.9,12,10,12,9.9l0,4.1c0,3.3,2.7,6,6,6s6-2.7,6-6v-1.2c1.2-0.4,2-1.6,2-2.8c0-1.7-1.3-3-3-3
		s-3,1.3-3,3c0,1.3,0.8,2.4,2,2.8V14c0,2.2-1.8,4-4,4s-4-1.8-4-4v-4c0,0,0-0.1,0-0.1c2.3-0.5,4-2.5,4-4.9V2c0-1.1-0.9-2-2-2h-1
		c-0.6,0-1,0.4-1,1s0.4,1,1,1h1v3c0,1.7-1.3,3-3,3s-3-1.3-3-3V2h1c0.6,0,1-0.4,1-1s-0.4-1-1-1h-1C8.9,0,8,0.9,8,2v3
		C8,7.4,9.7,9.4,12,9.9z M23,9c0.6,0,1,0.4,1,1s-0.4,1-1,1s-1-0.4-1-1S22.4,9,23,9z"/>
</g>
</svg>
