<?xml version="1.0" encoding="utf-8"?>
<!-- Generator: Adobe Illustrator 28.1.0, SVG Export Plug-In . SVG Version: 6.00 Build 0)  -->
<svg version="1.1" id="Capa_1" xmlns="http://www.w3.org/2000/svg" xmlns:xlink="http://www.w3.org/1999/xlink" x="0px" y="0px"
	 viewBox="0 0 512 512" style="enable-background:new 0 0 512 512;" xml:space="preserve">
<style type="text/css">
	.st0{fill:#2B3A73;}
</style>
<g id="Chat">
	<g>
		<path class="st0" d="M180,240c-11,0-20-9-20-20v-10.9c0-22.2,11.2-41.9,29.3-51.4c6.6-3.5,10.7-10.3,10.7-17.7c0-11-9-20-20-20
			s-20,9-20,20c0,11-9,20-20,20s-20-9-20-20c0-33.1,26.9-60,60-60s60,26.9,60,60c0,22.4-12.3,42.7-32.1,53.1
			c-4.7,2.5-7.9,8.9-7.9,16V220C200,231,191,240,180,240L180,240z"/>
	</g>
	<g>
		<circle class="st0" cx="180" cy="300" r="20"/>
	</g>
	<g>
		<path class="st0" d="M100,440c-11,0-20-9-20-20v-22c-45.6-9.3-80-49.7-80-98V100C0,44.9,44.9,0,100,0h160c55.1,0,100,44.9,100,100
			v200c0,55.1-44.9,100-100,100h-80.4C160.8,424.9,131.3,440,100,440z M100,40c-33.1,0-60,26.9-60,60v200c0,33.1,26.9,60,60,60
			c11,0,20,9,20,20v16.6c13.1-4.7,24.2-13.9,31.6-26.6c3.6-6.2,10.2-9.9,17.3-9.9H260c33.1,0,60-26.9,60-60V100
			c0-33.1-26.9-60-60-60H100z"/>
	</g>
	<g>
		<path class="st0" d="M412,512c-31.3,0-60.8-15.1-79.6-40H252c-11,0-20-9-20-20s9-20,20-20h91.1c7.1,0,13.7,3.8,17.3,9.9
			c7.4,12.7,18.6,21.9,31.6,26.6V452c0-11,9-20,20-20c33.1,0,60-26.9,60-60V172c0-33.1-26.9-60-60-60c-11,0-20-9-20-20s9-20,20-20
			c55.1,0,100,44.9,100,100v200c0,48.3-34.4,88.7-80,98v22C432,503,423,512,412,512z"/>
	</g>
</g>
</svg>
