<?xml version="1.0" encoding="utf-8"?>
<!-- Generator: Adobe Illustrator 28.1.0, SVG Export Plug-In . SVG Version: 6.00 Build 0)  -->
<svg version="1.1" id="Capa_1" xmlns="http://www.w3.org/2000/svg" xmlns:xlink="http://www.w3.org/1999/xlink" x="0px" y="0px"
	 viewBox="0 0 512 512" style="enable-background:new 0 0 512 512;" xml:space="preserve">
<style type="text/css">
	.st0{fill:#2B3A73;}
</style>
<g id="Group">
	<g>
		<path class="st0" d="M485,401.9c0.4-28.6-5.4-52.1-17.3-70.2c-6.1-9.2-18.5-11.7-27.7-5.6c-9.2,6.1-11.7,18.5-5.6,27.7
			c6.2,9.4,9.8,22.6,10.5,38.7c-27.3,3.3-49.1,25-52.4,52.4c-16.1-0.8-29.3-4.3-38.7-10.5c-9.2-6.1-21.6-3.6-27.7,5.6
			c-6.1,9.2-3.6,21.6,5.6,27.7c17.5,11.5,40.1,17.4,67.4,17.4c0.9,0,1.9,0,2.8,0c10.7,16.3,29.2,27,50.1,27c33.1,0,60-26.9,60-60
			C512,431.1,501.2,412.6,485,401.9z M452,472c-11,0-20-9-20-20s9-20,20-20s20,9,20,20S463,472,452,472z"/>
		<g>
			<path class="st0" d="M436,256c0-16-6.2-31.1-17.6-42.4l-31.7-31.7c-7.8-7.8-20.5-7.8-28.3,0s-7.8,20.5,0,28.3l31.7,31.7
				c3.8,3.8,5.9,8.8,5.9,14.1c0,5.3-2.1,10.4-5.9,14.1l-120,120c-3.8,3.8-8.8,5.9-14.1,5.9s-10.4-2.1-14.1-5.9l-120-120
				c-3.8-3.8-5.9-8.8-5.9-14.1s2.1-10.4,5.9-14.1l120-120c3.8-3.8,8.8-5.9,14.1-5.9c5.3,0,10.4,2.1,14.1,5.9l31.7,31.7
				c7.8,7.8,20.5,7.8,28.3,0s7.8-20.5,0-28.3l-31.7-31.7C287.1,82.2,272,76,256,76s-31.1,6.2-42.4,17.6l-120,120
				C82.2,224.9,76,240,76,256s6.2,31.1,17.6,42.4l120,120C224.9,429.8,240,436,256,436s31.1-6.2,42.4-17.6l120-120
				C429.8,287.1,436,272,436,256z"/>
			<path class="st0" d="M77.7,158.2c-6.2-9.4-9.8-22.6-10.5-38.7c27.3-3.3,49.1-25,52.4-52.4c16.1,0.8,29.3,4.3,38.7,10.5
				c3.4,2.2,7.2,3.3,11,3.3c6.5,0,12.9-3.2,16.7-9c6.1-9.2,3.6-21.6-5.6-27.7c-18.1-11.9-41.6-17.7-70.2-17.3C99.4,10.8,80.9,0,60,0
				C26.9,0,0,26.9,0,60c0,20.9,10.8,39.4,27,50.1c-0.4,28.6,5.4,52.1,17.3,70.2c6.1,9.2,18.5,11.8,27.7,5.6
				C81.3,179.9,83.8,167.4,77.7,158.2L77.7,158.2z M60,40c11,0,20,9,20,20s-9,20-20,20s-20-9-20-20S49,40,60,40z"/>
		</g>
	</g>
	<g>
		<path class="st0" d="M512,60c0-33.1-26.9-60-60-60c-20.9,0-39.4,10.8-50.1,27c-28.6-0.4-52.1,5.4-70.2,17.3
			c-9.2,6.1-11.7,18.5-5.6,27.7c3.8,5.8,10.2,9,16.7,9c3.8,0,7.6-1.1,11-3.3c9.4-6.2,22.6-9.8,38.7-10.5c3.3,27.3,25,49.1,52.4,52.4
			c-0.8,16.1-4.3,29.3-10.5,38.7c-6.1,9.2-3.6,21.6,5.6,27.7c9.2,6.1,21.6,3.5,27.7-5.6c11.9-18.1,17.7-41.6,17.3-70.2
			C501.2,99.4,512,80.9,512,60L512,60z M432,60c0-11,9-20,20-20s20,9,20,20s-9,20-20,20S432,71,432,60z"/>
		<path class="st0" d="M158.2,434.3c-9.4,6.2-22.6,9.8-38.7,10.5c-3.3-27.3-25-49.1-52.4-52.4c0.8-16.1,4.3-29.3,10.5-38.7
			c6.1-9.2,3.6-21.6-5.6-27.7c-9.2-6.1-21.6-3.6-27.7,5.6c-11.9,18.1-17.7,41.6-17.3,70.2C10.8,412.6,0,431.1,0,452
			c0,33.1,26.9,60,60,60c20.9,0,39.4-10.8,50.1-27c0.9,0,1.9,0,2.8,0c27.3,0,49.9-5.8,67.4-17.4c9.2-6.1,11.7-18.5,5.6-27.7
			C179.9,430.7,167.4,428.2,158.2,434.3z M60,472c-11,0-20-9-20-20s9-20,20-20s20,9,20,20S71,472,60,472z"/>
	</g>
</g>
</svg>
