<?xml version="1.0" encoding="utf-8"?>
<!-- Generator: Adobe Illustrator 28.1.0, SVG Export Plug-In . SVG Version: 6.00 Build 0)  -->
<svg version="1.1" id="Capa_1" xmlns="http://www.w3.org/2000/svg" xmlns:xlink="http://www.w3.org/1999/xlink" x="0px" y="0px"
	 viewBox="0 0 512 512" style="enable-background:new 0 0 512 512;" xml:space="preserve">
<style type="text/css">
	.st0{fill:#2B3A73;}
</style>
<g>
	<g>
		<path class="st0" d="M165.9,101.9L130,137.7l-15.9-15.9c-7.8-7.8-20.5-7.8-28.3,0s-7.8,20.5,0,28.3l30,30c3.9,3.9,9,5.9,14.1,5.9
			c5.1,0,10.2-2,14.1-5.9l50-50c7.8-7.8,7.8-20.5,0-28.3S173.7,94,165.9,101.9z"/>
		<path class="st0" d="M165.9,221.9L130,257.7l-15.9-15.9c-7.8-7.8-20.5-7.8-28.3,0s-7.8,20.5,0,28.3l30,30c3.9,3.9,9,5.9,14.1,5.9
			c5.1,0,10.2-2,14.1-5.9l50-50c7.8-7.8,7.8-20.5,0-28.3S173.7,214,165.9,221.9z"/>
		<path class="st0" d="M165.9,341.9L130,377.7l-15.9-15.9c-7.8-7.8-20.5-7.8-28.3,0s-7.8,20.5,0,28.3l30,30c3.9,3.9,9,5.9,14.1,5.9
			c5.1,0,10.2-2,14.1-5.9l50-50c7.8-7.8,7.8-20.5,0-28.3S173.7,334,165.9,341.9z"/>
	</g>
	<path class="st0" d="M100,512h192c55.1,0,100-44.9,100-100v-18.9c5.8-2.1,11.5-4.6,16.8-7.5l67.4,86.6c6.8,8.7,19.3,10.3,28.1,3.5
		c8.7-6.8,10.3-19.3,3.5-28.1l-67.4-86.7C460,339.7,472,311.2,472,280c0-66.2-53.8-120-120-120s-120,53.8-120,120s53.8,120,120,120
		v12c0,33.1-26.9,60-60,60H100c-33.1,0-60-26.9-60-60V100c0-33.1,26.9-60,60-60h192c33.1,0,60,26.9,60,60v1.1c0,11,9,20,20,20
		s20-9,20-20V100C392,44.9,347.1,0,292,0H100C44.9,0,0,44.9,0,100v312C0,467.1,44.9,512,100,512L100,512z M272,280
		c0-44.1,35.9-80,80-80s80,35.9,80,80s-35.9,80-80,80S272,324.1,272,280z"/>
</g>
</svg>
