<?xml version="1.0" encoding="utf-8"?>
<!-- Generator: Adobe Illustrator 28.1.0, SVG Export Plug-In . SVG Version: 6.00 Build 0)  -->
<svg version="1.1" id="Layer_1" xmlns="http://www.w3.org/2000/svg" xmlns:xlink="http://www.w3.org/1999/xlink" x="0px" y="0px"
	 viewBox="0 0 512 512" style="enable-background:new 0 0 512 512;" xml:space="preserve">
<style type="text/css">
	.st0{fill:#2B3A73;}
</style>
<g>
	<path class="st0" d="M428.4,512c-11,0-20-8.9-20-20V368.1c-0.9-73.2,49.4-96.4,51-154.9C466-19.6,98.3-15.2,103,209.6
		c0,4.4-1.5,8.7-4.2,12.2c-20.4,26.4-35.4,48.6-44.6,66.1c-3,5.8-0.7,10.8,0.4,12.7c1.2,1.9,4.6,6.4,11.3,6.4
		c18.7,0,34.1,14.1,35.7,32.8l4.3,50.5c1.6,19.2,17.4,33.7,36.7,33.7h17c33.1,0,60,26.9,60,60v8c0,11-8.9,20-20,20s-20-8.9-20-20v-8
		c0-11-9-20-20-20h-17c-38.8,0.7-73.9-31.5-76.5-70.2c0,0-4-46.8-4-46.8c-37.3-1.9-61.4-44.6-43.4-77.5
		c9.7-18.6,24.3-40.5,44.3-66.8C64.3,40.9,227.6-34.3,369.5,14.9c83,30.8,130.1,105.6,129.8,198.3c0.6,68.2-50.3,90.7-51,154.9
		c0,0,0,123.9,0,123.9C448.4,503.1,439.4,512,428.4,512z"/>
	<path class="st0" d="M347.5,284.4c0-34.3-30.7-62.3-68.5-62.3c-18.5,0-32.4-9.6-32.4-22.3c0-12.1,10.4-22.3,22.6-22.3
		c9.6,0,23.7,1.2,47,10.3c10.3,4,21.9-1,25.9-11.3c4-10.3-1-21.9-11.3-25.9c-12.5-4.9-23.2-8-32.3-9.9v-20.5c0-11-8.9-20-20-20
		s-20,8.9-20,20v18.2c-29.5,5-52,30.6-52,61.3c-0.3,37.4,35.5,63,72.4,62.3c15.5,0,28.5,10.2,28.5,22.3c0,11.9-11.1,22.3-23.7,22.3
		c-7.1,0-29-3-51.9-12.1c-10.2-4.1-21.9,0.9-26,11.1c-4.1,10.2,0.9,21.9,11.1,26c14.2,5.7,28.8,9.7,41.4,12.1v16.3
		c0,11,8.9,20,20,20c11,0,20-8.9,20-20v-15.2C325.8,338.9,348,312.5,347.5,284.4L347.5,284.4z"/>
</g>
</svg>
