<?xml version="1.0" encoding="utf-8"?>
<!-- Generator: Adobe Illustrator 28.1.0, SVG Export Plug-In . SVG Version: 6.00 Build 0)  -->
<svg version="1.1" id="Capa_1" xmlns="http://www.w3.org/2000/svg" xmlns:xlink="http://www.w3.org/1999/xlink" x="0px" y="0px"
	 viewBox="0 0 512 512" style="enable-background:new 0 0 512 512;" xml:space="preserve">
<style type="text/css">
	.st0{fill:#2B3A73;}
</style>
<g>
	<g>
		<circle class="st0" cx="176" cy="396" r="20"/>
		<path class="st0" d="M187.8,252.1c-19.9,14.7-31.8,38.2-31.8,62.9v0.9c0,11,9,20,20,20s20-9,20-20v-0.9c0-12.1,5.8-23.5,15.5-30.7
			C226.9,273.1,236,255,236,236c0-33.1-26.9-60-60-60s-60,26.9-60,60c0,11,9,20,20,20s20-9,20-20c0-11,9-20,20-20s20,9,20,20
			C196,242.4,193,248.3,187.8,252.1L187.8,252.1z"/>
		<path class="st0" d="M356,60c0-33.1-26.9-60-60-60h-80c-26.1,0-48.3,16.7-56.6,40H96c-33.1,0-60,26.9-60,60v352
			c0,33.1,26.9,60,60,60h320c33.1,0,60-26.9,60-60V100c0-33.1-26.9-60-60-60c-11,0-20,9-20,20s9,20,20,20c11,0,20,9,20,20v352
			c0,11-9,20-20,20H96c-11,0-20-9-20-20V100c0-11,9-20,20-20h63.4c8.3,23.3,30.5,40,56.6,40h80C329.1,120,356,93.1,356,60z M196,60
			c0-11,9-20,20-20h80c11,0,20,9,20,20s-9,20-20,20h-80C205,80,196,71,196,60z"/>
	</g>
	<path class="st0" d="M376,196h-80c-11,0-20,9-20,20s9,20,20,20h80c11,0,20-9,20-20S387,196,376,196z"/>
	<path class="st0" d="M376,276h-80c-11,0-20,9-20,20s9,20,20,20h80c11,0,20-9,20-20S387,276,376,276z"/>
	<path class="st0" d="M376,356h-80c-11,0-20,9-20,20s9,20,20,20h80c11,0,20-9,20-20S387,356,376,356z"/>
</g>
</svg>
