<?xml version="1.0" encoding="utf-8"?>
<!-- Generator: Adobe Illustrator 28.1.0, SVG Export Plug-In . SVG Version: 6.00 Build 0)  -->
<svg version="1.1" id="Capa_1" xmlns="http://www.w3.org/2000/svg" xmlns:xlink="http://www.w3.org/1999/xlink" x="0px" y="0px"
	 viewBox="0 0 512 512" style="enable-background:new 0 0 512 512;" xml:space="preserve">
<style type="text/css">
	.st0{fill:#2B3A73;}
</style>
<g>
	<path class="st0" d="M276,388.9v-200c0-11-9-20-20-20s-20,9-20,20v200c0,11,9,20,20,20C267,408.9,276,399.9,276,388.9z"/>
	<g>
		<path class="st0" d="M452,8.9h-76c-40.3,0-78.6,17.3-105.2,47.5c-7.9,9-21.6,9.1-29.7,0C214.6,26.2,176.3,8.9,136,8.9H60
			c-33.1,0-60,26.9-60,60v320c0,33.1,26.9,60,60,60h76c28.8,0,56.2,12.4,75.1,33.9c23.8,27.1,65.8,27.2,89.7,0
			c19-21.5,46.3-33.9,75.1-33.9h76c33.1,0,60-26.9,60-60v-320C512,35.8,485.1,8.9,452,8.9L452,8.9z M472,388.9c0,11-9,20-20,20h-76
			c-40.3,0-78.6,17.3-105.2,47.5c-7.9,9-21.6,9.1-29.7,0c-26.6-30.2-64.9-47.5-105.2-47.5H60c-11,0-20-9-20-20v-320c0-11,9-20,20-20
			h76c28.8,0,56.2,12.4,75.1,33.9c23.8,27,65.8,27.2,89.7,0c19-21.5,46.3-33.9,75.1-33.9h76c11,0,20,9,20,20L472,388.9z"/>
		<path class="st0" d="M412,128.9h-40c-16,0-31.7,2.7-46.6,7.9c-10.4,3.7-15.9,15.1-12.2,25.5c3.7,10.4,15.1,15.9,25.5,12.2
			c10.7-3.8,21.9-5.7,33.4-5.7h40c11,0,20-9,20-20S423,128.9,412,128.9z"/>
		<path class="st0" d="M186.6,136.8c-14.9-5.3-30.6-7.9-46.6-7.9h-40c-11,0-20,9-20,20s9,20,20,20h40c11.5,0,22.7,1.9,33.4,5.7
			c10.5,3.7,21.9-1.8,25.5-12.2C202.5,151.9,197.1,140.5,186.6,136.8z"/>
		<path class="st0" d="M412,208.9h-40c-16,0-31.7,2.7-46.6,7.9c-10.4,3.7-15.9,15.1-12.2,25.5c3.7,10.4,15.1,15.9,25.5,12.2
			c10.7-3.8,21.9-5.7,33.4-5.7h40c11,0,20-9,20-20S423,208.9,412,208.9z"/>
		<path class="st0" d="M186.6,216.8c-14.9-5.3-30.6-7.9-46.6-7.9h-40c-11,0-20,9-20,20s9,20,20,20h40c11.5,0,22.7,1.9,33.4,5.7
			c10.5,3.7,21.9-1.8,25.5-12.2C202.5,231.9,197.1,220.5,186.6,216.8z"/>
		<path class="st0" d="M412,288.9h-40c-16,0-31.7,2.7-46.6,7.9c-10.4,3.7-15.9,15.1-12.2,25.5c3.7,10.4,15.1,15.9,25.5,12.2
			c10.7-3.8,21.9-5.7,33.4-5.7h40c11,0,20-9,20-20S423,288.9,412,288.9L412,288.9z"/>
		<path class="st0" d="M186.6,296.8c-14.9-5.3-30.6-7.9-46.6-7.9h-40c-11,0-20,9-20,20s9,20,20,20h40c11.5,0,22.7,1.9,33.4,5.7
			c10.5,3.7,21.9-1.8,25.5-12.2C202.5,311.9,197.1,300.5,186.6,296.8L186.6,296.8z"/>
	</g>
</g>
</svg>
