<?xml version="1.0" encoding="utf-8"?>
<!-- Generator: Adobe Illustrator 28.1.0, SVG Export Plug-In . SVG Version: 6.00 Build 0)  -->
<svg version="1.1" id="Capa_1" xmlns="http://www.w3.org/2000/svg" xmlns:xlink="http://www.w3.org/1999/xlink" x="0px" y="0px"
	 viewBox="0 0 512 512" style="enable-background:new 0 0 512 512;" xml:space="preserve">
<style type="text/css">
	.st0{fill:#2B3A73;}
</style>
<g>
	<g>
		<path class="st0" d="M125.2,302.9c19.8,20.9,30.8,48.2,30.8,77.1c0,33.1,26.9,60,60,60h80c33.1,0,60-26.9,60-60.1
			c0-28.8,10.9-56.1,30.8-77C418.5,269.5,436,225.8,436,180C436,65.3,329.8-22.1,213.1,5C148.8,19.9,97.2,71,81.5,135.1
			C66,198.3,84.1,259.6,125.2,302.9z M120.3,144.6C132.5,95,172.4,55.5,222.1,43.9C313.2,22.8,396,90.5,396,180
			c0,35.5-13.6,69.4-38.2,95.4C330.8,303.7,316,340.9,316,380c0,11-9,20-20,20h-80c-11,0-20-9-20-20.1c0-39.1-14.8-76.2-41.8-104.6
			C120.9,240.3,108.6,192.7,120.3,144.6L120.3,144.6z"/>
		<ellipse class="st0" cx="42.5" cy="281.4" rx="20" ry="20"/>
		<ellipse class="st0" cx="469.7" cy="78.6" rx="20" ry="20"/>
		<path class="st0" d="M34,96.7c10,4.7,21.9,0.3,26.6-9.7c4.7-10,0.3-21.9-9.7-26.6c-10-4.7-21.9-0.3-26.6,9.7S24,92,34,96.7z"/>
		<ellipse class="st0" cx="469.4" cy="281.4" rx="20" ry="20"/>
		<circle class="st0" cx="20" cy="180" r="20"/>
		<circle class="st0" cx="492" cy="180" r="20"/>
		<path class="st0" d="M216,472c-11,0-20,9-20,20s9,20,20,20h80c11,0,20-9,20-20s-9-20-20-20H216z"/>
	</g>
	<path class="st0" d="M256,240c11,0,20-9,20-20v-80c0-11-9-20-20-20s-20,9-20,20v80C236,231,245,240,256,240z"/>
	<circle class="st0" cx="256" cy="300" r="20"/>
</g>
</svg>
