<?xml version="1.0" encoding="utf-8"?>
<!-- Generator: Adobe Illustrator 28.1.0, SVG Export Plug-In . SVG Version: 6.00 Build 0)  -->
<svg version="1.1" id="圖層_1" xmlns="http://www.w3.org/2000/svg" xmlns:xlink="http://www.w3.org/1999/xlink" x="0px" y="0px"
	 viewBox="0 0 32 32" style="enable-background:new 0 0 32 32;" xml:space="preserve">
<style type="text/css">
	.st0{fill:#2B3A73;}
</style>
<g>
	<path class="st0" d="M32,16.8c-0.1-0.3-0.2-0.5-0.5-0.7c-2.1-1.4-4.9-1-6.5,0.9l-3.2,3.7C21.2,19.1,19.7,18,18,18h-0.9
		c-0.5,0-1-0.2-1.4-0.4c-3.7-2.5-8.7-2-11.8,1.2l-3.6,3.5c-0.4,0.4-0.4,1,0,1.4c0.4,0.4,1,0.4,1.4,0l3.5-3.6
		c2.5-2.5,6.4-2.9,9.3-0.9c0.7,0.5,1.6,0.8,2.5,0.8H18c1.1,0,2,0.9,2,2h-7c-0.6,0-1,0.4-1,1s0.4,1,1,1h8c0.3,0,0.6-0.1,0.7-0.3
		l4.7-5.4c0.7-0.8,1.9-1.2,3-0.9l-7,9.4C21.8,27.6,20.9,28,20,28h-8.3c-1.3,0-2.6,0.5-3.5,1.5l-0.8,0.8c-0.4,0.4-0.4,1,0,1.4
		c0,0,0,0,0,0c0.4,0.4,1,0.4,1.4,0c0,0,0,0,0,0l0.8-0.8c0.6-0.6,1.3-0.9,2.1-0.9H20c1.6,0,3.1-0.7,4-2l7.8-10.4
		C32,17.4,32,17.1,32,16.8z"/>
	<path class="st0" d="M14,10h3v3c0,0.6,0.4,1,1,1h4c0.6,0,1-0.4,1-1v-3h3c0.6,0,1-0.4,1-1V5c0-0.6-0.4-1-1-1h-3V1c0-0.6-0.4-1-1-1
		h-4c-0.6,0-1,0.4-1,1v3h-3c-0.6,0-1,0.4-1,1v4C13,9.6,13.4,10,14,10z M15,6h3c0.6,0,1-0.4,1-1V2h2v3c0,0.6,0.4,1,1,1h3v2h-3
		c-0.6,0-1,0.4-1,1v3h-2V9c0-0.6-0.4-1-1-1h-3V6z"/>
</g>
</svg>
