<?xml version="1.0" encoding="utf-8"?>
<!-- Generator: Adobe Illustrator 28.1.0, SVG Export Plug-In . SVG Version: 6.00 Build 0)  -->
<svg version="1.1" id="Capa_1" xmlns="http://www.w3.org/2000/svg" xmlns:xlink="http://www.w3.org/1999/xlink" x="0px" y="0px"
	 viewBox="0 0 512 512" style="enable-background:new 0 0 512 512;" xml:space="preserve">
<style type="text/css">
	.st0{fill:#2B3A73;}
</style>
<g>
	<path class="st0" d="M376,160H276v-20c0-11-9-20-20-20c-11,0-20,9-20,20v20H136c-11,0-20,9-20,20s9,20,20,20h20v60c0,11,9,20,20,20
		s20-9,20-20v-60h40v120h-20c-11,0-20,9-20,20c0,11,9,20,20,20h80c11,0,20-9,20-20c0-11-9-20-20-20h-20V200h40v60c0,11,9,20,20,20
		c11,0,20-9,20-20v-60h20c11,0,20-9,20-20S387,160,376,160z"/>
	<path class="st0" d="M429.8,76.3c-21.9-6.2-41.8-19.2-62.9-33C334.6,22,301,0,256,0s-78.6,22-111,43.3
		c-21.1,13.8-40.9,26.9-62.9,33C54.6,84.1,36,107.5,36,134.6V248c0,62,21.6,122.5,60.9,170.4c39.3,47.9,94.4,81,155.2,93.2
		c1.3,0.3,2.6,0.4,3.9,0.4c1.3,0,2.6-0.1,3.9-0.4c60.8-12.2,115.9-45.2,155.2-93.2C454.4,370.5,476,310,476,248V134.6
		C476,107.5,457.4,84.1,429.8,76.3z M436,248c0,107.3-75.5,200.7-180,223.5C151.5,448.7,76,355.4,76,248V134.6
		c0-11.1,9.2-17.5,17-19.7c27.9-7.8,51.3-23.2,74-38.1c28.8-18.9,56-36.7,89-36.7s60.3,17.8,89,36.7c22.7,14.9,46.1,30.3,74,38.1
		c7.8,2.2,17,8.7,17,19.7V248z"/>
</g>
</svg>
