<?xml version="1.0" encoding="utf-8"?>
<!-- Generator: Adobe Illustrator 28.1.0, SVG Export Plug-In . SVG Version: 6.00 Build 0)  -->
<svg version="1.1" id="Capa_1" xmlns="http://www.w3.org/2000/svg" xmlns:xlink="http://www.w3.org/1999/xlink" x="0px" y="0px"
	 viewBox="0 0 512 512" style="enable-background:new 0 0 512 512;" xml:space="preserve">
<style type="text/css">
	.st0{fill:#2B3A73;}
</style>
<g>
	<path class="st0" d="M452,36h-80c-32.9,0-64.9,11.9-90.2,33.5c-3.5,3-8.9,6.5-14.9,6.5H252c-33.1,0-60,26.9-60,60v80
		c0,33.1,26.9,60,60,60h14.9c6,0,11.4,3.6,14.9,6.5c25.3,21.6,57.3,33.5,90.2,33.5h80c33.1,0,60-26.9,60-60V96
		C512,62.9,485.1,36,452,36z M472,256c0,11-9,20-20,20h-80c-23.7,0-45.9-8.3-64.2-23.9c-12.4-10.5-26.5-16.1-40.9-16.1H252
		c-11,0-20-9-20-20v-80c0-11,9-20,20-20h14.9c14.4,0,28.5-5.6,40.9-16.1C326.1,84.3,348.3,76,372,76h80c11,0,20,9,20,20V256z"/>
	<path class="st0" d="M412,356H268.6c-8.3-23.3-30.5-40-56.6-40H60c-33.1,0-60,26.9-60,60c0,55.1,44.9,100,100,100h72
		c48.3,0,88.7-34.4,98-80h142c11,0,20-9,20-20C432,365,423,356,412,356z M172,436h-72c-33.1,0-60-26.9-60-60c0-11,9-20,20-20h152
		c11,0,20,9,20,20C232,409.1,205.1,436,172,436z"/>
	<path class="st0" d="M96,276c11,0,20-9,20-20v-40c0-11,9-20,20-20c11,0,20-9,20-20s-9-20-20-20c-33.1,0-60,26.9-60,60v40
		C76,267,85,276,96,276z"/>
	<path class="st0" d="M412,156h-20v-20c0-11-9-20-20-20c-11,0-20,9-20,20v20h-20c-11,0-20,9-20,20s9,20,20,20h20v20c0,11,9,20,20,20
		c11,0,20-9,20-20v-20h20c11,0,20-9,20-20S423,156,412,156z"/>
</g>
</svg>
