<?xml version="1.0" encoding="utf-8"?>
<!-- Generator: Adobe Illustrator 28.1.0, SVG Export Plug-In . SVG Version: 6.00 Build 0)  -->
<svg version="1.1" id="Capa_1" xmlns="http://www.w3.org/2000/svg" xmlns:xlink="http://www.w3.org/1999/xlink" x="0px" y="0px"
	 viewBox="0 0 512 512" style="enable-background:new 0 0 512 512;" xml:space="preserve">
<style type="text/css">
	.st0{fill:#2B3A73;}
</style>
<g>
	<path class="st0" d="M352.1,329.6c-23.4-23.4-61.5-23.4-84.9,0c-3.8,3.8-8.8,5.9-14.1,5.9c-5.3,0-10.4-2.1-14.1-5.9L182.4,273
		c-3.8-3.8-5.9-8.8-5.9-14.1s2.1-10.4,5.9-14.1c23.4-23.4,23.4-61.5,0-84.9l-56.6-56.6c-23.4-23.4-61.5-23.4-84.9,0
		c-26.4,26.4-41,61.6-41,99c0,37.4,14.6,72.6,41,99L210.7,471c27.3,27.3,63.1,40.9,99,40.9c35.9,0,71.7-13.6,99-40.9
		c23.4-23.4,23.4-61.5,0-84.9L352.1,329.6z M380.4,442.7c-39,39-102.4,39-141.4,0L69.3,273C50.4,254.2,40,229,40,202.3
		s10.4-51.8,29.3-70.7c3.9-3.9,9-5.8,14.1-5.8c5.1,0,10.2,2,14.1,5.8l56.6,56.6c3.8,3.8,5.9,8.8,5.9,14.1s-2.1,10.4-5.9,14.1
		c-11.3,11.3-17.6,26.4-17.6,42.4c0,16,6.2,31.1,17.6,42.4l56.6,56.6c23.4,23.4,61.5,23.4,84.9,0c3.8-3.8,8.8-5.9,14.1-5.9
		c5.3,0,10.4,2.1,14.1,5.9l56.6,56.6C388.2,422.3,388.2,434.9,380.4,442.7z"/>
	<path class="st0" d="M492,0H252c-11,0-20,9-20,20v200c0,8.1,4.9,15.4,12.3,18.5c7.5,3.1,16.1,1.4,21.8-4.3l34.1-34.1H492
		c11,0,20-9,20-20V20C512,9,503,0,492,0z M472,160H292c-5.3,0-10.4,2.1-14.1,5.9l-5.9,5.9V40h200V160z"/>
	<circle class="st0" cx="332" cy="100" r="20"/>
	<circle class="st0" cx="412" cy="100" r="20"/>
</g>
</svg>
