<?xml version="1.0" encoding="utf-8"?>
<!-- Generator: Adobe Illustrator 28.1.0, SVG Export Plug-In . SVG Version: 6.00 Build 0)  -->
<svg version="1.1" id="Layer_1" xmlns="http://www.w3.org/2000/svg" xmlns:xlink="http://www.w3.org/1999/xlink" x="0px" y="0px"
	 viewBox="0 0 512 512" style="enable-background:new 0 0 512 512;" xml:space="preserve">
<style type="text/css">
	.st0{fill:#2B3A73;}
</style>
<g>
	<path class="st0" d="M492,219c-11,0-20,9-20,20v73c0,44.1-35.9,80-80,80H120c-44.1,0-80-35.9-80-80V148c0-44.1,35.9-80,80-80h134
		c11,0,20-9,20-20s-9-20-20-20H120C53.8,28,0,81.8,0,148v164c0,66.2,53.8,120,120,120h272c66.2,0,120-53.8,120-120v-73
		C512,228,503,219,492,219z"/>
	<path class="st0" d="M261,166c0-34.7-28.3-63-63-63c-34.7,0-63,28.3-63,63c0,34.7,28.3,63,63,63C232.7,229,261,200.7,261,166z
		 M175,166c0-12.7,10.3-23,23-23s23,10.3,23,23s-10.3,23-23,23S175,178.7,175,166z"/>
	<path class="st0" d="M352,472H160c-11,0-20,9-20,20c0,11,9,20,20,20h192c11,0,20-9,20-20C372,481,363,472,352,472z"/>
	<path class="st0" d="M109,331c0,11,9,20,20,20s20-9,20-20c0-22.1,18.1-40,40.4-40h11.2c22.3,0,40.4,17.9,40.4,40c0,11,9,20,20,20
		s20-9,20-20c0-44.1-36.1-80-80.4-80h-11.2C145.1,251,109,286.9,109,331z"/>
	<path class="st0" d="M313.3,209.5c2.5,1,5.1,1.5,7.7,1.5c13.2,0,17.4-13,29.3-13v0c3,0,6,0.9,8.9,2.1c29.1,11.7,47,11,47,11
		c28.1,0,54.5-10.8,74.4-30.4c20-19.7,31.2-46,31.4-74c0.3-28.5-10.6-55.3-30.5-75.4C461.6,11.1,435,0,406.5,0
		c-28.3,0-54.9,11.1-74.9,31.3c-20,20.2-30.9,46.8-30.6,75.1l0,84.6C301,199.1,305.9,206.4,313.3,209.5z M341,106.1
		c-0.2-17.5,6.6-34.1,19-46.7C372.5,46.9,389,40,406.5,40c17.7,0,34.3,6.8,46.6,19.3c12.4,12.5,19.1,29.1,18.9,46.9
		c-0.3,35.8-29.9,64.9-65.9,64.9c0,0,0,0,0,0c0,0,0,0,0,0c-10.3,0-20.1-2.3-29.1-6.8c-11.4-5.7-24-7.4-36-5.5l0-52.4
		C341,106.3,341,106.2,341,106.1z"/>
</g>
</svg>
