<?xml version="1.0" encoding="utf-8"?>
<!-- Generator: Adobe Illustrator 28.1.0, SVG Export Plug-In . SVG Version: 6.00 Build 0)  -->
<svg version="1.1" id="圖層_1" xmlns="http://www.w3.org/2000/svg" xmlns:xlink="http://www.w3.org/1999/xlink" x="0px" y="0px"
	 viewBox="0 0 32 32" style="enable-background:new 0 0 32 32;" xml:space="preserve">
<style type="text/css">
	.st0{fill:#2B3A73;}
</style>
<g>
	<path class="st0" d="M31,15c0.6,0,1-0.4,1-1V6c0-1.7-1.3-3-3-3h-6c-0.8,0-1.5,0.3-2,0.8C20.5,3.3,19.8,3,19,3h-6
		c-0.8,0-1.5,0.3-2,0.8C10.5,3.3,9.8,3,9,3H3C1.3,3,0,4.3,0,6v4c0,0.6,0.4,1,1,1s1-0.4,1-1V6c0-0.6,0.4-1,1-1h6c0.6,0,1,0.4,1,1v20
		c0,0.6-0.4,1-1,1H3c-0.6,0-1-0.4-1-1V14c0-0.6-0.4-1-1-1s-1,0.4-1,1v12c0,1.7,1.3,3,3,3h6c0.8,0,1.5-0.3,2-0.8
		c0.5,0.5,1.2,0.8,2,0.8h6c0.8,0,1.5-0.3,2-0.8c0.5,0.5,1.2,0.8,2,0.8h6c1.7,0,3-1.3,3-3v-8c0-0.6-0.4-1-1-1s-1,0.4-1,1v8
		c0,0.6-0.4,1-1,1h-6c-0.6,0-1-0.4-1-1V6c0-0.6,0.4-1,1-1h6c0.6,0,1,0.4,1,1v8C30,14.6,30.4,15,31,15z M19,27h-6c-0.6,0-1-0.4-1-1V6
		c0-0.6,0.4-1,1-1h6c0.6,0,1,0.4,1,1v20C20,26.6,19.6,27,19,27z"/>
	<path class="st0" d="M5,9h2c0.6,0,1-0.4,1-1S7.6,7,7,7H5C4.4,7,4,7.4,4,8S4.4,9,5,9z"/>
	<path class="st0" d="M5,13h2c0.6,0,1-0.4,1-1s-0.4-1-1-1H5c-0.6,0-1,0.4-1,1S4.4,13,5,13z"/>
	<path class="st0" d="M5,17h2c0.6,0,1-0.4,1-1s-0.4-1-1-1H5c-0.6,0-1,0.4-1,1S4.4,17,5,17z"/>
	<circle class="st0" cx="6" cy="23" r="2"/>
	<path class="st0" d="M17,7h-2c-0.6,0-1,0.4-1,1s0.4,1,1,1h2c0.6,0,1-0.4,1-1S17.6,7,17,7z"/>
	<path class="st0" d="M17,11h-2c-0.6,0-1,0.4-1,1s0.4,1,1,1h2c0.6,0,1-0.4,1-1S17.6,11,17,11z"/>
	<path class="st0" d="M17,15h-2c-0.6,0-1,0.4-1,1s0.4,1,1,1h2c0.6,0,1-0.4,1-1S17.6,15,17,15z"/>
	<circle class="st0" cx="16" cy="23" r="2"/>
	<path class="st0" d="M27,7h-2c-0.6,0-1,0.4-1,1s0.4,1,1,1h2c0.6,0,1-0.4,1-1S27.6,7,27,7z"/>
	<path class="st0" d="M27,11h-2c-0.6,0-1,0.4-1,1s0.4,1,1,1h2c0.6,0,1-0.4,1-1S27.6,11,27,11z"/>
	<path class="st0" d="M27,15h-2c-0.6,0-1,0.4-1,1s0.4,1,1,1h2c0.6,0,1-0.4,1-1S27.6,15,27,15z"/>
	<circle class="st0" cx="26" cy="23" r="2"/>
</g>
</svg>
