<?xml version="1.0" encoding="utf-8"?>
<!-- Generator: Adobe Illustrator 28.1.0, SVG Export Plug-In . SVG Version: 6.00 Build 0)  -->
<svg version="1.1" id="圖層_1" xmlns="http://www.w3.org/2000/svg" xmlns:xlink="http://www.w3.org/1999/xlink" x="0px" y="0px"
	 viewBox="0 0 32 32" style="enable-background:new 0 0 32 32;" xml:space="preserve">
<style type="text/css">
	.st0{fill:#2B3A73;}
</style>
<g>
	<path class="st0" d="M28,3h-2c-0.6,0-1,0.4-1,1s0.4,1,1,1h2c0.6,0,1,0.4,1,1v14H3V6c0-0.6,0.4-1,1-1h2c0.6,0,1-0.4,1-1S6.6,3,6,3H4
		C2.3,3,1,4.3,1,6v18c0,1.7,1.3,3,3,3h7.9c-0.2,1.2-0.9,2.2-1.9,2.8L9.7,30H8c-0.6,0-1,0.4-1,1s0.4,1,1,1h16c0.6,0,1-0.4,1-1
		s-0.4-1-1-1h-1.7L22,29.8c-1-0.7-1.7-1.7-1.9-2.8H28c1.7,0,3-1.3,3-3V6C31,4.3,29.7,3,28,3z M12.6,30c0.7-0.9,1.1-1.9,1.3-3h4.2
		c0.2,1.1,0.6,2.1,1.3,3H12.6z M29,24c0,0.6-0.4,1-1,1H4c-0.6,0-1-0.4-1-1v-2h26V24z"/>
	<path class="st0" d="M16,16c4.4,0,8-3.6,8-8s-3.6-8-8-8S8,3.6,8,8S11.6,16,16,16z M16,2c3.3,0,6,2.7,6,6s-2.7,6-6,6s-6-2.7-6-6
		S12.7,2,16,2z"/>
	<path class="st0" d="M14,9h1v1c0,0.6,0.4,1,1,1s1-0.4,1-1V9h1c0.6,0,1-0.4,1-1s-0.4-1-1-1h-1V6c0-0.6-0.4-1-1-1s-1,0.4-1,1v1h-1
		c-0.6,0-1,0.4-1,1S13.4,9,14,9z"/>
</g>
</svg>
