<?xml version="1.0" encoding="utf-8"?>
<!-- Generator: Adobe Illustrator 28.1.0, SVG Export Plug-In . SVG Version: 6.00 Build 0)  -->
<svg version="1.1" id="圖層_1" xmlns="http://www.w3.org/2000/svg" xmlns:xlink="http://www.w3.org/1999/xlink" x="0px" y="0px"
	 viewBox="0 0 32 32" style="enable-background:new 0 0 32 32;" xml:space="preserve">
<style type="text/css">
	.st0{fill:#2B3A73;}
</style>
<g>
	<path class="st0" d="M21,6H11c-0.6,0-1,0.4-1,1s0.4,1,1,1h10c0.6,0,1-0.4,1-1S21.6,6,21,6z"/>
	<path class="st0" d="M21,10H11c-0.6,0-1,0.4-1,1s0.4,1,1,1h10c0.6,0,1-0.4,1-1S21.6,10,21,10z"/>
	<path class="st0" d="M21,14H11c-0.6,0-1,0.4-1,1s0.4,1,1,1h10c0.6,0,1-0.4,1-1S21.6,14,21,14z"/>
	<path class="st0" d="M21,18H11c-0.6,0-1,0.4-1,1s0.4,1,1,1h10c0.6,0,1-0.4,1-1S21.6,18,21,18z"/>
	<path class="st0" d="M29,10h-4c-0.6,0-1,0.4-1,1v3v14h-3v-4c0-1.1-0.9-2-2-2h-6c-1.1,0-2,0.9-2,2v4H8V11V5c0-0.6,0.4-1,1-1h14
		c0.6,0,1,0.4,1,1v2c0,0.6,0.4,1,1,1s1-0.4,1-1V5c0-1.7-1.3-3-3-3H9C7.3,2,6,3.3,6,5v5H3c-1.7,0-3,1.3-3,3v16c0,0.6,0.4,1,1,1h6h5
		c0.6,0,1-0.4,1-1v-5h6v4h-3c-0.6,0-1,0.4-1,1s0.4,1,1,1h9h6c0.6,0,1-0.4,1-1V13C32,11.3,30.7,10,29,10z M2,13c0-0.6,0.4-1,1-1h3v2
		H5c-0.6,0-1,0.4-1,1s0.4,1,1,1h1v2H5c-0.6,0-1,0.4-1,1s0.4,1,1,1h1v8H2V13z M30,28h-4v-8h1c0.6,0,1-0.4,1-1s-0.4-1-1-1h-1v-2h1
		c0.6,0,1-0.4,1-1s-0.4-1-1-1h-1v-2h3c0.6,0,1,0.4,1,1V28z"/>
</g>
</svg>
