<?xml version="1.0" encoding="utf-8"?>
<!-- Generator: Adobe Illustrator 28.1.0, SVG Export Plug-In . SVG Version: 6.00 Build 0)  -->
<svg version="1.1" id="Capa_1" xmlns="http://www.w3.org/2000/svg" xmlns:xlink="http://www.w3.org/1999/xlink" x="0px" y="0px"
	 viewBox="0 0 512 512" style="enable-background:new 0 0 512 512;" xml:space="preserve">
<style type="text/css">
	.st0{fill:#2B3A73;}
</style>
<g>
	<path class="st0" d="M396,196c-55.1,0-100,44.9-100,100c0,32.6,15.7,61.7,40,79.9V492c0,8.1,4.9,15.4,12.3,18.5
		c7.5,3.1,16.1,1.4,21.8-4.3l25.9-25.9l25.9,25.9c5.7,5.7,14.3,7.4,21.8,4.3c7.5-3.1,12.3-10.4,12.3-18.5V375.9
		c24.3-18.3,40-47.3,40-79.9C496,240.9,451.1,196,396,196z M416,443.7l-5.9-5.9c-7.8-7.8-20.5-7.8-28.3,0l-5.9,5.9V394
		c6.5,1.3,13.2,2,20,2s13.5-0.7,20-2V443.7z M396,356c-33.1,0-60-26.9-60-60s26.9-60,60-60s60,26.9,60,60S429.1,356,396,356z"/>
	<path class="st0" d="M276,472H76c-11,0-20-9-20-20V220c0-11,9-20,20-20h80c33.1,0,60-26.9,60-60V60c0-11,9-20,20-20h120
		c11,0,20,9,20,20v76c0,11,9,20,20,20c11,0,20-9,20-20V60c0-33.1-26.9-60-60-60H236c-16.2,0-30.8,6.4-41.6,16.9L32.9,178.4
		C22.4,189.2,16,203.8,16,220v232c0,33.1,26.9,60,60,60h200c11,0,20-9,20-20C296,481,287,472,276,472z M176,91.7V140
		c0,11-9,20-20,20h-48.3L176,91.7z"/>
	<path class="st0" d="M276,120c-11,0-20,9-20,20s9,20,20,20h40c11,0,20-9,20-20s-9-20-20-20H276z"/>
	<path class="st0" d="M236,236H116c-11,0-20,9-20,20s9,20,20,20h120c11,0,20-9,20-20C256,245,247,236,236,236z"/>
	<path class="st0" d="M236,316H116c-11,0-20,9-20,20c0,11,9,20,20,20h120c11,0,20-9,20-20C256,325,247,316,236,316z"/>
	<path class="st0" d="M236,396H116c-11,0-20,9-20,20c0,11,9,20,20,20h120c11,0,20-9,20-20C256,405,247,396,236,396z"/>
</g>
</svg>
