<?xml version="1.0" encoding="utf-8"?>
<!-- Generator: Adobe Illustrator 28.1.0, SVG Export Plug-In . SVG Version: 6.00 Build 0)  -->
<svg version="1.1" id="圖層_1" xmlns="http://www.w3.org/2000/svg" xmlns:xlink="http://www.w3.org/1999/xlink" x="0px" y="0px"
	 viewBox="0 0 32 32" style="enable-background:new 0 0 32 32;" xml:space="preserve">
<style type="text/css">
	.st0{fill:#2B3A73;}
</style>
<g>
	<path class="st0" d="M17,14h-2c-1.7,0-3,1.3-3,3v12c0,1.7,1.3,3,3,3h2c1.7,0,3-1.3,3-3v-2c0-0.6-0.4-1-1-1s-1,0.4-1,1v2
		c0,0.6-0.4,1-1,1h-2c-0.6,0-1-0.4-1-1V17c0-0.6,0.4-1,1-1h2c0.6,0,1,0.4,1,1v6c0,0.6,0.4,1,1,1s1-0.4,1-1v-6C20,15.3,18.7,14,17,14
		z"/>
	<path class="st0" d="M7,20H5c-1.7,0-3,1.3-3,3v6c0,1.7,1.3,3,3,3h2c1.7,0,3-1.3,3-3v-6C10,21.3,8.7,20,7,20z M8,29c0,0.6-0.4,1-1,1
		H5c-0.6,0-1-0.4-1-1v-6c0-0.6,0.4-1,1-1h2c0.6,0,1,0.4,1,1V29z"/>
	<path class="st0" d="M29,18c0.6,0,1-0.4,1-1v-4c0-1.7-1.3-3-3-3h-2c-1.7,0-3,1.3-3,3v16c0,1.7,1.3,3,3,3h2c1.7,0,3-1.3,3-3v-8
		c0-0.6-0.4-1-1-1s-1,0.4-1,1v8c0,0.6-0.4,1-1,1h-2c-0.6,0-1-0.4-1-1V13c0-0.6,0.4-1,1-1h2c0.6,0,1,0.4,1,1v4C28,17.6,28.4,18,29,18
		z"/>
	<path class="st0" d="M6,16c1.7,0,3-1.3,3-3c0-0.2,0-0.4-0.1-0.6l5.2-3.1C14.6,9.7,15.3,10,16,10c1.7,0,3-1.3,3-3c0,0,0-0.1,0-0.1
		L23.8,5c0.5,0.6,1.3,1,2.2,1c1.7,0,3-1.3,3-3s-1.3-3-3-3s-3,1.3-3,3c0,0,0,0.1,0,0.1L18.2,5c-0.5-0.6-1.3-1-2.2-1c-1.7,0-3,1.3-3,3
		c0,0.2,0,0.4,0.1,0.6l-5.2,3.1C7.4,10.3,6.7,10,6,10c-1.7,0-3,1.3-3,3S4.3,16,6,16z M26,2c0.6,0,1,0.4,1,1s-0.4,1-1,1
		c-0.4,0-0.7-0.2-0.9-0.6c0,0,0-0.1,0-0.1c0,0,0,0,0,0C25,3.2,25,3.1,25,3C25,2.4,25.4,2,26,2z M16,6c0.4,0,0.8,0.3,0.9,0.6
		c0,0,0,0,0,0C17,6.8,17,6.9,17,7c0,0.6-0.4,1-1,1s-1-0.4-1-1S15.4,6,16,6z M6,12c0.6,0,1,0.4,1,1s-0.4,1-1,1s-1-0.4-1-1
		S5.4,12,6,12z"/>
</g>
</svg>
