<?xml version="1.0" encoding="utf-8"?>
<!-- Generator: Adobe Illustrator 28.1.0, SVG Export Plug-In . SVG Version: 6.00 Build 0)  -->
<svg version="1.1" id="Capa_1" xmlns="http://www.w3.org/2000/svg" xmlns:xlink="http://www.w3.org/1999/xlink" x="0px" y="0px"
	 viewBox="0 0 512 512" style="enable-background:new 0 0 512 512;" xml:space="preserve">
<style type="text/css">
	.st0{fill:#2B3A73;}
</style>
<g>
	<circle class="st0" cx="176" cy="292" r="20"/>
	<circle class="st0" cx="256" cy="292" r="20"/>
	<circle class="st0" cx="336" cy="292" r="20"/>
	<path class="st0" d="M60,232c-33.1,0-60,26.9-60,60v80c0,33.1,26.9,60,60,60s60-26.9,60-60v-80C120,258.9,93.1,232,60,232z M80,372
		c0,11-9,20-20,20s-20-9-20-20v-80c0-11,9-20,20-20s20,9,20,20V372z"/>
	<path class="st0" d="M96,206.9c11,0,20-9,20-20V180c0-77.2,62.8-140,140-140s140,62.8,140,140v6.9c0,11,9,20,20,20c11,0,20-9,20-20
		V180C436,80.7,355.3,0,256,0S76,80.7,76,180v6.9C76,197.9,85,206.9,96,206.9z"/>
	<path class="st0" d="M452,232c-33.1,0-60,26.9-60,60v120c0,33.1-26.9,60-60,60h-19.4c2.2-6.3,3.4-13,3.4-20c0-33.1-26.9-60-60-60
		s-60,26.9-60,60s26.9,60,60,60h76c49.7,0,91-36.4,98.7-83.9c6.6,2.5,13.8,3.9,21.3,3.9c33.1,0,60-26.9,60-60v-80
		C512,258.9,485.1,232,452,232z M256,472c-11,0-20-9-20-20s9-20,20-20s20,9,20,20S267,472,256,472z M472,372c0,11-9,20-20,20
		s-20-9-20-20v-80c0-11,9-20,20-20s20,9,20,20V372z"/>
</g>
</svg>
