<?xml version="1.0" encoding="utf-8"?>
<!-- Generator: Adobe Illustrator 28.1.0, SVG Export Plug-In . SVG Version: 6.00 Build 0)  -->
<svg version="1.1" id="Capa_1" xmlns="http://www.w3.org/2000/svg" xmlns:xlink="http://www.w3.org/1999/xlink" x="0px" y="0px"
	 viewBox="0 0 512 512" style="enable-background:new 0 0 512 512;" xml:space="preserve">
<style type="text/css">
	.st0{fill:#2B3A73;}
</style>
<g>
	<path class="st0" d="M225.9,215.5l-11.8,58.8c-1.3,6.6,0.7,13.3,5.5,18.1c4.7,4.7,11.4,6.8,18.1,5.5l58.8-11.8
		c11.7-2.3,22.3-8,30.7-16.4l167.3-167.3c23.5-23.5,23.4-61.4,0-84.9C471-5.8,433-5.8,409.6,17.6L242.3,184.8
		C233.9,193.2,228.2,203.9,225.9,215.5z M265.1,223.3c0.8-3.9,2.7-7.4,5.5-10.2L437.8,45.8c7.8-7.8,20.5-7.8,28.3,0
		c7.8,7.8,7.8,20.5,0,28.3L298.9,241.4c-2.8,2.8-6.3,4.7-10.2,5.5l-29.4,5.9L265.1,223.3z"/>
	<path class="st0" d="M492,161.7c-11,0-20,9-20,20V372c0,33.1-26.9,60-60,60H168.9c-7.1,0-13.7,3.8-17.3,9.9
		c-7.4,12.7-18.6,21.9-31.6,26.6V452c0-11-9-20-20-20c-33.1,0-60-26.9-60-60V172c0-33.1,26.9-60,60-60h142.3c11,0,20-9,20-20
		s-9-20-20-20H100C44.9,72,0,116.9,0,172v200c0,48.3,34.4,88.7,80,98v22c0,11,9,20,20,20c31.3,0,60.8-15.1,79.6-40H412
		c55.1,0,100-44.9,100-100V181.7C512,170.6,503,161.7,492,161.7z"/>
	<path class="st0" d="M100,392h280c11,0,20-9,20-20s-9-20-20-20H100c-11,0-20,9-20,20S89,392,100,392z"/>
	<path class="st0" d="M100,312h40c11,0,20-9,20-20s-9-20-20-20h-40c-11,0-20,9-20,20S89,312,100,312z"/>
	<path class="st0" d="M100,232h40c11,0,20-9,20-20s-9-20-20-20h-40c-11,0-20,9-20,20S89,232,100,232z"/>
</g>
</svg>
