<?xml version="1.0" encoding="utf-8"?>
<!-- Generator: Adobe Illustrator 28.1.0, SVG Export Plug-In . SVG Version: 6.00 Build 0)  -->
<svg version="1.1" id="Capa_1" xmlns="http://www.w3.org/2000/svg" xmlns:xlink="http://www.w3.org/1999/xlink" x="0px" y="0px"
	 viewBox="0 0 512 512" style="enable-background:new 0 0 512 512;" xml:space="preserve">
<style type="text/css">
	.st0{fill:#2B3A73;}
</style>
<g>
	<path class="st0" d="M372,200h40c11,0,20-9,20-20s-9-20-20-20h-40c-11,0-20,9-20,20S361,200,372,200z"/>
	<path class="st0" d="M372,280h40c11,0,20-9,20-20c0-11-9-20-20-20h-40c-11,0-20,9-20,20S361,280,372,280z"/>
	<path class="st0" d="M372,360h40c11,0,20-9,20-20c0-11-9-20-20-20h-40c-11,0-20,9-20,20C352,351,361,360,372,360z"/>
	<path class="st0" d="M452,40h-20V20c0-11-9-20-20-20c-11,0-20,9-20,20v20H176c-11,0-20,9-20,20s9,20,20,20h276c11,0,20,9,20,20v280
		c0,11-9,20-20,20H60c-11,0-20-9-20-20V100c0-11,9-20,20-20h36c11,0,20-9,20-20V20c0-11-9-20-20-20S76,9,76,20v20H60
		C26.9,40,0,66.9,0,100v280c0,33.1,26.9,60,60,60h176v32h-20c-11,0-20,9-20,20c0,11,9,20,20,20h80c11,0,20-9,20-20c0-11-9-20-20-20
		h-20v-32h176c33.1,0,60-26.9,60-60V100C512,66.9,485.1,40,452,40z"/>
	<path class="st0" d="M80,240c0,66.2,53.8,120,120,120s120-53.8,120-120s-53.8-120-120-120S80,173.8,80,240z M220,162.5
		c28.1,7.3,50.2,29.4,57.5,57.5H220V162.5z M180,162.5V240c0,11,9,20,20,20h77.5c-8.9,34.5-40.3,60-77.5,60c-44.1,0-80-35.9-80-80
		C120,202.8,145.5,171.4,180,162.5z"/>
</g>
</svg>
