<?xml version="1.0" encoding="utf-8"?>
<!-- Generator: Adobe Illustrator 28.1.0, SVG Export Plug-In . SVG Version: 6.00 Build 0)  -->
<svg version="1.1" id="Capa_1" xmlns="http://www.w3.org/2000/svg" xmlns:xlink="http://www.w3.org/1999/xlink" x="0px" y="0px"
	 viewBox="0 0 512 512" style="enable-background:new 0 0 512 512;" xml:space="preserve">
<style type="text/css">
	.st0{fill:#2B3A73;}
</style>
<g>
	<path class="st0" d="M316,132c0-11-9-20-20-20h-20V92c0-11-9-20-20-20c-11,0-20,9-20,20v20h-20c-11,0-20,9-20,20s9,20,20,20h20v20
		c0,11,9,20,20,20s20-9,20-20v-20h20C307,152,316,143,316,132z"/>
	<path class="st0" d="M432,152h-36V80c0-44.1-35.9-80-80-80H196c-44.1,0-80,35.9-80,80v72H80c-44.1,0-80,35.9-80,80v200
		c0,44.1,35.9,80,80,80h256c11,0,20-9,20-20v-40c0-33.1-26.9-60-60-60h-80c-33.1,0-60,26.9-60,60v20H80c-22.1,0-40-17.9-40-40V232
		c0-22.1,17.9-40,40-40h56c11,0,20-9,20-20V80c0-22.1,17.9-40,40-40h120c22.1,0,40,17.9,40,40v92c0,11,9,20,20,20h56
		c22.1,0,40,17.9,40,40v200c0,22.1-17.9,40-40,40h-20c-11,0-20,9-20,20c0,11,9,20,20,20h20c44.1,0,80-35.9,80-80V232
		C512,187.9,476.1,152,432,152z M196,452c0-11,9-20,20-20h80c11,0,20,9,20,20v20H196V452z"/>
	<path class="st0" d="M136,232h-36c-11,0-20,9-20,20s9,20,20,20h36c11,0,20-9,20-20C156,241,147,232,136,232z"/>
	<path class="st0" d="M276,232h-40c-11,0-20,9-20,20s9,20,20,20h40c11,0,20-9,20-20C296,241,287,232,276,232z"/>
	<path class="st0" d="M376,272h36c11,0,20-9,20-20c0-11-9-20-20-20h-36c-11,0-20,9-20,20S365,272,376,272z"/>
	<path class="st0" d="M136,312h-36c-11,0-20,9-20,20c0,11,9,20,20,20h36c11,0,20-9,20-20C156,321,147,312,136,312z"/>
	<path class="st0" d="M276,312h-40c-11,0-20,9-20,20c0,11,9,20,20,20h40c11,0,20-9,20-20C296,321,287,312,276,312z"/>
	<path class="st0" d="M432,332c0-11-9-20-20-20h-36c-11,0-20,9-20,20c0,11,9,20,20,20h36C423,352,432,343,432,332z"/>
</g>
</svg>
