<?xml version="1.0" encoding="utf-8"?>
<!-- Generator: Adobe Illustrator 28.1.0, SVG Export Plug-In . SVG Version: 6.00 Build 0)  -->
<svg version="1.1" id="Capa_1" xmlns="http://www.w3.org/2000/svg" xmlns:xlink="http://www.w3.org/1999/xlink" x="0px" y="0px"
	 viewBox="0 0 512 512" style="enable-background:new 0 0 512 512;" xml:space="preserve">
<style type="text/css">
	.st0{fill:#2B3A73;}
</style>
<g>
	<path class="st0" d="M492,472h-16V300c0-33.1-26.9-60-60-60s-60,26.9-60,60v172h-40v-52c0-33.1-26.9-60-60-60s-60,26.9-60,60v52
		h-40V300c0-33.1-26.9-60-60-60s-60,26.9-60,60v172H20c-11,0-20,9-20,20c0,11,9,20,20,20h472c11,0,20-9,20-20
		C512,481,503,472,492,472z M116,472H76V300c0-11,9-20,20-20s20,9,20,20V472z M276,472h-40v-52c0-11,9-20,20-20s20,9,20,20V472z
		 M436,472h-40V300c0-11,9-20,20-20s20,9,20,20V472z"/>
	<path class="st0" d="M96,200c12.3,0,23.7-3.7,33.2-10.1l69.5,52.1c-1.8,5.7-2.7,11.7-2.7,17.9c0,33.1,26.9,60,60,60s60-26.9,60-60
		s-26.9-60-60-60c-12.3,0-23.7,3.7-33.2,10.1l-69.5-52.1c1.8-5.7,2.7-11.7,2.7-17.9c0-33.1-26.9-60-60-60s-60,26.9-60,60
		S62.9,200,96,200z M256,240c11,0,20,9,20,20s-9,20-20,20s-20-9-20-20S245,240,256,240z M96,120c11,0,20,9,20,20s-9,20-20,20
		s-20-9-20-20S85,120,96,120z"/>
	<polygon class="st0" points="416,0 416,0 416,0 	"/>
	<path class="st0" d="M318.4,182c8.6,6.9,21.2,5.5,28.1-3.1l49.7-62.2c6.2,2.2,12.8,3.3,19.7,3.3c33.1,0,60-26.9,60-60
		S449.1,0,416,0s-60,26.9-60,60c0,11.6,3.3,22.5,9.1,31.7l-49.7,62.2C308.4,162.5,309.8,175,318.4,182z M416,40c11,0,20,9,20,20
		s-9,20-20,20s-20-9-20-20S405,40,416,40z"/>
</g>
</svg>
