<?xml version="1.0" encoding="utf-8"?>
<!-- Generator: Adobe Illustrator 28.1.0, SVG Export Plug-In . SVG Version: 6.00 Build 0)  -->
<svg version="1.1" id="Capa_1" xmlns="http://www.w3.org/2000/svg" xmlns:xlink="http://www.w3.org/1999/xlink" x="0px" y="0px"
	 viewBox="0 0 512 512" style="enable-background:new 0 0 512 512;" xml:space="preserve">
<style type="text/css">
	.st0{fill:#2B3A73;}
</style>
<g>
	<circle class="st0" cx="256" cy="176" r="20"/>
	<path class="st0" d="M356,129.8c0-7.1-3.8-13.7-10-17.3l-80-46.2c-6.2-3.6-13.8-3.6-20,0l-80,46.2c-6.2,3.6-10,10.2-10,17.3v92.4
		c0,7.1,3.8,13.7,10,17.3v0l80,46.2c6.2,3.6,13.8,3.6,20,0l80-46.2c6.2-3.6,10-10.2,10-17.3V129.8z M316,210.6l-60,34.6l-60-34.6
		v-69.3l60-34.6l60,34.6V210.6z"/>
	<path class="st0" d="M456,352c11,0,20-9,20-20V60c0-33.1-26.9-60-60-60H136C80.9,0,36,44.9,36,100v352c0,33.1,26.9,60,60,60h320
		c33.1,0,60-26.9,60-60v-40c0-11-9-20-20-20H96c-7,0-13.7,1.2-20,3.4V100c0-33.1,26.9-60,60-60h280c11,0,20,9,20,20v272
		C436,343,445,352,456,352z M96,432h340v20c0,11-9,20-20,20H96c-11,0-20-9-20-20S85,432,96,432z"/>
	<path class="st0" d="M336,312H176c-11,0-20,9-20,20c0,11,9,20,20,20h160c11,0,20-9,20-20C356,321,347,312,336,312z"/>
</g>
</svg>
