<?xml version="1.0" encoding="utf-8"?>
<!-- Generator: Adobe Illustrator 28.1.0, SVG Export Plug-In . SVG Version: 6.00 Build 0)  -->
<svg version="1.1" id="Capa_1" xmlns="http://www.w3.org/2000/svg" xmlns:xlink="http://www.w3.org/1999/xlink" x="0px" y="0px"
	 viewBox="0 0 512 512" style="enable-background:new 0 0 512 512;" xml:space="preserve">
<style type="text/css">
	.st0{fill:#2B3A73;}
</style>
<g>
	<path class="st0" d="M452,136H312v-20c0-33.1-26.9-60-60-60H60C26.9,56,0,82.9,0,116v240c0,33.1,26.9,60,60,60h23.4
		c8.3,23.3,30.5,40,56.6,40s48.3-16.7,56.6-40h118.9c8.3,23.3,30.5,40,56.6,40s48.3-16.7,56.6-40H452c33.1,0,60-26.9,60-60V196
		C512,162.9,485.1,136,452,136z M140,416c-11,0-20-9-20-20s9-20,20-20s20,9,20,20S151,416,140,416z M372,416c-11,0-20-9-20-20
		s9-20,20-20s20,9,20,20S383,416,372,416z M472,356c0,11-9,20-20,20h-23.4c-8.3-23.3-30.5-40-56.6-40s-48.3,16.7-56.6,40H196.6
		c-8.3-23.3-30.5-40-56.6-40s-48.3,16.7-56.6,40H60c-11,0-20-9-20-20V116c0-11,9-20,20-20h192c11,0,20,9,20,20v200c0,11,9,20,20,20
		c11,0,20-9,20-20V176h40v60c0,33.1,26.9,60,60,60h60V356z M472,256h-60c-11,0-20-9-20-20v-60h60c11,0,20,9,20,20V256z"/>
	<path class="st0" d="M186.1,181.9c-7.8-7.8-20.5-7.8-28.3,0c-7.8,7.8-7.8,20.5,0,28.3l5.9,5.9H100c-11,0-20,9-20,20s9,20,20,20
		h63.7l-5.9,5.9c-7.8,7.8-7.8,20.5,0,28.3c7.8,7.8,20.5,7.8,28.3,0l40.1-40.1c7.8-7.9,7.7-20.5-0.1-28.2L186.1,181.9z"/>
</g>
</svg>
