<?xml version="1.0" encoding="utf-8"?>
<!-- Generator: Adobe Illustrator 28.1.0, SVG Export Plug-In . SVG Version: 6.00 Build 0)  -->
<svg version="1.1" id="Capa_1" xmlns="http://www.w3.org/2000/svg" xmlns:xlink="http://www.w3.org/1999/xlink" x="0px" y="0px"
	 viewBox="0 0 512 512" style="enable-background:new 0 0 512 512;" xml:space="preserve">
<style type="text/css">
	.st0{fill:#2B3A73;}
</style>
<g>
	<path class="st0" d="M256,200c-11,0-20,9-20,20v160.3l-5.9-5.9c-7.8-7.8-20.5-7.8-28.3,0c-7.8,7.8-7.8,20.5,0,28.3l11.7,11.7
		c11.6,11.6,27.1,17.6,42.4,17.6c15.3,0,30.8-5.9,42.4-17.6l11.7-11.7c7.8-7.8,7.8-20.5,0-28.3c-7.8-7.8-20.5-7.8-28.3,0l-5.9,5.9
		V220C276,209,267,200,256,200z"/>
	<path class="st0" d="M436,83.4V60c0-33.1-26.9-60-60-60H96C62.9,0,36,26.9,36,60v212c0,33.1,26.9,60,60,60h80c11,0,20-9,20-20
		c0-11-9-20-20-20H96c-11,0-20-9-20-20V60c0-11,9-20,20-20h80c11,0,20,9,20,20c0,33.1,26.9,60,60,60h160c11,0,20,9,20,20v132
		c0,11-9,20-20,20h-80c-11,0-20,9-20,20c0,11,9,20,20,20h80c33.1,0,60-26.9,60-60V140C476,113.9,459.3,91.7,436,83.4z M396,80H256
		c-11,0-20-9-20-20c0-7-1.2-13.7-3.4-20H376c11,0,20,9,20,20V80z"/>
	<path class="st0" d="M356,432c-11,0-20,9-20,20c0,11-9,20-20,20H196c-11,0-20-9-20-20c0-11-9-20-20-20s-20,9-20,20
		c0,33.1,26.9,60,60,60h120c33.1,0,60-26.9,60-60C376,441,367,432,356,432z"/>
</g>
</svg>
