<?xml version="1.0" encoding="utf-8"?>
<!-- Generator: Adobe Illustrator 28.1.0, SVG Export Plug-In . SVG Version: 6.00 Build 0)  -->
<svg version="1.1" id="Capa_1" xmlns="http://www.w3.org/2000/svg" xmlns:xlink="http://www.w3.org/1999/xlink" x="0px" y="0px"
	 viewBox="0 0 512 512" style="enable-background:new 0 0 512 512;" xml:space="preserve">
<style type="text/css">
	.st0{fill:#2B3A73;}
</style>
<g>
	<path class="st0" d="M367,163l-34.5-14.4v-29.9c17.2-4.5,30-20.1,30-38.7V60c0-33.1-26.9-60-60-60h-93c-33.1,0-60,26.9-60,60v20
		c0,18.6,12.8,34.3,30,38.7v29.9L145,163c-37.4,15.6-61.5,51.8-61.5,92.3V392c0,66.2,53.8,120,120,120h105c66.2,0,120-53.8,120-120
		V255.3C428.5,214.8,404.3,178.6,367,163z M388.5,392c0,44.1-35.9,80-80,80h-105c-44.1,0-80-35.9-80-80V255.3
		c0-24.3,14.5-46,36.9-55.4l46.8-19.5c7.5-3.1,12.3-10.4,12.3-18.5v-42h22c11,0,20-9,20-20s-9-20-20-20h-52V60c0-11,9-20,20-20h93
		c11,0,20,9,20,20v20h-10c-11,0-20,9-20,20v62c0,8.1,4.9,15.4,12.3,18.5l46.8,19.5c18.2,7.6,31.2,23.4,35.4,42.1H286.5
		c-22.1,0-40,17.9-40,40v50c0,22.1,17.9,40,40,40h102V392z M388.5,332h-102v-50h102V332z"/>
	<circle class="st0" cx="183.5" cy="418" r="20"/>
	<circle class="st0" cx="183.5" cy="298" r="20"/>
	<circle class="st0" cx="213.5" cy="238" r="20"/>
	<circle class="st0" cx="303.5" cy="418" r="20"/>
	<circle class="st0" cx="213.5" cy="358" r="20"/>
	<circle class="st0" cx="243.5" cy="418" r="20"/>
</g>
</svg>
