<?xml version="1.0" encoding="utf-8"?>
<!-- Generator: Adobe Illustrator 28.1.0, SVG Export Plug-In . SVG Version: 6.00 Build 0)  -->
<svg version="1.1" id="Capa_1" xmlns="http://www.w3.org/2000/svg" xmlns:xlink="http://www.w3.org/1999/xlink" x="0px" y="0px"
	 viewBox="0 0 512 512" style="enable-background:new 0 0 512 512;" xml:space="preserve">
<style type="text/css">
	.st0{fill:#2B3A73;}
</style>
<g>
	<path class="st0" d="M156,40h40c11,0,20-9,20-20s-9-20-20-20h-40c-11,0-20,9-20,20S145,40,156,40z"/>
	<path class="st0" d="M316,152h-60v-12c0-33.1-26.9-60-60-60h-40c-33.1,0-60,26.9-60,60v112c0,33.1,26.9,60,60,60v20
		c0,11,9,20,20,20s20-9,20-20v-20c26.1,0,48.3-16.7,56.6-40H316c11,0,20,9,20,20v100H156c-33.1,0-60,26.9-60,60v20H76
		c-11,0-20,9-20,20c0,11,9,20,20,20h360c11,0,20-9,20-20V292C456,214.8,393.2,152,316,152z M216,252c0,11-9,20-20,20h-40
		c-11,0-20-9-20-20V140c0-11,9-20,20-20h40c11,0,20,9,20,20V252z M336,472H136v-20c0-11,9-20,20-20h180V472z M416,472h-40V292
		c0-33.1-26.9-60-60-60h-60v-40h60c55.1,0,100,44.9,100,100V472z"/>
</g>
</svg>
