<?xml version="1.0" encoding="utf-8"?>
<!-- Generator: Adobe Illustrator 28.1.0, SVG Export Plug-In . SVG Version: 6.00 Build 0)  -->
<svg version="1.1" id="Capa_1" xmlns="http://www.w3.org/2000/svg" xmlns:xlink="http://www.w3.org/1999/xlink" x="0px" y="0px"
	 viewBox="0 0 512 512" style="enable-background:new 0 0 512 512;" xml:space="preserve">
<style type="text/css">
	.st0{fill:#2B3A73;}
</style>
<g>
	<g>
		<path class="st0" d="M340,156h72c11,0,20-9,20-20s-9-20-20-20h-72c-11,0-20,9-20,20S329,156,340,156z"/>
		<path class="st0" d="M340,236h72c11,0,20-9,20-20s-9-20-20-20h-72c-11,0-20,9-20,20S329,236,340,236z"/>
		<path class="st0" d="M340,316h72c11,0,20-9,20-20s-9-20-20-20h-72c-11,0-20,9-20,20S329,316,340,316z"/>
		<path class="st0" d="M452,0H60C26.9,0,0,26.9,0,60v316c0,33.1,26.9,60,60,60h176v36h-60c-11,0-20,9-20,20s9,20,20,20h160
			c11,0,20-9,20-20s-9-20-20-20h-60v-56c0-11-9-20-20-20H60c-11,0-20-9-20-20V60c0-11,9-20,20-20h392c11,0,20,9,20,20v316
			c0,11-9,20-20,20H336c-11,0-20,9-20,20s9,20,20,20h116c33.1,0,60-26.9,60-60V60C512,26.9,485.1,0,452,0z"/>
	</g>
	<path class="st0" d="M270,167.1c9.6-5.5,12.8-17.8,7.3-27.3c-5.5-9.6-17.8-12.8-27.3-7.3l-10,5.8l-40-23.1V96c0-11-9-20-20-20
		s-20,9-20,20v19.2l-40,23.1l-10-5.8c-9.6-5.5-21.8-2.2-27.3,7.3c-5.5,9.6-2.2,21.8,7.3,27.3l10,5.8v46.2l-10,5.8
		c-9.6,5.5-12.8,17.8-7.3,27.3c5.5,9.6,17.8,12.8,27.3,7.3l10-5.8l40,23.1V296c0,11,9,20,20,20s20-9,20-20v-19.2l40-23.1l10,5.8
		c9.6,5.5,21.8,2.2,27.3-7.3c5.5-9.6,2.2-21.8-7.3-27.3l-10-5.8v-46.2L270,167.1z M220,219.1l-40,23.1l-40-23.1v-46.2l40-23.1
		l40,23.1V219.1z"/>
</g>
</svg>
