<?xml version="1.0" encoding="utf-8"?>
<!-- Generator: Adobe Illustrator 28.1.0, SVG Export Plug-In . SVG Version: 6.00 Build 0)  -->
<svg version="1.1" id="Capa_1" xmlns="http://www.w3.org/2000/svg" xmlns:xlink="http://www.w3.org/1999/xlink" x="0px" y="0px"
	 viewBox="0 0 512 512" style="enable-background:new 0 0 512 512;" xml:space="preserve">
<style type="text/css">
	.st0{fill:#2B3A73;}
</style>
<g>
	<path class="st0" d="M461.9,93.3c6.4-9.5,10.1-21,10.1-33.3V20c0-11-9-20-20-20h-40c-15.4,0-29.4,5.8-40,15.3
		C361.4,5.8,347.4,0,332,0h-40c-11,0-20,9-20,20v40c0,12.3,3.7,23.8,10.1,33.3c-24.4,14.1-42.3,38.2-48.1,66.7h-18
		c-15.4,0-29.4,5.8-40,15.3c-10.6-9.5-24.6-15.3-40-15.3h-36c-11,0-20,9-20,20v40c0,7.5,1.4,14.7,3.9,21.3C36.4,249,0,290.3,0,340
		v72c0,55.1,44.9,100,100,100h152c55.1,0,100-44.9,100-100v-72c0-49.7-36.4-91-83.9-98.7c2.5-6.6,3.9-13.8,3.9-21.3v-40
		c0-33.1,26.9-60,60-60h80c33.1,0,60,26.9,60,60v232c0,33.1-26.9,60-60,60h-21.5c-11,0-20,9-20,20s9,20,20,20H412
		c55.1,0,100-44.9,100-100V180C512,143,491.8,110.6,461.9,93.3z M216,200h16v20c0,11-9,20-20,20h-16v-20C196,209,205,200,216,200z
		 M120,200h16c11,0,20,9,20,20v20h-16c-11,0-20-9-20-20V200z M312,340v72c0,33.1-26.9,60-60,60H100c-33.1,0-60-26.9-60-60v-72
		c0-33.1,26.9-60,60-60h152C285.1,280,312,306.9,312,340z M412,40h20v20c0,11-9,20-20,20h-20V60C392,49,401,40,412,40z M312,60V40
		h20c11,0,20,9,20,20v20h-20C321,80,312,71,312,60z"/>
	<path class="st0" d="M432,220c0-11-9-20-20-20c-11,0-20-9-20-20c0-11-9-20-20-20s-20,9-20,20c0,11-9,20-20,20c-11,0-20,9-20,20
		s9,20,20,20c15.4,0,29.4-5.8,40-15.3c10.6,9.5,24.6,15.3,40,15.3C423,240,432,231,432,220z"/>
	<path class="st0" d="M136,400c15.4,0,29.4-5.8,40-15.3c10.6,9.5,24.6,15.3,40,15.3c11,0,20-9,20-20s-9-20-20-20c-11,0-20-9-20-20
		c0-11-9-20-20-20s-20,9-20,20c0,11-9,20-20,20c-11,0-20,9-20,20S125,400,136,400z"/>
</g>
</svg>
