<?xml version="1.0" encoding="utf-8"?>
<!-- Generator: Adobe Illustrator 28.1.0, SVG Export Plug-In . SVG Version: 6.00 Build 0)  -->
<svg version="1.1" id="Capa_1" xmlns="http://www.w3.org/2000/svg" xmlns:xlink="http://www.w3.org/1999/xlink" x="0px" y="0px"
	 viewBox="0 0 512 512" style="enable-background:new 0 0 512 512;" xml:space="preserve">
<style type="text/css">
	.st0{fill:#2B3A73;}
</style>
<g>
	<path class="st0" d="M432,232h-36v-42l8,6c8.8,6.6,21.4,4.8,28-4c6.6-8.8,4.8-21.4-4-28L316,80c-12-9-25.6-15.1-40-18V40h20
		c11,0,20-9,20-20s-9-20-20-20h-40c-11,0-20,9-20,20v42c-14.4,2.9-28,9-40,18L84,164c-8.8,6.6-10.6,19.2-4,28s19.2,10.6,28,4l8-6v42
		H80c-44.1,0-80,35.9-80,80v140c0,33.1,26.9,60,60,60h236c11,0,20-9,20-20v-40c0-33.1-26.9-60-60-60s-60,26.9-60,60v20h-40V160
		l64-48c21.2-15.9,50.8-15.9,72,0l64,48v332c0,11,9,20,20,20h76c33.1,0,60-26.9,60-60V312C512,267.9,476.1,232,432,232z M116,312H96
		c-11,0-20,9-20,20c0,11,9,20,20,20h20v40H96c-11,0-20,9-20,20c0,11,9,20,20,20h20v40H60c-11,0-20-9-20-20V312c0-22.1,17.9-40,40-40
		h36V312z M236,452c0-11,9-20,20-20s20,9,20,20v20h-40V452z M472,452c0,11-9,20-20,20h-56v-40h20c11,0,20-9,20-20c0-11-9-20-20-20
		h-20v-40h20c11,0,20-9,20-20c0-11-9-20-20-20h-20v-40h36c22.1,0,40,17.9,40,40V452z"/>
	<path class="st0" d="M216,312c-11,0-20,9-20,20c0,11,9,20,20,20h80c11,0,20-9,20-20c0-11-9-20-20-20H216z"/>
	<path class="st0" d="M256,152c-33.1,0-60,26.9-60,60s26.9,60,60,60s60-26.9,60-60S289.1,152,256,152z M256,232c-11,0-20-9-20-20
		s9-20,20-20s20,9,20,20S267,232,256,232z"/>
</g>
</svg>
