<?xml version="1.0" encoding="utf-8"?>
<!-- Generator: Adobe Illustrator 28.1.0, SVG Export Plug-In . SVG Version: 6.00 Build 0)  -->
<svg version="1.1" id="Capa_1" xmlns="http://www.w3.org/2000/svg" xmlns:xlink="http://www.w3.org/1999/xlink" x="0px" y="0px"
	 viewBox="0 0 512 512" style="enable-background:new 0 0 512 512;" xml:space="preserve">
<style type="text/css">
	.st0{fill:#2B3A73;}
</style>
<g id="First_Aid_Kit_2_">
	<path class="st0" d="M296,332h-20v-20c0-11-9-20-20-20s-20,9-20,20v20h-20c-11,0-20,9-20,20s9,20,20,20h20v20c0,11,9,20,20,20
		c11,0,20-9,20-20v-20h20c11,0,20-9,20-20S307,332,296,332z"/>
	<path class="st0" d="M512,180c0-55.1-44.9-100-100-100h-56V60c0-33.1-26.9-60-60-60h-80c-33.1,0-60,26.9-60,60v20h-56
		C44.9,80,0,124.9,0,180c0,26.1,16.7,48.3,40,56.6V412c0,55.1,44.9,100,100,100h232c55.1,0,100-44.9,100-100V236.6
		C495.3,228.3,512,206.1,512,180z M196,60c0-11,9-20,20-20h80c11,0,20,9,20,20v20H196V60z M452,200c-11,0-20,9-20,20v192
		c0,33.1-26.9,60-60,60H140c-33.1,0-60-26.9-60-60V240h40v32c0,11,9,20,20,20s20-9,20-20v-32h192v32c0,11,9,20,20,20s20-9,20-20v-52
		c0-11-9-20-20-20H60c-11,0-20-9-20-20c0-33.1,26.9-60,60-60h312c33.1,0,60,26.9,60,60C472,191,463,200,452,200z"/>
</g>
</svg>
