<?xml version="1.0" encoding="utf-8"?>
<!-- Generator: Adobe Illustrator 28.1.0, SVG Export Plug-In . SVG Version: 6.00 Build 0)  -->
<svg version="1.1" id="Capa_1" xmlns="http://www.w3.org/2000/svg" xmlns:xlink="http://www.w3.org/1999/xlink" x="0px" y="0px"
	 viewBox="0 0 512 512" style="enable-background:new 0 0 512 512;" xml:space="preserve">
<style type="text/css">
	.st0{fill:#2B3A73;}
</style>
<g>
	<path class="st0" d="M512,140c0-11-9-20-20-20c-53.6,0-77.8-16.8-105.9-36.3c-19.1-13.2-40.4-28-71.5-36.5
		C308.8,20.3,284.7,0,256,0s-52.8,20.3-58.6,47.2c-31,8.5-52.4,23.3-71.5,36.5C97.8,103.2,73.6,120,20,120c-11,0-20,9-20,20
		s9,20,20,20c20.3,0,37.5-2.2,52.4-5.8L4.6,316.9c-0.1,0.2-0.1,0.3-0.2,0.5C1.6,324.4,0,332,0,340c0,55.1,44.9,100,100,100
		s100-44.9,100-100c0-8-1.6-15.6-4.4-22.6c-0.1-0.2-0.1-0.3-0.2-0.5l-75.7-181.6c10.6-6,20-12.5,29-18.7
		c16.5-11.4,32.3-22.4,54-29.2c7,13.5,18.9,24,33.4,29.2V412c0,11,9,20,20,20s20-9,20-20V116.6c14.5-5.1,26.4-15.7,33.4-29.2
		c21.7,6.9,37.4,17.8,54,29.2c9,6.2,18.4,12.7,29,18.7l-75.7,181.6c-0.1,0.2-0.1,0.3-0.2,0.5c-2.8,7-4.4,14.6-4.4,22.6
		c0,55.1,44.9,100,100,100s100-44.9,100-100c0-8-1.6-15.6-4.4-22.6c-0.1-0.2-0.1-0.3-0.2-0.5l-67.8-162.7
		c14.9,3.6,32.1,5.8,52.4,5.8C503,160,512,151,512,140L512,140z M136.7,280H63.3l36.7-88L136.7,280z M100,400c-33.1,0-60-26.9-60-60
		c0-11,9-20,20-20h80c11,0,20,9,20,20C160,373.1,133.1,400,100,400z M256,40c11,0,20,9,20,20s-9,20-20,20s-20-9-20-20S245,40,256,40
		L256,40z M412,192l36.7,88h-73.4L412,192z M412,400c-33.1,0-60-26.9-60-60c0-11,9-20,20-20h80c11,0,20,9,20,20
		C472,373.1,445.1,400,412,400z"/>
	<path class="st0" d="M156,492c0,11,9,20,20,20h160c11,0,20-9,20-20s-9-20-20-20H176C165,472,156,481,156,492z"/>
</g>
</svg>
