<?xml version="1.0" encoding="utf-8"?>
<!-- Generator: Adobe Illustrator 28.1.0, SVG Export Plug-In . SVG Version: 6.00 Build 0)  -->
<svg version="1.1" id="Capa_1" xmlns="http://www.w3.org/2000/svg" xmlns:xlink="http://www.w3.org/1999/xlink" x="0px" y="0px"
	 viewBox="0 0 512 512" style="enable-background:new 0 0 512 512;" xml:space="preserve">
<style type="text/css">
	.st0{fill:#2B3A73;}
</style>
<g>
	<path class="st0" d="M494.4,151.3c-23.4-23.4-61.5-23.4-84.9,0l-150,150c-24.8,24.8-40.3,56.5-44.6,90.7h-18.4
		c-8.3-23.3-30.5-40-56.6-40c-33.1,0-60,26.9-60,60c0,11,9,20,20,20c11,0,20-9,20-20c0-11,9-20,20-20c11,0,20,9,20,20
		c0,11,9,20,20,20h53.7c41.8,0,81.1-16.3,110.7-45.9c8.6-8.6,141.4-141.4,150-150C517.8,212.8,517.8,174.7,494.4,151.3z
		 M316.2,357.9c-16.7,16.7-37.6,27.7-60.4,32.1c4.3-22.7,15.3-43.6,32.1-60.4l87.3-87.3l28.3,28.3L316.2,357.9z M466.2,207.9
		l-34.4,34.4L403.4,214l34.4-34.4c7.8-7.8,20.5-7.8,28.3,0C474,187.4,474,200,466.2,207.9z"/>
	<polygon class="st0" points="380,415.1 380,415.1 380,415.1 	"/>
	<path class="st0" d="M380,415.1c-11,0-20,9-20,20V452c0,11-9,20-20,20H60c-11,0-20-9-20-20V60c0-11,9-20,20-20h223.4
		c5.3,0,10.4,2.1,14.1,5.9l56.6,56.6c2.4,2.4,4.2,5.4,5.1,8.7c3,10.6,14.1,16.8,24.7,13.8c10.6-3,16.8-14.1,13.8-24.7
		c-2.8-9.8-8.1-18.9-15.3-26.1l-56.6-56.6C314.5,6.2,299.5,0,283.4,0H60C26.9,0,0,26.9,0,60v392c0,33.1,26.9,60,60,60h280
		c33.1,0,60-26.9,60-60v-16.9C400,424.1,391.1,415.1,380,415.1z"/>
	<path class="st0" d="M220,120H100c-11,0-20,9-20,20s9,20,20,20h120c11,0,20-9,20-20S231.1,120,220,120z"/>
	<path class="st0" d="M220,200H100c-11,0-20,9-20,20s9,20,20,20h120c11,0,20-9,20-20S231.1,200,220,200z"/>
</g>
</svg>
