<?xml version="1.0" encoding="utf-8"?>
<!-- Generator: Adobe Illustrator 28.1.0, SVG Export Plug-In . SVG Version: 6.00 Build 0)  -->
<svg version="1.1" id="Capa_1" xmlns="http://www.w3.org/2000/svg" xmlns:xlink="http://www.w3.org/1999/xlink" x="0px" y="0px"
	 viewBox="0 0 512 512" style="enable-background:new 0 0 512 512;" xml:space="preserve">
<style type="text/css">
	.st0{fill:#2B3A73;}
</style>
<g>
	<path class="st0" d="M316,60c0-33.1-26.9-60-60-60s-60,26.9-60,60s26.9,60,60,60S316,93.1,316,60z M256,80c-11,0-20-9-20-20
		s9-20,20-20s20,9,20,20S267,80,256,80z"/>
	<path class="st0" d="M216,240h80c33.1,0,60-26.9,60-60s-26.9-60-60-60h-40h-40c-33.1,0-60,26.9-60,60S182.9,240,216,240z M216,160
		h80c11,0,20,9,20,20s-9,20-20,20h-80c-11,0-20-9-20-20S205,160,216,160z"/>
	<path class="st0" d="M472,332c0-33.1-26.9-60-60-60s-60,26.9-60,60s26.9,60,60,60S472,365.1,472,332z M412,352c-11,0-20-9-20-20
		s9-20,20-20s20,9,20,20S423,352,412,352z"/>
	<path class="st0" d="M452,392h-40h-40c-33.1,0-60,26.9-60,60s26.9,60,60,60h80c33.1,0,60-26.9,60-60S485.1,392,452,392z M452,472
		h-80c-11,0-20-9-20-20s9-20,20-20h80c11,0,20,9,20,20S463,472,452,472z"/>
	<path class="st0" d="M160,332c0-33.1-26.9-60-60-60s-60,26.9-60,60s26.9,60,60,60S160,365.1,160,332z M100,352c-11,0-20-9-20-20
		s9-20,20-20s20,9,20,20S111,352,100,352z"/>
	<path class="st0" d="M140,392h-40H60c-33.1,0-60,26.9-60,60s26.9,60,60,60h80c33.1,0,60-26.9,60-60S173.1,392,140,392z M140,472H60
		c-11,0-20-9-20-20s9-20,20-20h80c11,0,20,9,20,20S151,472,140,472z"/>
	<path class="st0" d="M296,312h-20v-20c0-11-9-20-20-20c-11,0-20,9-20,20v20h-20c-11,0-20,9-20,20c0,11,9,20,20,20h80
		c11,0,20-9,20-20C316,321,307,312,296,312z"/>
</g>
</svg>
