<?xml version="1.0" encoding="utf-8"?>
<!-- Generator: Adobe Illustrator 28.1.0, SVG Export Plug-In . SVG Version: 6.00 Build 0)  -->
<svg version="1.1" id="Capa_1" xmlns="http://www.w3.org/2000/svg" xmlns:xlink="http://www.w3.org/1999/xlink" x="0px" y="0px"
	 viewBox="0 0 512 512" style="enable-background:new 0 0 512 512;" xml:space="preserve">
<style type="text/css">
	.st0{fill:#2B3A73;}
</style>
<g>
	<path class="st0" d="M236,292v40c0,11,9,20,20,20s20-9,20-20v-40c0-11-9-20-20-20S236,281,236,292z"/>
	<path class="st0" d="M256,240c66.2,0,120-53.8,120-120S322.2,0,256,0S136,53.8,136,120S189.8,240,256,240z M256,40
		c44.1,0,80,35.9,80,80s-35.9,80-80,80s-80-35.9-80-80S211.9,40,256,40z"/>
	<path class="st0" d="M344,250.3c-6.2-2.7-13.3-2.1-19,1.6c-5.6,3.7-9,10-9,16.7V332c0,5.9-2.6,11.5-7.1,15.3L256,392c0,0,0,0,0,0
		l-52.9-44.7c-4.5-3.8-7.1-9.4-7.1-15.3v-63.4c0,0,0,0,0-0.1c0-14.5-15-23.9-27.9-18.3c0,0,0,0-0.1,0C87.8,285.3,36,364.5,36,452
		c0,33.1,26.9,60,60,60h320c33.1,0,60-26.9,60-60C476,364.5,424.2,285.3,344,250.3z M236,472H96c-11,0-20-9-20-20
		c0-60.8,30.6-116.7,80-149.7V332c0,17.7,7.8,34.4,21.3,45.8l52.9,44.7c1.8,1.5,3.8,2.9,5.8,4.1V472z M416,472H276v-45.4
		c2-1.2,4-2.5,5.8-4.1l52.9-44.7c13.5-11.4,21.3-28.1,21.3-45.8v-29.7c49.4,33,80,88.9,80,149.7C436,463,427,472,416,472z"/>
</g>
</svg>
