<?xml version="1.0" encoding="utf-8"?>
<!-- Generator: Adobe Illustrator 28.1.0, SVG Export Plug-In . SVG Version: 6.00 Build 0)  -->
<svg version="1.1" id="Capa_1" xmlns="http://www.w3.org/2000/svg" xmlns:xlink="http://www.w3.org/1999/xlink" x="0px" y="0px"
	 viewBox="0 0 512 512" style="enable-background:new 0 0 512 512;" xml:space="preserve">
<style type="text/css">
	.st0{fill:#2B3A73;}
</style>
<g id="Pharmacist">
	<g>
		<path class="st0" d="M412,432h-36c-11,0-20-9-20-20s9-20,20-20h36c11,0,20,9,20,20S423,432,412,432z"/>
	</g>
	<path class="st0" d="M412,312h-36c-11,0-20,9-20,20s9,20,20,20h36c33.1,0,60,26.9,60,60v40c0,11-9,20-20,20H316v-176
		c36.8-21.3,60-60.7,60-103.9v-72c0-33.8-14.4-66.3-39.5-89C311.4,8.3,277.6-2.8,243.7,0.6c-30.1,3-57.7,17.9-77.7,42
		c-19.3,23.2-30,52.7-30,83.1V192c0,43.2,23.2,82.7,60,103.9v16h-96C44.9,312,0,356.9,0,412v40c0,33.1,26.9,60,60,60h392
		c33.1,0,60-26.9,60-60v-40C512,356.9,467.1,312,412,312z M176,125.7c0-44.8,33.5-85.7,80.1-85.7c19.9,0,38.7,7.2,53.6,20.7
		C326.4,75.8,336,97.4,336,120v20h-40c-11,0-20-9-20-20c0-11-9-20-20-20s-20,9-20,20c0,11-9,20-20,20h-40V125.7z M40,452v-40
		c0-33.1,26.9-60,60-60h96v120H60C49,472,40,463,40,452z M276,472h-40v-83.4c6.3,2.2,13,3.4,20,3.4c7,0,13.7-1.2,20-3.4V472z
		 M288,265.3c-7.3,3.2-12,10.4-12,18.3V332c0,11-9,20-20,20s-20-9-20-20v-48.3c0-8-4.7-15.1-12-18.3c-29.2-12.7-48-41.5-48-73.4v-12
		h40c15.4,0,29.4-5.8,40-15.3c10.6,9.5,24.6,15.3,40,15.3h40v12C336,223.8,317.2,252.6,288,265.3L288,265.3z"/>
</g>
</svg>
