<?xml version="1.0" encoding="utf-8"?>
<!-- Generator: Adobe Illustrator 28.1.0, SVG Export Plug-In . SVG Version: 6.00 Build 0)  -->
<svg version="1.1" id="Layer_1" xmlns="http://www.w3.org/2000/svg" xmlns:xlink="http://www.w3.org/1999/xlink" x="0px" y="0px"
	 viewBox="0 0 512 512" style="enable-background:new 0 0 512 512;" xml:space="preserve">
<style type="text/css">
	.st0{fill:#2B3A73;}
</style>
<g>
	<path class="st0" d="M256,512c-67.7-1.3-82.6-93.4-20-116.6V335c1-26.5,39-26.5,40,0v60.4C338.6,418.6,323.6,510.7,256,512z
		 M256,432c-11,0-20,9-20,20c1,26.5,39,26.5,40,0C276,441,267,432,256,432z"/>
	<path class="st0" d="M452,512c-67.1-1.2-82.6-92.2-21-116.2V375c0-11-9-20-20-20h-76c-26.5-1-26.5-39,0-40h76c33.1,0,60,26.9,60,60
		v20.1C534.6,417.4,520.2,510.7,452,512z M452,432c-11,0-20,9-20,20c1,26.5,39,26.5,40,0C472,441,463,432,452,432z M60,512
		c-68.3-1.4-82.6-94.6-19-116.9V375c0-33.1,26.9-60,60-60h76c26.5,1,26.5,39,0,40h-76c-11,0-20,9-20,20v20.8
		C142.7,419.8,127,510.8,60,512z M60,432c-11,0-20,9-20,20c1,26.5,39,26.5,40,0C80,441,71,432,60,432z M305,280h-98
		c-26.5-1-26.5-39,0-40h98C331.5,241,331.5,279,305,280z M325,210H187c-38.6,0-70-31.4-70-70V70c0-38.6,31.4-70,70-70h138
		c38.6,0,70,31.4,70,70v70C395,178.6,363.6,210,325,210z M187,40c-16.5,0-30,13.5-30,30v70c0,16.5,13.5,30,30,30h138
		c16.5,0,30-13.5,30-30V70c0-16.5-13.5-30-30-30H187z"/>
</g>
</svg>
