<?xml version="1.0" encoding="utf-8"?>
<!-- Generator: Adobe Illustrator 28.1.0, SVG Export Plug-In . SVG Version: 6.00 Build 0)  -->
<svg version="1.1" id="Capa_1" xmlns="http://www.w3.org/2000/svg" xmlns:xlink="http://www.w3.org/1999/xlink" x="0px" y="0px"
	 viewBox="0 0 512 512" style="enable-background:new 0 0 512 512;" xml:space="preserve">
<style type="text/css">
	.st0{fill:#2B3A73;}
</style>
<g>
	<path class="st0" d="M296,312c11,0,20-9,20-20V172c0-11-9-20-20-20s-20,9-20,20v120C276,303,285,312,296,312z"/>
	<g>
		<path class="st0" d="M452,0H60C26.9,0,0,26.9,0,60s26.9,60,60,60h392c33.1,0,60-26.9,60-60S485.1,0,452,0z M452,80H60
			c-11,0-20-9-20-20s9-20,20-20h392c11,0,20,9,20,20S463,80,452,80z"/>
		<path class="st0" d="M56,152c-11,0-20,9-20,20v120c0,55.1,44.9,100,100,100h180v80h-20c-11,0-20,9-20,20s9,20,20,20h80
			c11,0,20-9,20-20s-9-20-20-20h-20v-80h20c55.1,0,100-44.9,100-100V172c0-11-9-20-20-20s-20,9-20,20v120c0,33.1-26.9,60-60,60H136
			c-33.1,0-60-26.9-60-60V172C76,161,67,152,56,152z"/>
		<path class="st0" d="M156,292v-40c0-11-9-20-20-20s-20,9-20,20v40c0,11,9,20,20,20S156,303,156,292z"/>
		<path class="st0" d="M236,292v-80c0-11-9-20-20-20s-20,9-20,20v80c0,11,9,20,20,20S236,303,236,292z"/>
		<path class="st0" d="M396,292v-40c0-11-9-20-20-20s-20,9-20,20v40c0,11,9,20,20,20S396,303,396,292z"/>
	</g>
</g>
</svg>
