<?xml version="1.0" encoding="utf-8"?>
<!-- Generator: Adobe Illustrator 28.1.0, SVG Export Plug-In . SVG Version: 6.00 Build 0)  -->
<svg version="1.1" id="Capa_1" xmlns="http://www.w3.org/2000/svg" xmlns:xlink="http://www.w3.org/1999/xlink" x="0px" y="0px"
	 viewBox="0 0 512 512" style="enable-background:new 0 0 512 512;" xml:space="preserve">
<style type="text/css">
	.st0{fill:#2B3A73;}
</style>
<g>
	<path class="st0" d="M452,196c-11,0-20,9-20,20s9,20,20,20c11,0,20,9,20,20v140c0,22.1-17.9,40-40,40c-22.1,0-40-17.9-40-40V96
		c0-33.1-26.9-60-60-60H60C26.9,36,0,62.9,0,96v300c0,44.1,35.9,80,80,80h352c44.1,0,80-35.9,80-80V256C512,222.9,485.1,196,452,196
		z M80,436c-22.1,0-40-17.9-40-40V96c0-11,9-20,20-20h272c11,0,20,9,20,20v300c0,14.6,3.9,28.2,10.7,40H80z"/>
	<path class="st0" d="M292,116H100c-11,0-20,9-20,20s9,20,20,20h192c11,0,20-9,20-20S303,116,292,116z"/>
	<path class="st0" d="M292,276h-40c-11,0-20,9-20,20c0,11,9,20,20,20h40c11,0,20-9,20-20C312,285,303,276,292,276z"/>
	<path class="st0" d="M292,196H100c-11,0-20,9-20,20s9,20,20,20h192c11,0,20-9,20-20S303,196,292,196z"/>
	<path class="st0" d="M292,356h-40c-11,0-20,9-20,20c0,11,9,20,20,20h40c11,0,20-9,20-20C312,365,303,356,292,356z"/>
	<path class="st0" d="M140,276c-33.1,0-60,26.9-60,60s26.9,60,60,60s60-26.9,60-60S173.1,276,140,276z M140,356c-11,0-20-9-20-20
		s9-20,20-20s20,9,20,20S151,356,140,356z"/>
</g>
</svg>
