<?xml version="1.0" encoding="utf-8"?>
<!-- Generator: Adobe Illustrator 28.1.0, SVG Export Plug-In . SVG Version: 6.00 Build 0)  -->
<svg version="1.1" id="圖層_1" xmlns="http://www.w3.org/2000/svg" xmlns:xlink="http://www.w3.org/1999/xlink" x="0px" y="0px"
	 viewBox="0 0 32 32" style="enable-background:new 0 0 32 32;" xml:space="preserve">
<style type="text/css">
	.st0{fill:#2B3A73;}
</style>
<g>
	<path class="st0" d="M29.8,17.2c0.1-0.7,0.2-1.4,0.2-2.2c0-8.3-6.7-15-15-15C6.7,0,0,6.7,0,15c0,8.3,6.7,15,15,15
		c0.7,0,1.4-0.1,2.2-0.2c3.8,3.2,9.5,2.6,12.7-1.2C32.6,25.3,32.6,20.5,29.8,17.2z M28,15c0,0.2,0,0.3,0,0.5c-1.5-1-3.2-1.5-5-1.5
		c-0.3,0-0.7,0-1,0.1c0-0.7-0.1-1.4-0.2-2.1h5.9C27.9,13,28,14,28,15z M27,10h-5.6c-0.7-2.8-2-5.5-3.9-7.8C21.7,3.1,25.3,6,27,10z
		 M19.3,10h-8.6C11.5,7.2,13,4.6,15,2.4C17,4.6,18.5,7.2,19.3,10z M12.5,2.2C10.7,4.5,9.4,7.2,8.6,10H3C4.7,6,8.3,3.1,12.5,2.2z
		 M2,15c0-1,0.1-2,0.4-3h5.9C8.1,13,8,14,8,15c0,1,0.1,2,0.2,3H2.4C2.1,17,2,16,2,15z M3,20h5.6c0.7,2.8,2.1,5.5,3.9,7.8
		C8.3,26.9,4.7,24,3,20z M15.4,28c-2.2-2.2-3.8-5-4.7-8h3.8c-0.3,1-0.5,2-0.5,3c0,1.8,0.5,3.5,1.5,5H15.4z M10.3,18
		c-0.2-1-0.3-2-0.3-3c0-1,0.1-2,0.3-3h9.5c0.1,0.8,0.2,1.7,0.3,2.5c-1.8,0.6-3.4,1.9-4.5,3.5H10.3z M23,30c-3.9,0-7-3.1-7-7
		s3.1-7,7-7s7,3.1,7,7S26.9,30,23,30z"/>
	<path class="st0" d="M24.9,19c-0.7,0-1.3,0.2-1.9,0.6c-0.5-0.4-1.2-0.6-1.9-0.6c-1.7,0-3.1,1.4-3.1,3.1c0,0.7,0.2,1.5,0.5,2.1
		c0.5,1,1.2,1.8,2.1,2.4l1.9,1.2c0.2,0.1,0.4,0.2,0.5,0.2c0.2,0,0.4-0.1,0.5-0.2l1.9-1.2c0.9-0.6,1.6-1.4,2.1-2.4
		c0.3-0.7,0.5-1.4,0.5-2.1C28,20.4,26.6,19,24.9,19z M25.7,23.3c-0.3,0.6-0.8,1.2-1.4,1.6L23,25.8l-1.3-0.9
		c-0.6-0.4-1.1-0.9-1.4-1.6C20.1,23,20,22.5,20,22.1c0-0.6,0.5-1.1,1.1-1.1c0.3,0,0.6,0.1,0.8,0.3l0.4,0.4c0,0,0,0,0,0
		c0.4,0.4,1,0.4,1.4,0l0.4-0.4c0.2-0.2,0.5-0.3,0.8-0.3c0.6,0,1.1,0.5,1.1,1.1C26,22.5,25.9,23,25.7,23.3z"/>
</g>
</svg>
