<?xml version="1.0" encoding="utf-8"?>
<!-- Generator: Adobe Illustrator 28.0.0, SVG Export Plug-In . SVG Version: 6.00 Build 0)  -->
<svg version="1.1" id="圖層_1" xmlns="http://www.w3.org/2000/svg" xmlns:xlink="http://www.w3.org/1999/xlink" x="0px" y="0px"
	 viewBox="0 0 32 32" style="enable-background:new 0 0 32 32;" xml:space="preserve">
<style type="text/css">
	.st0{fill:#2B3A73;}
</style>
<g id="_19._Ruler_and_Pencil">
	<path class="st0" d="M16,7h-3c-0.6,0-1-0.4-1-1s0.4-1,1-1h3c0.6,0,1,0.4,1,1S16.6,7,16,7z"/>
	<path class="st0" d="M16,12h-3c-0.6,0-1-0.4-1-1s0.4-1,1-1h3c0.6,0,1,0.4,1,1S16.6,12,16,12z"/>
	<path class="st0" d="M16,17h-3c-0.6,0-1-0.4-1-1c0-0.6,0.4-1,1-1h3c0.6,0,1,0.4,1,1C17,16.6,16.6,17,16,17z"/>
	<path class="st0" d="M16,22h-3c-0.6,0-1-0.4-1-1s0.4-1,1-1h3c0.6,0,1,0.4,1,1S16.6,22,16,22z"/>
	<path class="st0" d="M16,27h-3c-0.6,0-1-0.4-1-1s0.4-1,1-1h3c0.6,0,1,0.4,1,1S16.6,27,16,27z"/>
	<path class="st0" d="M14,32H8c-1.7,0-3-1.3-3-3l0,0v-4c0-0.6,0.4-1,1-1s1,0.4,1,1v4c0,0.6,0.4,1,1,1h6c0.6,0,1-0.4,1-1V3
		c0-0.6-0.4-1-1-1H8C7.4,2,7,2.4,7,3v18c0,0.6-0.4,1-1,1s-1-0.4-1-1V3c0-1.7,1.3-3,3-3h6c1.7,0,3,1.3,3,3v26C17,30.7,15.7,32,14,32
		L14,32z"/>
	<path class="st0" d="M23,32c-0.4,0-0.7-0.2-0.9-0.5l-3-5C19,26.4,19,26.2,19,26V4c0-2.2,1.8-4,4-4s4,1.8,4,4v2c0,0.6-0.4,1-1,1
		s-1-0.4-1-1V4c0-1.1-0.9-2-2-2s-2,0.9-2,2v21.7l2,3.3l2-3.3V10c0-0.6,0.4-1,1-1s1,0.4,1,1v16c0,0.2,0,0.4-0.1,0.5l-3,5
		C23.7,31.8,23.4,32,23,32z"/>
	<path class="st0" d="M26,27h-6c-0.6,0-1-0.4-1-1s0.4-1,1-1h6c0.6,0,1,0.4,1,1S26.6,27,26,27z"/>
	<path class="st0" d="M26,7h-6c-0.6,0-1-0.4-1-1s0.4-1,1-1h6c0.6,0,1,0.4,1,1S26.6,7,26,7z"/>
</g>
</svg>
