<?xml version="1.0" encoding="utf-8"?>
<!-- Generator: Adobe Illustrator 28.0.0, SVG Export Plug-In . SVG Version: 6.00 Build 0)  -->
<svg version="1.1" id="圖層_1" xmlns="http://www.w3.org/2000/svg" xmlns:xlink="http://www.w3.org/1999/xlink" x="0px" y="0px"
	 viewBox="0 0 32 32" style="enable-background:new 0 0 32 32;" xml:space="preserve">
<style type="text/css">
	.st0{fill:#2B3A73;}
</style>
<path class="st0" d="M26.2,13.9c-0.7,0-1.1-0.4-1.1-1.1v-2.2c0-3.1-2.5-5.6-5.6-5.6h-2.2c-0.7,0-1.1-0.4-1.1-1.1s0.4-1.1,1.1-1.1
	h2.2c4.3,0,7.8,3.5,7.8,7.8v2.2C27.3,13.5,26.9,13.9,26.2,13.9z"/>
<path class="st0" d="M17.3,7.2c-0.3,0-0.6-0.1-0.8-0.3l-2.2-2.2c-0.4-0.4-0.4-1.1,0-1.6l2.2-2.2c0.4-0.4,1.1-0.4,1.6,0
	c0.4,0.4,0.4,1.1,0,1.6l0,0l-1.4,1.4l1.4,1.4c0.4,0.4,0.4,1.1,0,1.6C17.9,7.1,17.6,7.2,17.3,7.2z"/>
<path class="st0" d="M12.8,29.5h-2.2C7.5,29.5,5,27.1,5,24v-4.5c0-0.7,0.4-1.1,1.1-1.1s1.1,0.4,1.1,1.1V24c0,1.9,1.4,3.3,3.3,3.3
	h2.2c0.7,0,1.1,0.4,1.1,1.1C14,29.1,13.5,29.5,12.8,29.5z"/>
<path class="st0" d="M12.8,31.8c-0.7,0-1.1-0.4-1.1-1.1c0-0.3,0.1-0.6,0.3-0.8l1.4-1.4L12.1,27c-0.4-0.4-0.4-1.1,0-1.6
	c0.4-0.4,1.1-0.4,1.6,0l2.2,2.2c0.4,0.4,0.4,1.1,0,1.6l-2.2,2.2C13.4,31.7,13.2,31.8,12.8,31.8z"/>
<path class="st0" d="M6.4,7.4c-2,0-3.7-1.7-3.7-3.7S4.4,0,6.4,0s3.7,1.7,3.7,3.7S8.4,7.4,6.4,7.4z M6.4,2.2c-0.8,0-1.4,0.7-1.4,1.4
	s0.7,1.4,1.4,1.4s1.4-0.7,1.4-1.4S7.2,2.2,6.4,2.2z"/>
<path class="st0" d="M12.5,16.3H0.1v-1.1c0-1.3,0-1.9,0.1-2.5c0.4-1.7,1.9-3,3.6-3.5C4.5,9,5,9,6.4,9s1.9,0,2.5,0.1
	c1.7,0.4,3,1.8,3.5,3.5c0.1,0.6,0.1,1.3,0.1,2.6v1.1H12.5z M2.4,14h7.9c0-0.3,0-0.7-0.1-0.9c-0.2-0.9-1-1.7-1.9-1.9
	c-0.3-0.1-0.9-0.1-2-0.1s-1.7,0-2,0.1c-0.9,0.2-1.8,1-2,1.9C2.4,13.4,2.4,13.6,2.4,14z"/>
<path class="st0" d="M25.3,23.2c-2,0-3.7-1.7-3.7-3.7s1.7-3.7,3.7-3.7s3.7,1.7,3.7,3.7S27.3,23.2,25.3,23.2z M25.3,18.1
	c-0.8,0-1.4,0.7-1.4,1.4c0,0.8,0.7,1.4,1.4,1.4s1.4-0.7,1.4-1.4C26.8,18.7,26.1,18.1,25.3,18.1z"/>
<path class="st0" d="M31.5,32H19v-1.1c0-1.3,0-1.9,0.1-2.5c0.4-1.7,1.8-3,3.5-3.5h0.1c0.8-0.1,1.4-0.1,2.7-0.1c1.3,0,1.9,0,2.5,0.1
	c1.7,0.4,3,1.8,3.5,3.5c0.1,0.6,0.1,1.3,0.1,2.6v1H31.5z M21.2,29.8h8c0-0.3,0-0.7-0.1-0.9c-0.2-0.9-1-1.7-1.9-1.9
	c-0.3-0.1-0.9-0.1-2-0.1c-1,0-1.7,0-2.2,0.1c-0.9,0.2-1.7,1-1.8,1.9C21.2,29.1,21.2,29.3,21.2,29.8z"/>
</svg>
