<?xml version="1.0" encoding="utf-8"?>
<!-- Generator: Adobe Illustrator 28.0.0, SVG Export Plug-In . SVG Version: 6.00 Build 0)  -->
<svg version="1.1" id="Layer_1" xmlns="http://www.w3.org/2000/svg" xmlns:xlink="http://www.w3.org/1999/xlink" x="0px" y="0px"
	 viewBox="0 0 800 800" style="enable-background:new 0 0 800 800;" xml:space="preserve">
<style type="text/css">
	.st0{fill:#2B3A73;}
</style>
<g>
	<g>
		<path class="st0" d="M729.7,178.7L556.3,5.8c-4.1-4.1-9.6-5.8-15.3-5.8H176.7c-12,0-21.7,8.6-21.7,20.6v552.8
			C103.2,583.7,64,630.9,64,685.6c0,62,50.5,114.4,112.5,114.4c0.1,0,0.2,0,0.3,0h444.4l-0.1-0.6c0.4,0,0.8-0.2,1.1-0.2
			c62.8,0,113.8-51.3,113.8-114.1V194C736,188.3,733.8,182.8,729.7,178.7z M562.6,72.9L662,173.4h-99.4V72.9z M532.2,756.6H176.8
			c-38.3-2.2-69.5-32.1-69.5-70.5s31.2-70.5,69.5-70.5h355.4h0.8c-15.4,17.3-24.6,43.4-24.6,69.9c0,26.8,9.4,51.8,25,71.3
			L532.2,756.6z M692.7,685.1c0,38.9-31.6,70.5-70.5,70.5s-70.5-31.6-70.5-70.5c0-38.4,31.2-70,69.6-70.5
			c11.9-0.1,21.5-9.3,21.4-21.3c-0.1-11.9-9.8-21-21.7-21H198.4v-529h320.9V194c0,12,9.7,22.8,21.7,22.8h151.8L692.7,685.1
			L692.7,685.1z"/>
	</g>
</g>
<g>
	<g>
		<path class="st0" d="M608.1,301.4H282.9c-12,0-21.7,9.7-21.7,21.7s9.7,21.7,21.7,21.7h325.2c12,0,21.7-9.7,21.7-21.7
			S620.1,301.4,608.1,301.4z"/>
	</g>
</g>
<g>
	<g>
		<path class="st0" d="M454.2,214.6H282.9c-12,0-21.7,9.7-21.7,21.7c0,12,9.7,21.7,21.7,21.7h171.3c12,0,21.7-9.7,21.7-21.7
			C475.9,224.3,466.2,214.6,454.2,214.6z"/>
	</g>
</g>
<g>
	<g>
		<path class="st0" d="M454.2,127.9H282.9c-12,0-21.7,9.7-21.7,21.7c0,12,9.7,21.7,21.7,21.7h171.3c12,0,21.7-9.7,21.7-21.7
			C475.9,137.6,466.2,127.9,454.2,127.9z"/>
	</g>
</g>
<g>
	<g>
		<path class="st0" d="M608.1,388.1H282.9c-12,0-21.7,9.7-21.7,21.7c0,12,9.7,21.7,21.7,21.7h325.2c12,0,21.7-9.7,21.7-21.7
			C629.8,397.8,620.1,388.1,608.1,388.1z"/>
	</g>
</g>
<g>
	<g>
		<path class="st0" d="M608.1,474.8H282.9c-12,0-21.7,9.7-21.7,21.7c0,12,9.7,21.7,21.7,21.7h325.2c12,0,21.7-9.7,21.7-21.7
			C629.8,484.5,620.1,474.8,608.1,474.8z"/>
	</g>
</g>
</svg>
