<?xml version="1.0" encoding="utf-8"?>
<!-- Generator: Adobe Illustrator 28.0.0, SVG Export Plug-In . SVG Version: 6.00 Build 0)  -->
<svg version="1.1" id="圖層_1" xmlns="http://www.w3.org/2000/svg" xmlns:xlink="http://www.w3.org/1999/xlink" x="0px" y="0px"
	 viewBox="0 0 800 800" style="enable-background:new 0 0 800 800;" xml:space="preserve">
<style type="text/css">
	.st0{fill:#2B3A73;}
</style>
<path class="st0" d="M359,800H30.8C13.8,800,0,786.2,0,769.2c0-40.8,0-61.3,5.2-80.8c14.2-52.9,55.9-94.6,108.8-108.8
	c19.6-5.2,40-5.2,80.8-5.2c40.8,0,61.3,0,80.8,5.2c52.9,14.2,94.6,55.9,108.8,108.8c5.2,19.6,5.2,40,5.2,80.8
	C389.7,786.2,376,800,359,800z M61.7,738.5h266.4c-0.3-15.9-1-26.5-3-34.2c-8.5-31.8-33.5-56.8-65.3-65.3
	c-11.7-3.1-30.6-3.1-64.9-3.1c-34.3,0-53.2,0-64.9,3.1c-31.8,8.5-56.8,33.5-65.3,65.3C62.6,711.9,61.9,722.6,61.7,738.5z
	 M637.9,594.9H482.1c-17,0-30.8-13.8-30.8-30.8c0-17,13.8-30.8,30.8-30.8h155.9c39.7,0,61.5,0,72.5-5.6c9.7-5,17.5-12.7,22.4-22.4
	c5.6-11,5.6-32.8,5.6-72.5V162.1c0-39.7,0-61.5-5.6-72.5c-4.9-9.7-12.7-17.5-22.4-22.4c-11-5.6-32.8-5.6-72.5-5.6H285.1
	c-39.7,0-61.5,0-72.5,5.6c-9.7,4.9-17.5,12.7-22.4,22.4c-5,9.8-5.6,28-5.6,64.3c0,17-13.8,30.7-30.8,30.7c0,0,0,0,0,0
	c-17,0-30.8-13.8-30.7-30.8c0-43.6,0.6-69.3,12.3-92.2c10.9-21.4,27.9-38.4,49.3-49.3C208.8,0,235.9,0,285.1,0h352.8
	c49.2,0,76.3,0,100.5,12.3c21.4,10.9,38.4,27.9,49.3,49.3C800,85.7,800,112.8,800,162.1v270.8c0,49.2,0,76.3-12.3,100.5
	c-10.9,21.4-27.9,38.4-49.3,49.3C714.3,594.9,687.2,594.9,637.9,594.9z M194.9,512.8c-62.2,0-112.8-50.6-112.8-112.8
	c0-62.2,50.6-112.8,112.8-112.8c62.2,0,112.8,50.6,112.8,112.8C307.7,462.2,257.1,512.8,194.9,512.8z M194.9,348.7
	c-28.3,0-51.3,23-51.3,51.3c0,28.3,23,51.3,51.3,51.3c28.3,0,51.3-23,51.3-51.3C246.2,371.7,223.1,348.7,194.9,348.7z M441,389.7
	c-8.2,0-16-3.2-21.8-9L296.2,257.7c-12-12-12-31.5,0-43.5c12-12,31.5-12,43.5,0L441,315.5l130.8-130.8h-48.8
	c-17,0-30.8-13.8-30.8-30.8c0-17,13.8-30.8,30.8-30.8h123.1c4.5,0,8.8,1,12.6,2.7c0,0,0,0,0.1,0c0,0,0,0,0,0c2.7,1.2,5.4,2.9,7.7,5
	c0,0,0,0,0,0c0,0,0,0,0.1,0.1c0,0,0.1,0.1,0.1,0.1c0,0,0,0,0,0c0.8,0.7,1.5,1.4,2.2,2.2c0,0,0,0,0.1,0.1c0,0,0,0,0,0
	c2.3,2.6,4.1,5.5,5.4,8.5c0,0,0,0,0,0c0,0,0,0,0,0.1c1.5,3.6,2.3,7.5,2.4,11.5v0c0,0.1,0,0.1,0,0.2c0,0,0,0,0,0c0,0.1,0,0.1,0,0.2
	l0,0v123.1c0,17-13.8,30.8-30.8,30.8s-30.8-13.8-30.8-30.8v-48.8L462.8,380.7C457,386.5,449.2,389.7,441,389.7z"/>
</svg>
